M48
; DRILL file KiCad 10.0.1 date 2026-07-12T22:50:27
; FORMAT={-:-/ absolute / metric / decimal}
; #@! TF.CreationDate,2026-07-12T22:50:27+09:00
; #@! TF.GenerationSoftware,Kicad,Pcbnew,10.0.1
; #@! TF.FileFunction,Plated,1,4,PTH
FMAT,2
METRIC
; #@! TA.AperFunction,Plated,PTH,ViaDrill
T1C0.300
; #@! TA.AperFunction,Plated,PTH,ComponentDrill
T2C0.300
; #@! TA.AperFunction,Plated,PTH,ComponentDrill
T3C0.350
; #@! TA.AperFunction,Plated,PTH,ViaDrill
T4C0.900
; #@! TA.AperFunction,Plated,PTH,ComponentDrill
T5C1.000
; #@! TA.AperFunction,Plated,PTH,ComponentDrill
T6C2.380
%
G90
G05
T1
X88.14Y-103.905
X88.345Y-42.285
X88.625Y-60.045
X88.845Y-50.935
X89.195Y-63.485
X89.225Y-57.855
X89.235Y-43.595
X89.255Y-52.475
X89.975Y-55.435
X90.035Y-54.045
X90.655Y-85.805
X90.765Y-50.075
X91.275Y-55.665
X91.605Y-45.355
X91.835Y-44.215
X92.215Y-63.785
X93.495Y-44.195
X93.665Y-50.015
X94.135Y-54.005
X94.425Y-57.255
X94.765Y-52.475
X95.135Y-72.175
X95.665Y-43.505
X95.725Y-51.075
X95.875Y-48.265
X95.975Y-109.205
X96.515Y-42.205
X96.895Y-47.765
X97.745Y-123.605
X97.885Y-57.655
X98.545Y-62.505
X100.405Y-51.715
X100.805Y-59.075
X101.665Y-110.775
X103.765Y-50.735
X104.785Y-99.295
X105.675Y-57.495
X105.795Y-139.555
X106.135Y-56.15
X106.455Y-102.157
X107.185Y-57.445
X107.255Y-51.835
X109.405Y-85.755
X110.845Y-105.845
X112.315Y-53.165
X114.035Y-101.185
X114.195Y-104.755
X114.225Y-72.055
X114.305Y-107.735
X116.755Y-109.215
X116.815Y-103.445
X117.565Y-52.675
X117.625Y-58.665
X117.675Y-103.405
X117.695Y-62.485
X117.725Y-61.155
X117.775Y-59.925
X117.805Y-57.405
X117.885Y-101.155
X117.885Y-106.415
X118.105Y-123.625
X118.275Y-105.485
X118.695Y-107.295
X119.075Y-105.035
X120.655Y-60.705
X120.705Y-58.875
X121.41Y-114.85
X121.835Y-56.225
X123.21Y-95.12
X123.405Y-97.315
X123.405Y-100.015
X123.415Y-127.495
X123.465Y-113.125
X123.815Y-93.995
X123.855Y-111.005
X124.185Y-83.605
X124.365Y-97.085
X124.505Y-89.495
X124.55Y-139.85
X124.605Y-121.665
X124.72Y-100.67
X124.805Y-61.48
X124.905Y-114.575
X125.175Y-110.755
X125.935Y-111.105
X126.33Y-103.125
X126.385Y-98.865
X126.565Y-110.435
X126.565Y-114.655
X126.935Y-99.845
X127.565Y-100.505
X127.825Y-109.695
X128.425Y-101.205
X128.935Y-85.855
X129.275Y-105.135
X129.275Y-106.775
X131.175Y-53.395
X131.88Y-109.315
X131.915Y-101.935
X133.235Y-71.925
X133.295Y-105.155
X133.365Y-106.745
X135.065Y-111.675
X135.095Y-107.995
X137.025Y-123.895
X137.975Y-51.515
X140.435Y-64.145
X141.045Y-102.145
X141.135Y-100.315
X142.955Y-61.435
X143.73Y-139.86
X146.805Y-104.045
X146.915Y-44.585
X148.955Y-85.675
X149.505Y-44.605
X151.075Y-41.335
X152.465Y-71.765
X156.695Y-123.845
X159.51Y-103.765
X162.285Y-140.025
X164.355Y-57.245
T2
X86.94Y-91.51
X86.94Y-93.91
X86.94Y-129.61
X86.94Y-132.01
X88.21Y-80.0
X88.21Y-82.4
X88.21Y-118.18
X88.21Y-120.58
X89.34Y-91.51
X89.34Y-93.91
X89.34Y-129.61
X89.34Y-132.01
X90.61Y-80.0
X90.61Y-82.4
X90.61Y-118.18
X90.61Y-120.58
X99.89Y-88.97
X99.89Y-91.37
X99.89Y-127.07
X99.89Y-129.47
X101.16Y-77.46
X101.16Y-79.86
X101.16Y-115.64
X101.16Y-118.04
X102.29Y-88.97
X102.29Y-91.37
X102.29Y-127.07
X102.29Y-129.47
X103.56Y-77.46
X103.56Y-79.86
X103.56Y-115.64
X103.56Y-118.04
X105.99Y-91.51
X105.99Y-93.91
X105.99Y-129.61
X105.99Y-132.01
X107.26Y-80.08
X107.26Y-82.48
X107.26Y-118.18
X107.26Y-120.58
X108.39Y-91.51
X108.39Y-93.91
X108.39Y-129.61
X108.39Y-132.01
X109.66Y-80.08
X109.66Y-82.48
X109.66Y-118.18
X109.66Y-120.58
X118.94Y-88.97
X118.94Y-91.37
X118.94Y-127.07
X118.94Y-129.47
X120.21Y-77.54
X120.21Y-79.94
X120.21Y-115.64
X120.21Y-118.04
X121.34Y-88.97
X121.34Y-91.37
X121.34Y-127.07
X121.34Y-129.47
X122.61Y-77.54
X122.61Y-79.94
X122.61Y-115.64
X122.61Y-118.04
X125.04Y-91.51
X125.04Y-93.91
X125.04Y-129.61
X125.04Y-132.01
X126.31Y-80.08
X126.31Y-82.48
X126.31Y-118.18
X126.31Y-120.58
X127.44Y-91.51
X127.44Y-93.91
X127.44Y-129.61
X127.44Y-132.01
X128.71Y-80.08
X128.71Y-82.48
X128.71Y-118.18
X128.71Y-120.58
X137.99Y-88.97
X137.99Y-91.37
X137.99Y-127.07
X137.99Y-129.47
X139.26Y-77.54
X139.26Y-79.94
X139.26Y-115.64
X139.26Y-118.04
X140.39Y-88.97
X140.39Y-91.37
X140.39Y-127.07
X140.39Y-129.47
X141.66Y-77.54
X141.66Y-79.94
X141.66Y-115.64
X141.66Y-118.04
X144.09Y-91.51
X144.09Y-93.91
X144.09Y-129.61
X144.09Y-132.01
X145.36Y-80.08
X145.36Y-82.48
X145.36Y-118.18
X145.36Y-120.58
X146.49Y-91.51
X146.49Y-93.91
X146.49Y-129.61
X146.49Y-132.01
X147.76Y-80.08
X147.76Y-82.48
X147.76Y-118.18
X147.76Y-120.58
X157.04Y-88.97
X157.04Y-91.37
X157.04Y-127.07
X157.04Y-129.47
X158.31Y-77.54
X158.31Y-79.94
X158.31Y-115.64
X158.31Y-118.04
X159.44Y-88.97
X159.44Y-91.37
X159.44Y-127.07
X159.44Y-129.47
X160.71Y-77.54
X160.71Y-79.94
X160.71Y-115.64
X160.71Y-118.04
T3
X122.58Y-104.13
X122.58Y-105.405
X122.58Y-106.68
X123.855Y-104.13
X123.855Y-105.405
X123.855Y-106.68
X125.13Y-104.13
X125.13Y-105.405
X125.13Y-106.68
T4
X135.175Y-61.345
T5
X105.365Y-47.745
X107.865Y-47.745
X109.825Y-47.745
X112.365Y-47.745
X124.125Y-47.745
X126.625Y-47.745
X128.585Y-47.745
X131.125Y-47.745
X146.905Y-39.145
X149.445Y-39.145
X151.985Y-39.145
X154.525Y-39.145
X160.395Y-49.325
X160.395Y-51.865
X160.395Y-54.405
X160.395Y-56.945
X160.395Y-59.485
T6
X102.295Y-45.035
X115.435Y-45.035
X121.055Y-45.035
X134.195Y-45.035
M30
