%TF.GenerationSoftware,KiCad,Pcbnew,10.0.1*%
%TF.CreationDate,2026-07-12T22:50:01+09:00*%
%TF.ProjectId,USBhub-keyboard,55534268-7562-42d6-9b65-79626f617264,rev?*%
%TF.SameCoordinates,Original*%
%TF.FileFunction,Soldermask,Top*%
%TF.FilePolarity,Negative*%
%FSLAX46Y46*%
G04 Gerber Fmt 4.6, Leading zero omitted, Abs format (unit mm)*
G04 Created by KiCad (PCBNEW 10.0.1) date 2026-07-12 22:50:01*
%MOMM*%
%LPD*%
G01*
G04 APERTURE LIST*
G04 Aperture macros list*
%AMRoundRect*
0 Rectangle with rounded corners*
0 $1 Rounding radius*
0 $2 $3 $4 $5 $6 $7 $8 $9 X,Y pos of 4 corners*
0 Add a 4 corners polygon primitive as box body*
4,1,4,$2,$3,$4,$5,$6,$7,$8,$9,$2,$3,0*
0 Add four circle primitives for the rounded corners*
1,1,$1+$1,$2,$3*
1,1,$1+$1,$4,$5*
1,1,$1+$1,$6,$7*
1,1,$1+$1,$8,$9*
0 Add four rect primitives between the rounded corners*
20,1,$1+$1,$2,$3,$4,$5,0*
20,1,$1+$1,$4,$5,$6,$7,0*
20,1,$1+$1,$6,$7,$8,$9,0*
20,1,$1+$1,$8,$9,$2,$3,0*%
G04 Aperture macros list end*
%ADD10C,3.000000*%
%ADD11C,1.600000*%
%ADD12C,4.100000*%
%ADD13O,1.600000X2.000000*%
%ADD14C,2.200000*%
%ADD15C,1.500000*%
%ADD16C,3.570000*%
%ADD17RoundRect,0.225000X-0.250000X0.225000X-0.250000X-0.225000X0.250000X-0.225000X0.250000X0.225000X0*%
%ADD18RoundRect,0.200000X-0.275000X0.200000X-0.275000X-0.200000X0.275000X-0.200000X0.275000X0.200000X0*%
%ADD19O,1.108000X2.308000*%
%ADD20O,1.108000X1.908000*%
%ADD21R,0.599948X1.150112*%
%ADD22R,0.300000X1.150000*%
%ADD23RoundRect,0.200000X-0.200000X-0.275000X0.200000X-0.275000X0.200000X0.275000X-0.200000X0.275000X0*%
%ADD24RoundRect,0.250000X-0.450000X-0.350000X0.450000X-0.350000X0.450000X0.350000X-0.450000X0.350000X0*%
%ADD25O,2.308000X1.108000*%
%ADD26O,1.908000X1.108000*%
%ADD27R,1.150112X0.599948*%
%ADD28R,1.150000X0.300000*%
%ADD29R,1.700000X1.700000*%
%ADD30C,1.700000*%
G04 APERTURE END LIST*
D10*
%TO.C,SW1*%
X92710000Y-81200000D03*
X99060000Y-78660000D03*
D11*
X100330000Y-76120000D03*
X90170000Y-76120000D03*
D12*
X95250000Y-76120000D03*
%TD*%
D10*
%TO.C,SW4*%
X149860000Y-81280000D03*
X156210000Y-78740000D03*
D11*
X157480000Y-76200000D03*
X147320000Y-76200000D03*
D12*
X152400000Y-76200000D03*
%TD*%
D10*
%TO.C,SW6*%
X116840000Y-90170000D03*
X110490000Y-92710000D03*
D11*
X109220000Y-95250000D03*
X119380000Y-95250000D03*
D12*
X114300000Y-95250000D03*
%TD*%
D10*
%TO.C,SW12*%
X149860000Y-119380000D03*
X156210000Y-116840000D03*
D11*
X157480000Y-114300000D03*
X147320000Y-114300000D03*
D12*
X152400000Y-114300000D03*
%TD*%
D10*
%TO.C,SW13*%
X97790000Y-128270000D03*
X91440000Y-130810000D03*
D11*
X90170000Y-133350000D03*
X100330000Y-133350000D03*
D12*
X95250000Y-133350000D03*
%TD*%
D10*
%TO.C,SW15*%
X135890000Y-128270000D03*
X129540000Y-130810000D03*
D11*
X128270000Y-133350000D03*
X138430000Y-133350000D03*
D12*
X133350000Y-133350000D03*
%TD*%
D10*
%TO.C,SW11*%
X130810000Y-119380000D03*
X137160000Y-116840000D03*
D11*
X138430000Y-114300000D03*
X128270000Y-114300000D03*
D12*
X133350000Y-114300000D03*
%TD*%
D10*
%TO.C,SW5*%
X97790000Y-90170000D03*
X91440000Y-92710000D03*
D11*
X90170000Y-95250000D03*
X100330000Y-95250000D03*
D12*
X95250000Y-95250000D03*
%TD*%
D10*
%TO.C,SW2*%
X111760000Y-81280000D03*
X118110000Y-78740000D03*
D11*
X119380000Y-76200000D03*
X109220000Y-76200000D03*
D12*
X114300000Y-76200000D03*
%TD*%
D10*
%TO.C,SW3*%
X130810000Y-81280000D03*
X137160000Y-78740000D03*
D11*
X138430000Y-76200000D03*
X128270000Y-76200000D03*
D12*
X133350000Y-76200000D03*
%TD*%
D10*
%TO.C,SW9*%
X92710000Y-119380000D03*
X99060000Y-116840000D03*
D11*
X100330000Y-114300000D03*
X90170000Y-114300000D03*
D12*
X95250000Y-114300000D03*
%TD*%
D10*
%TO.C,SW16*%
X154940000Y-128270000D03*
X148590000Y-130810000D03*
D11*
X147320000Y-133350000D03*
X157480000Y-133350000D03*
D12*
X152400000Y-133350000D03*
%TD*%
D10*
%TO.C,SW7*%
X135890000Y-90170000D03*
X129540000Y-92710000D03*
D11*
X128270000Y-95250000D03*
X138430000Y-95250000D03*
D12*
X133350000Y-95250000D03*
%TD*%
D10*
%TO.C,SW14*%
X116840000Y-128270000D03*
X110490000Y-130810000D03*
D11*
X109220000Y-133350000D03*
X119380000Y-133350000D03*
D12*
X114300000Y-133350000D03*
%TD*%
D10*
%TO.C,SW10*%
X111760000Y-119380000D03*
X118110000Y-116840000D03*
D11*
X119380000Y-114300000D03*
X109220000Y-114300000D03*
D12*
X114300000Y-114300000D03*
%TD*%
D10*
%TO.C,SW8*%
X154940000Y-90170000D03*
X148590000Y-92710000D03*
D11*
X147320000Y-95250000D03*
X157480000Y-95250000D03*
D12*
X152400000Y-95250000D03*
%TD*%
D13*
%TO.C,OL1*%
X154525000Y-39145000D03*
X151985000Y-39145000D03*
X146905000Y-39145000D03*
X149445000Y-39145000D03*
%TD*%
D14*
%TO.C,REF\u002A\u002A*%
X163815000Y-144905000D03*
%TD*%
D15*
%TO.C,J3*%
X112365000Y-47745000D03*
X109825000Y-47745000D03*
X107865000Y-47745000D03*
X105365000Y-47745000D03*
D16*
X115435000Y-45035000D03*
X102295000Y-45035000D03*
%TD*%
D14*
%TO.C,REF\u002A\u002A*%
X164105000Y-37505000D03*
%TD*%
D17*
%TO.C,C3*%
X131175000Y-50860000D03*
X131175000Y-52410000D03*
%TD*%
D18*
%TO.C,R3*%
X93645000Y-47640000D03*
X93645000Y-49290000D03*
%TD*%
D14*
%TO.C,REF\u002A\u002A*%
X83435000Y-144805000D03*
%TD*%
D17*
%TO.C,C4*%
X112285000Y-50720000D03*
X112285000Y-52270000D03*
%TD*%
D15*
%TO.C,J2*%
X131125000Y-47745000D03*
X128585000Y-47745000D03*
X126625000Y-47745000D03*
X124125000Y-47745000D03*
D16*
X134195000Y-45035000D03*
X121055000Y-45035000D03*
%TD*%
D18*
%TO.C,R4*%
X90765000Y-47640000D03*
X90765000Y-49290000D03*
%TD*%
D19*
%TO.C,J5*%
X96745032Y-36273872D03*
D20*
X96745002Y-40273915D03*
X88104998Y-40273915D03*
D19*
X88104968Y-36273872D03*
D21*
X95625001Y-40848920D03*
X94825000Y-40848920D03*
D22*
X93675000Y-40848920D03*
X92675000Y-40848920D03*
X92175000Y-40848920D03*
X91175000Y-40848920D03*
D21*
X89224999Y-40848920D03*
X90025000Y-40848920D03*
D22*
X90675001Y-40848920D03*
X91674999Y-40848920D03*
X93175001Y-40848920D03*
X94174999Y-40848920D03*
%TD*%
D23*
%TO.C,R1*%
X91490000Y-53345000D03*
X93140000Y-53345000D03*
%TD*%
D24*
%TO.C,Y1*%
X101865000Y-57505000D03*
X104065000Y-57505000D03*
X104065000Y-55805000D03*
X101865000Y-55805000D03*
%TD*%
D25*
%TO.C,J4*%
X82240955Y-51134968D03*
D26*
X86240998Y-51134998D03*
X86240998Y-59775002D03*
D25*
X82240955Y-59775032D03*
D27*
X86816003Y-52254999D03*
X86816003Y-53055000D03*
D28*
X86816003Y-54205000D03*
X86816003Y-55205000D03*
X86816003Y-55705000D03*
X86816003Y-56705000D03*
D27*
X86816003Y-58655001D03*
X86816003Y-57855000D03*
D28*
X86816003Y-57204999D03*
X86816003Y-56205001D03*
X86816003Y-54704999D03*
X86816003Y-53705001D03*
%TD*%
D29*
%TO.C,J1*%
X160395000Y-49325000D03*
D30*
X160395000Y-51865000D03*
X160395000Y-54405000D03*
X160395000Y-56945000D03*
X160395000Y-59485000D03*
%TD*%
D14*
%TO.C,REF\u002A\u002A*%
X83885000Y-37665000D03*
%TD*%
D23*
%TO.C,R2*%
X91520000Y-57265000D03*
X93170000Y-57265000D03*
%TD*%
M02*
