%TF.GenerationSoftware,KiCad,Pcbnew,10.0.1*%
%TF.CreationDate,2026-07-12T22:50:01+09:00*%
%TF.ProjectId,USBhub-keyboard,55534268-7562-42d6-9b65-79626f617264,rev?*%
%TF.SameCoordinates,Original*%
%TF.FileFunction,Paste,Bot*%
%TF.FilePolarity,Positive*%
%FSLAX46Y46*%
G04 Gerber Fmt 4.6, Leading zero omitted, Abs format (unit mm)*
G04 Created by KiCad (PCBNEW 10.0.1) date 2026-07-12 22:50:01*
%MOMM*%
%LPD*%
G01*
G04 APERTURE LIST*
G04 Aperture macros list*
%AMRoundRect*
0 Rectangle with rounded corners*
0 $1 Rounding radius*
0 $2 $3 $4 $5 $6 $7 $8 $9 X,Y pos of 4 corners*
0 Add a 4 corners polygon primitive as box body*
4,1,4,$2,$3,$4,$5,$6,$7,$8,$9,$2,$3,0*
0 Add four circle primitives for the rounded corners*
1,1,$1+$1,$2,$3*
1,1,$1+$1,$4,$5*
1,1,$1+$1,$6,$7*
1,1,$1+$1,$8,$9*
0 Add four rect primitives between the rounded corners*
20,1,$1+$1,$2,$3,$4,$5,0*
20,1,$1+$1,$4,$5,$6,$7,0*
20,1,$1+$1,$6,$7,$8,$9,0*
20,1,$1+$1,$8,$9,$2,$3,0*%
G04 Aperture macros list end*
%ADD10C,0.100000*%
%ADD11C,0.120000*%
%ADD12RoundRect,0.225000X0.225000X0.250000X-0.225000X0.250000X-0.225000X-0.250000X0.225000X-0.250000X0*%
%ADD13RoundRect,0.225000X0.250000X-0.225000X0.250000X0.225000X-0.250000X0.225000X-0.250000X-0.225000X0*%
%ADD14RoundRect,0.225000X-0.250000X0.225000X-0.250000X-0.225000X0.250000X-0.225000X0.250000X0.225000X0*%
%ADD15RoundRect,0.225000X-0.225000X-0.375000X0.225000X-0.375000X0.225000X0.375000X-0.225000X0.375000X0*%
%ADD16RoundRect,0.250000X0.650000X-0.325000X0.650000X0.325000X-0.650000X0.325000X-0.650000X-0.325000X0*%
%ADD17RoundRect,0.250000X0.450000X0.350000X-0.450000X0.350000X-0.450000X-0.350000X0.450000X-0.350000X0*%
%ADD18RoundRect,0.225000X0.225000X0.375000X-0.225000X0.375000X-0.225000X-0.375000X0.225000X-0.375000X0*%
%ADD19RoundRect,0.200000X0.200000X0.275000X-0.200000X0.275000X-0.200000X-0.275000X0.200000X-0.275000X0*%
%ADD20RoundRect,0.250000X-0.292217X-0.292217X0.292217X-0.292217X0.292217X0.292217X-0.292217X0.292217X0*%
%ADD21RoundRect,0.050000X-0.387500X-0.050000X0.387500X-0.050000X0.387500X0.050000X-0.387500X0.050000X0*%
%ADD22RoundRect,0.050000X-0.050000X-0.387500X0.050000X-0.387500X0.050000X0.387500X-0.050000X0.387500X0*%
%ADD23R,2.100000X1.400000*%
%ADD24RoundRect,0.225000X-0.225000X-0.250000X0.225000X-0.250000X0.225000X0.250000X-0.225000X0.250000X0*%
%ADD25RoundRect,0.250000X-0.475000X0.250000X-0.475000X-0.250000X0.475000X-0.250000X0.475000X0.250000X0*%
%ADD26RoundRect,0.200000X0.275000X-0.200000X0.275000X0.200000X-0.275000X0.200000X-0.275000X-0.200000X0*%
%ADD27RoundRect,0.250000X0.250000X0.475000X-0.250000X0.475000X-0.250000X-0.475000X0.250000X-0.475000X0*%
%ADD28RoundRect,0.250000X-0.650000X0.325000X-0.650000X-0.325000X0.650000X-0.325000X0.650000X0.325000X0*%
%ADD29R,2.032000X0.660400*%
%ADD30RoundRect,0.375000X-0.625000X-0.375000X0.625000X-0.375000X0.625000X0.375000X-0.625000X0.375000X0*%
%ADD31RoundRect,0.500000X-0.500000X-1.400000X0.500000X-1.400000X0.500000X1.400000X-0.500000X1.400000X0*%
%ADD32RoundRect,0.162500X-0.162500X0.650000X-0.162500X-0.650000X0.162500X-0.650000X0.162500X0.650000X0*%
%ADD33RoundRect,0.200000X-0.200000X-0.275000X0.200000X-0.275000X0.200000X0.275000X-0.200000X0.275000X0*%
G04 APERTURE END LIST*
D10*
%TO.C,SW1*%
X90410000Y-80400000D02*
X90410000Y-82000000D01*
X90210000Y-82200000D01*
X88610000Y-82200000D01*
X88410000Y-82000000D01*
X88410000Y-80400000D01*
X88610000Y-80200000D01*
X90210000Y-80200000D01*
X90410000Y-80400000D01*
G36*
X90410000Y-80400000D02*
G01*
X90410000Y-82000000D01*
X90210000Y-82200000D01*
X88610000Y-82200000D01*
X88410000Y-82000000D01*
X88410000Y-80400000D01*
X88610000Y-80200000D01*
X90210000Y-80200000D01*
X90410000Y-80400000D01*
G37*
D11*
X90210000Y-82200000D02*
X88610000Y-82200000D01*
X88410000Y-80400000D02*
X88410000Y-82000000D01*
X90210000Y-80200000D02*
X88610000Y-80200000D01*
X90410000Y-82000000D02*
X90410000Y-80400000D01*
D10*
X103360000Y-77860000D02*
X103360000Y-79460000D01*
X103160000Y-79660000D01*
X101560000Y-79660000D01*
X101360000Y-79460000D01*
X101360000Y-77860000D01*
X101560000Y-77660000D01*
X103160000Y-77660000D01*
X103360000Y-77860000D01*
G36*
X103360000Y-77860000D02*
G01*
X103360000Y-79460000D01*
X103160000Y-79660000D01*
X101560000Y-79660000D01*
X101360000Y-79460000D01*
X101360000Y-77860000D01*
X101560000Y-77660000D01*
X103160000Y-77660000D01*
X103360000Y-77860000D01*
G37*
D11*
X103360000Y-77860000D02*
X103360000Y-79460000D01*
X101560000Y-77660000D02*
X103160000Y-77660000D01*
X101360000Y-79460000D02*
X101360000Y-77860000D01*
X103160000Y-79660000D02*
X101560000Y-79660000D01*
X88410000Y-80400000D02*
G75*
G02*
X88610000Y-80200000I200000J0D01*
G01*
X90210000Y-80200000D02*
G75*
G02*
X90410000Y-80400000I0J-200000D01*
G01*
X88610000Y-82200000D02*
G75*
G02*
X88410000Y-82000000I0J200000D01*
G01*
X90410000Y-82000000D02*
G75*
G02*
X90210000Y-82200000I-200000J0D01*
G01*
X103160000Y-77660000D02*
G75*
G02*
X103360000Y-77860000I0J-200000D01*
G01*
X101360000Y-77860000D02*
G75*
G02*
X101560000Y-77660000I200000J0D01*
G01*
X101560000Y-79660000D02*
G75*
G02*
X101360000Y-79460000I0J200000D01*
G01*
X103360000Y-79460000D02*
G75*
G02*
X103160000Y-79660000I-200000J0D01*
G01*
D10*
%TO.C,SW4*%
X147560000Y-80480000D02*
X147560000Y-82080000D01*
X147360000Y-82280000D01*
X145760000Y-82280000D01*
X145560000Y-82080000D01*
X145560000Y-80480000D01*
X145760000Y-80280000D01*
X147360000Y-80280000D01*
X147560000Y-80480000D01*
G36*
X147560000Y-80480000D02*
G01*
X147560000Y-82080000D01*
X147360000Y-82280000D01*
X145760000Y-82280000D01*
X145560000Y-82080000D01*
X145560000Y-80480000D01*
X145760000Y-80280000D01*
X147360000Y-80280000D01*
X147560000Y-80480000D01*
G37*
D11*
X147360000Y-82280000D02*
X145760000Y-82280000D01*
X145560000Y-80480000D02*
X145560000Y-82080000D01*
X147360000Y-80280000D02*
X145760000Y-80280000D01*
X147560000Y-82080000D02*
X147560000Y-80480000D01*
D10*
X160510000Y-77940000D02*
X160510000Y-79540000D01*
X160310000Y-79740000D01*
X158710000Y-79740000D01*
X158510000Y-79540000D01*
X158510000Y-77940000D01*
X158710000Y-77740000D01*
X160310000Y-77740000D01*
X160510000Y-77940000D01*
G36*
X160510000Y-77940000D02*
G01*
X160510000Y-79540000D01*
X160310000Y-79740000D01*
X158710000Y-79740000D01*
X158510000Y-79540000D01*
X158510000Y-77940000D01*
X158710000Y-77740000D01*
X160310000Y-77740000D01*
X160510000Y-77940000D01*
G37*
D11*
X160510000Y-77940000D02*
X160510000Y-79540000D01*
X158710000Y-77740000D02*
X160310000Y-77740000D01*
X158510000Y-79540000D02*
X158510000Y-77940000D01*
X160310000Y-79740000D02*
X158710000Y-79740000D01*
X145560000Y-80480000D02*
G75*
G02*
X145760000Y-80280000I200000J0D01*
G01*
X147360000Y-80280000D02*
G75*
G02*
X147560000Y-80480000I0J-200000D01*
G01*
X145760000Y-82280000D02*
G75*
G02*
X145560000Y-82080000I0J200000D01*
G01*
X147560000Y-82080000D02*
G75*
G02*
X147360000Y-82280000I-200000J0D01*
G01*
X160310000Y-77740000D02*
G75*
G02*
X160510000Y-77940000I0J-200000D01*
G01*
X158510000Y-77940000D02*
G75*
G02*
X158710000Y-77740000I200000J0D01*
G01*
X158710000Y-79740000D02*
G75*
G02*
X158510000Y-79540000I0J200000D01*
G01*
X160510000Y-79540000D02*
G75*
G02*
X160310000Y-79740000I-200000J0D01*
G01*
D10*
%TO.C,SW6*%
X121140000Y-89370000D02*
X121140000Y-90970000D01*
X120940000Y-91170000D01*
X119340000Y-91170000D01*
X119140000Y-90970000D01*
X119140000Y-89370000D01*
X119340000Y-89170000D01*
X120940000Y-89170000D01*
X121140000Y-89370000D01*
G36*
X121140000Y-89370000D02*
G01*
X121140000Y-90970000D01*
X120940000Y-91170000D01*
X119340000Y-91170000D01*
X119140000Y-90970000D01*
X119140000Y-89370000D01*
X119340000Y-89170000D01*
X120940000Y-89170000D01*
X121140000Y-89370000D01*
G37*
D11*
X119340000Y-89170000D02*
X120940000Y-89170000D01*
X121140000Y-90970000D02*
X121140000Y-89370000D01*
X119340000Y-91170000D02*
X120940000Y-91170000D01*
X119140000Y-89370000D02*
X119140000Y-90970000D01*
D10*
X108190000Y-91910000D02*
X108190000Y-93510000D01*
X107990000Y-93710000D01*
X106390000Y-93710000D01*
X106190000Y-93510000D01*
X106190000Y-91910000D01*
X106390000Y-91710000D01*
X107990000Y-91710000D01*
X108190000Y-91910000D01*
G36*
X108190000Y-91910000D02*
G01*
X108190000Y-93510000D01*
X107990000Y-93710000D01*
X106390000Y-93710000D01*
X106190000Y-93510000D01*
X106190000Y-91910000D01*
X106390000Y-91710000D01*
X107990000Y-91710000D01*
X108190000Y-91910000D01*
G37*
D11*
X106190000Y-93510000D02*
X106190000Y-91910000D01*
X107990000Y-93710000D02*
X106390000Y-93710000D01*
X108190000Y-91910000D02*
X108190000Y-93510000D01*
X106390000Y-91710000D02*
X107990000Y-91710000D01*
X121140000Y-90970000D02*
G75*
G02*
X120940000Y-91170000I-200000J0D01*
G01*
X119340000Y-91170000D02*
G75*
G02*
X119140000Y-90970000I0J200000D01*
G01*
X120940000Y-89170000D02*
G75*
G02*
X121140000Y-89370000I0J-200000D01*
G01*
X119140000Y-89370000D02*
G75*
G02*
X119340000Y-89170000I200000J0D01*
G01*
X106390000Y-93710000D02*
G75*
G02*
X106190000Y-93510000I0J200000D01*
G01*
X108190000Y-93510000D02*
G75*
G02*
X107990000Y-93710000I-200000J0D01*
G01*
X107990000Y-91710000D02*
G75*
G02*
X108190000Y-91910000I0J-200000D01*
G01*
X106190000Y-91910000D02*
G75*
G02*
X106390000Y-91710000I200000J0D01*
G01*
D10*
%TO.C,SW12*%
X147560000Y-118580000D02*
X147560000Y-120180000D01*
X147360000Y-120380000D01*
X145760000Y-120380000D01*
X145560000Y-120180000D01*
X145560000Y-118580000D01*
X145760000Y-118380000D01*
X147360000Y-118380000D01*
X147560000Y-118580000D01*
G36*
X147560000Y-118580000D02*
G01*
X147560000Y-120180000D01*
X147360000Y-120380000D01*
X145760000Y-120380000D01*
X145560000Y-120180000D01*
X145560000Y-118580000D01*
X145760000Y-118380000D01*
X147360000Y-118380000D01*
X147560000Y-118580000D01*
G37*
D11*
X147360000Y-120380000D02*
X145760000Y-120380000D01*
X145560000Y-118580000D02*
X145560000Y-120180000D01*
X147360000Y-118380000D02*
X145760000Y-118380000D01*
X147560000Y-120180000D02*
X147560000Y-118580000D01*
D10*
X160510000Y-116040000D02*
X160510000Y-117640000D01*
X160310000Y-117840000D01*
X158710000Y-117840000D01*
X158510000Y-117640000D01*
X158510000Y-116040000D01*
X158710000Y-115840000D01*
X160310000Y-115840000D01*
X160510000Y-116040000D01*
G36*
X160510000Y-116040000D02*
G01*
X160510000Y-117640000D01*
X160310000Y-117840000D01*
X158710000Y-117840000D01*
X158510000Y-117640000D01*
X158510000Y-116040000D01*
X158710000Y-115840000D01*
X160310000Y-115840000D01*
X160510000Y-116040000D01*
G37*
D11*
X160510000Y-116040000D02*
X160510000Y-117640000D01*
X158710000Y-115840000D02*
X160310000Y-115840000D01*
X158510000Y-117640000D02*
X158510000Y-116040000D01*
X160310000Y-117840000D02*
X158710000Y-117840000D01*
X145560000Y-118580000D02*
G75*
G02*
X145760000Y-118380000I200000J0D01*
G01*
X147360000Y-118380000D02*
G75*
G02*
X147560000Y-118580000I0J-200000D01*
G01*
X145760000Y-120380000D02*
G75*
G02*
X145560000Y-120180000I0J200000D01*
G01*
X147560000Y-120180000D02*
G75*
G02*
X147360000Y-120380000I-200000J0D01*
G01*
X160310000Y-115840000D02*
G75*
G02*
X160510000Y-116040000I0J-200000D01*
G01*
X158510000Y-116040000D02*
G75*
G02*
X158710000Y-115840000I200000J0D01*
G01*
X158710000Y-117840000D02*
G75*
G02*
X158510000Y-117640000I0J200000D01*
G01*
X160510000Y-117640000D02*
G75*
G02*
X160310000Y-117840000I-200000J0D01*
G01*
D10*
%TO.C,SW13*%
X102090000Y-127470000D02*
X102090000Y-129070000D01*
X101890000Y-129270000D01*
X100290000Y-129270000D01*
X100090000Y-129070000D01*
X100090000Y-127470000D01*
X100290000Y-127270000D01*
X101890000Y-127270000D01*
X102090000Y-127470000D01*
G36*
X102090000Y-127470000D02*
G01*
X102090000Y-129070000D01*
X101890000Y-129270000D01*
X100290000Y-129270000D01*
X100090000Y-129070000D01*
X100090000Y-127470000D01*
X100290000Y-127270000D01*
X101890000Y-127270000D01*
X102090000Y-127470000D01*
G37*
D11*
X100290000Y-127270000D02*
X101890000Y-127270000D01*
X102090000Y-129070000D02*
X102090000Y-127470000D01*
X100290000Y-129270000D02*
X101890000Y-129270000D01*
X100090000Y-127470000D02*
X100090000Y-129070000D01*
D10*
X89140000Y-130010000D02*
X89140000Y-131610000D01*
X88940000Y-131810000D01*
X87340000Y-131810000D01*
X87140000Y-131610000D01*
X87140000Y-130010000D01*
X87340000Y-129810000D01*
X88940000Y-129810000D01*
X89140000Y-130010000D01*
G36*
X89140000Y-130010000D02*
G01*
X89140000Y-131610000D01*
X88940000Y-131810000D01*
X87340000Y-131810000D01*
X87140000Y-131610000D01*
X87140000Y-130010000D01*
X87340000Y-129810000D01*
X88940000Y-129810000D01*
X89140000Y-130010000D01*
G37*
D11*
X87140000Y-131610000D02*
X87140000Y-130010000D01*
X88940000Y-131810000D02*
X87340000Y-131810000D01*
X89140000Y-130010000D02*
X89140000Y-131610000D01*
X87340000Y-129810000D02*
X88940000Y-129810000D01*
X102090000Y-129070000D02*
G75*
G02*
X101890000Y-129270000I-200000J0D01*
G01*
X100290000Y-129270000D02*
G75*
G02*
X100090000Y-129070000I0J200000D01*
G01*
X101890000Y-127270000D02*
G75*
G02*
X102090000Y-127470000I0J-200000D01*
G01*
X100090000Y-127470000D02*
G75*
G02*
X100290000Y-127270000I200000J0D01*
G01*
X87340000Y-131810000D02*
G75*
G02*
X87140000Y-131610000I0J200000D01*
G01*
X89140000Y-131610000D02*
G75*
G02*
X88940000Y-131810000I-200000J0D01*
G01*
X88940000Y-129810000D02*
G75*
G02*
X89140000Y-130010000I0J-200000D01*
G01*
X87140000Y-130010000D02*
G75*
G02*
X87340000Y-129810000I200000J0D01*
G01*
D10*
%TO.C,SW15*%
X140190000Y-127470000D02*
X140190000Y-129070000D01*
X139990000Y-129270000D01*
X138390000Y-129270000D01*
X138190000Y-129070000D01*
X138190000Y-127470000D01*
X138390000Y-127270000D01*
X139990000Y-127270000D01*
X140190000Y-127470000D01*
G36*
X140190000Y-127470000D02*
G01*
X140190000Y-129070000D01*
X139990000Y-129270000D01*
X138390000Y-129270000D01*
X138190000Y-129070000D01*
X138190000Y-127470000D01*
X138390000Y-127270000D01*
X139990000Y-127270000D01*
X140190000Y-127470000D01*
G37*
D11*
X138390000Y-127270000D02*
X139990000Y-127270000D01*
X140190000Y-129070000D02*
X140190000Y-127470000D01*
X138390000Y-129270000D02*
X139990000Y-129270000D01*
X138190000Y-127470000D02*
X138190000Y-129070000D01*
D10*
X127240000Y-130010000D02*
X127240000Y-131610000D01*
X127040000Y-131810000D01*
X125440000Y-131810000D01*
X125240000Y-131610000D01*
X125240000Y-130010000D01*
X125440000Y-129810000D01*
X127040000Y-129810000D01*
X127240000Y-130010000D01*
G36*
X127240000Y-130010000D02*
G01*
X127240000Y-131610000D01*
X127040000Y-131810000D01*
X125440000Y-131810000D01*
X125240000Y-131610000D01*
X125240000Y-130010000D01*
X125440000Y-129810000D01*
X127040000Y-129810000D01*
X127240000Y-130010000D01*
G37*
D11*
X125240000Y-131610000D02*
X125240000Y-130010000D01*
X127040000Y-131810000D02*
X125440000Y-131810000D01*
X127240000Y-130010000D02*
X127240000Y-131610000D01*
X125440000Y-129810000D02*
X127040000Y-129810000D01*
X140190000Y-129070000D02*
G75*
G02*
X139990000Y-129270000I-200000J0D01*
G01*
X138390000Y-129270000D02*
G75*
G02*
X138190000Y-129070000I0J200000D01*
G01*
X139990000Y-127270000D02*
G75*
G02*
X140190000Y-127470000I0J-200000D01*
G01*
X138190000Y-127470000D02*
G75*
G02*
X138390000Y-127270000I200000J0D01*
G01*
X125440000Y-131810000D02*
G75*
G02*
X125240000Y-131610000I0J200000D01*
G01*
X127240000Y-131610000D02*
G75*
G02*
X127040000Y-131810000I-200000J0D01*
G01*
X127040000Y-129810000D02*
G75*
G02*
X127240000Y-130010000I0J-200000D01*
G01*
X125240000Y-130010000D02*
G75*
G02*
X125440000Y-129810000I200000J0D01*
G01*
D10*
%TO.C,SW11*%
X128510000Y-118580000D02*
X128510000Y-120180000D01*
X128310000Y-120380000D01*
X126710000Y-120380000D01*
X126510000Y-120180000D01*
X126510000Y-118580000D01*
X126710000Y-118380000D01*
X128310000Y-118380000D01*
X128510000Y-118580000D01*
G36*
X128510000Y-118580000D02*
G01*
X128510000Y-120180000D01*
X128310000Y-120380000D01*
X126710000Y-120380000D01*
X126510000Y-120180000D01*
X126510000Y-118580000D01*
X126710000Y-118380000D01*
X128310000Y-118380000D01*
X128510000Y-118580000D01*
G37*
D11*
X128310000Y-120380000D02*
X126710000Y-120380000D01*
X126510000Y-118580000D02*
X126510000Y-120180000D01*
X128310000Y-118380000D02*
X126710000Y-118380000D01*
X128510000Y-120180000D02*
X128510000Y-118580000D01*
D10*
X141460000Y-116040000D02*
X141460000Y-117640000D01*
X141260000Y-117840000D01*
X139660000Y-117840000D01*
X139460000Y-117640000D01*
X139460000Y-116040000D01*
X139660000Y-115840000D01*
X141260000Y-115840000D01*
X141460000Y-116040000D01*
G36*
X141460000Y-116040000D02*
G01*
X141460000Y-117640000D01*
X141260000Y-117840000D01*
X139660000Y-117840000D01*
X139460000Y-117640000D01*
X139460000Y-116040000D01*
X139660000Y-115840000D01*
X141260000Y-115840000D01*
X141460000Y-116040000D01*
G37*
D11*
X141460000Y-116040000D02*
X141460000Y-117640000D01*
X139660000Y-115840000D02*
X141260000Y-115840000D01*
X139460000Y-117640000D02*
X139460000Y-116040000D01*
X141260000Y-117840000D02*
X139660000Y-117840000D01*
X126510000Y-118580000D02*
G75*
G02*
X126710000Y-118380000I200000J0D01*
G01*
X128310000Y-118380000D02*
G75*
G02*
X128510000Y-118580000I0J-200000D01*
G01*
X126710000Y-120380000D02*
G75*
G02*
X126510000Y-120180000I0J200000D01*
G01*
X128510000Y-120180000D02*
G75*
G02*
X128310000Y-120380000I-200000J0D01*
G01*
X141260000Y-115840000D02*
G75*
G02*
X141460000Y-116040000I0J-200000D01*
G01*
X139460000Y-116040000D02*
G75*
G02*
X139660000Y-115840000I200000J0D01*
G01*
X139660000Y-117840000D02*
G75*
G02*
X139460000Y-117640000I0J200000D01*
G01*
X141460000Y-117640000D02*
G75*
G02*
X141260000Y-117840000I-200000J0D01*
G01*
D10*
%TO.C,SW5*%
X102090000Y-89370000D02*
X102090000Y-90970000D01*
X101890000Y-91170000D01*
X100290000Y-91170000D01*
X100090000Y-90970000D01*
X100090000Y-89370000D01*
X100290000Y-89170000D01*
X101890000Y-89170000D01*
X102090000Y-89370000D01*
G36*
X102090000Y-89370000D02*
G01*
X102090000Y-90970000D01*
X101890000Y-91170000D01*
X100290000Y-91170000D01*
X100090000Y-90970000D01*
X100090000Y-89370000D01*
X100290000Y-89170000D01*
X101890000Y-89170000D01*
X102090000Y-89370000D01*
G37*
D11*
X100290000Y-89170000D02*
X101890000Y-89170000D01*
X102090000Y-90970000D02*
X102090000Y-89370000D01*
X100290000Y-91170000D02*
X101890000Y-91170000D01*
X100090000Y-89370000D02*
X100090000Y-90970000D01*
D10*
X89140000Y-91910000D02*
X89140000Y-93510000D01*
X88940000Y-93710000D01*
X87340000Y-93710000D01*
X87140000Y-93510000D01*
X87140000Y-91910000D01*
X87340000Y-91710000D01*
X88940000Y-91710000D01*
X89140000Y-91910000D01*
G36*
X89140000Y-91910000D02*
G01*
X89140000Y-93510000D01*
X88940000Y-93710000D01*
X87340000Y-93710000D01*
X87140000Y-93510000D01*
X87140000Y-91910000D01*
X87340000Y-91710000D01*
X88940000Y-91710000D01*
X89140000Y-91910000D01*
G37*
D11*
X87140000Y-93510000D02*
X87140000Y-91910000D01*
X88940000Y-93710000D02*
X87340000Y-93710000D01*
X89140000Y-91910000D02*
X89140000Y-93510000D01*
X87340000Y-91710000D02*
X88940000Y-91710000D01*
X102090000Y-90970000D02*
G75*
G02*
X101890000Y-91170000I-200000J0D01*
G01*
X100290000Y-91170000D02*
G75*
G02*
X100090000Y-90970000I0J200000D01*
G01*
X101890000Y-89170000D02*
G75*
G02*
X102090000Y-89370000I0J-200000D01*
G01*
X100090000Y-89370000D02*
G75*
G02*
X100290000Y-89170000I200000J0D01*
G01*
X87340000Y-93710000D02*
G75*
G02*
X87140000Y-93510000I0J200000D01*
G01*
X89140000Y-93510000D02*
G75*
G02*
X88940000Y-93710000I-200000J0D01*
G01*
X88940000Y-91710000D02*
G75*
G02*
X89140000Y-91910000I0J-200000D01*
G01*
X87140000Y-91910000D02*
G75*
G02*
X87340000Y-91710000I200000J0D01*
G01*
D10*
%TO.C,SW2*%
X109460000Y-80480000D02*
X109460000Y-82080000D01*
X109260000Y-82280000D01*
X107660000Y-82280000D01*
X107460000Y-82080000D01*
X107460000Y-80480000D01*
X107660000Y-80280000D01*
X109260000Y-80280000D01*
X109460000Y-80480000D01*
G36*
X109460000Y-80480000D02*
G01*
X109460000Y-82080000D01*
X109260000Y-82280000D01*
X107660000Y-82280000D01*
X107460000Y-82080000D01*
X107460000Y-80480000D01*
X107660000Y-80280000D01*
X109260000Y-80280000D01*
X109460000Y-80480000D01*
G37*
D11*
X109260000Y-82280000D02*
X107660000Y-82280000D01*
X107460000Y-80480000D02*
X107460000Y-82080000D01*
X109260000Y-80280000D02*
X107660000Y-80280000D01*
X109460000Y-82080000D02*
X109460000Y-80480000D01*
D10*
X122410000Y-77940000D02*
X122410000Y-79540000D01*
X122210000Y-79740000D01*
X120610000Y-79740000D01*
X120410000Y-79540000D01*
X120410000Y-77940000D01*
X120610000Y-77740000D01*
X122210000Y-77740000D01*
X122410000Y-77940000D01*
G36*
X122410000Y-77940000D02*
G01*
X122410000Y-79540000D01*
X122210000Y-79740000D01*
X120610000Y-79740000D01*
X120410000Y-79540000D01*
X120410000Y-77940000D01*
X120610000Y-77740000D01*
X122210000Y-77740000D01*
X122410000Y-77940000D01*
G37*
D11*
X122410000Y-77940000D02*
X122410000Y-79540000D01*
X120610000Y-77740000D02*
X122210000Y-77740000D01*
X120410000Y-79540000D02*
X120410000Y-77940000D01*
X122210000Y-79740000D02*
X120610000Y-79740000D01*
X107460000Y-80480000D02*
G75*
G02*
X107660000Y-80280000I200000J0D01*
G01*
X109260000Y-80280000D02*
G75*
G02*
X109460000Y-80480000I0J-200000D01*
G01*
X107660000Y-82280000D02*
G75*
G02*
X107460000Y-82080000I0J200000D01*
G01*
X109460000Y-82080000D02*
G75*
G02*
X109260000Y-82280000I-200000J0D01*
G01*
X122210000Y-77740000D02*
G75*
G02*
X122410000Y-77940000I0J-200000D01*
G01*
X120410000Y-77940000D02*
G75*
G02*
X120610000Y-77740000I200000J0D01*
G01*
X120610000Y-79740000D02*
G75*
G02*
X120410000Y-79540000I0J200000D01*
G01*
X122410000Y-79540000D02*
G75*
G02*
X122210000Y-79740000I-200000J0D01*
G01*
D10*
%TO.C,SW3*%
X128510000Y-80480000D02*
X128510000Y-82080000D01*
X128310000Y-82280000D01*
X126710000Y-82280000D01*
X126510000Y-82080000D01*
X126510000Y-80480000D01*
X126710000Y-80280000D01*
X128310000Y-80280000D01*
X128510000Y-80480000D01*
G36*
X128510000Y-80480000D02*
G01*
X128510000Y-82080000D01*
X128310000Y-82280000D01*
X126710000Y-82280000D01*
X126510000Y-82080000D01*
X126510000Y-80480000D01*
X126710000Y-80280000D01*
X128310000Y-80280000D01*
X128510000Y-80480000D01*
G37*
D11*
X128310000Y-82280000D02*
X126710000Y-82280000D01*
X126510000Y-80480000D02*
X126510000Y-82080000D01*
X128310000Y-80280000D02*
X126710000Y-80280000D01*
X128510000Y-82080000D02*
X128510000Y-80480000D01*
D10*
X141460000Y-77940000D02*
X141460000Y-79540000D01*
X141260000Y-79740000D01*
X139660000Y-79740000D01*
X139460000Y-79540000D01*
X139460000Y-77940000D01*
X139660000Y-77740000D01*
X141260000Y-77740000D01*
X141460000Y-77940000D01*
G36*
X141460000Y-77940000D02*
G01*
X141460000Y-79540000D01*
X141260000Y-79740000D01*
X139660000Y-79740000D01*
X139460000Y-79540000D01*
X139460000Y-77940000D01*
X139660000Y-77740000D01*
X141260000Y-77740000D01*
X141460000Y-77940000D01*
G37*
D11*
X141460000Y-77940000D02*
X141460000Y-79540000D01*
X139660000Y-77740000D02*
X141260000Y-77740000D01*
X139460000Y-79540000D02*
X139460000Y-77940000D01*
X141260000Y-79740000D02*
X139660000Y-79740000D01*
X126510000Y-80480000D02*
G75*
G02*
X126710000Y-80280000I200000J0D01*
G01*
X128310000Y-80280000D02*
G75*
G02*
X128510000Y-80480000I0J-200000D01*
G01*
X126710000Y-82280000D02*
G75*
G02*
X126510000Y-82080000I0J200000D01*
G01*
X128510000Y-82080000D02*
G75*
G02*
X128310000Y-82280000I-200000J0D01*
G01*
X141260000Y-77740000D02*
G75*
G02*
X141460000Y-77940000I0J-200000D01*
G01*
X139460000Y-77940000D02*
G75*
G02*
X139660000Y-77740000I200000J0D01*
G01*
X139660000Y-79740000D02*
G75*
G02*
X139460000Y-79540000I0J200000D01*
G01*
X141460000Y-79540000D02*
G75*
G02*
X141260000Y-79740000I-200000J0D01*
G01*
D10*
%TO.C,SW9*%
X90410000Y-118580000D02*
X90410000Y-120180000D01*
X90210000Y-120380000D01*
X88610000Y-120380000D01*
X88410000Y-120180000D01*
X88410000Y-118580000D01*
X88610000Y-118380000D01*
X90210000Y-118380000D01*
X90410000Y-118580000D01*
G36*
X90410000Y-118580000D02*
G01*
X90410000Y-120180000D01*
X90210000Y-120380000D01*
X88610000Y-120380000D01*
X88410000Y-120180000D01*
X88410000Y-118580000D01*
X88610000Y-118380000D01*
X90210000Y-118380000D01*
X90410000Y-118580000D01*
G37*
D11*
X90210000Y-120380000D02*
X88610000Y-120380000D01*
X88410000Y-118580000D02*
X88410000Y-120180000D01*
X90210000Y-118380000D02*
X88610000Y-118380000D01*
X90410000Y-120180000D02*
X90410000Y-118580000D01*
D10*
X103360000Y-116040000D02*
X103360000Y-117640000D01*
X103160000Y-117840000D01*
X101560000Y-117840000D01*
X101360000Y-117640000D01*
X101360000Y-116040000D01*
X101560000Y-115840000D01*
X103160000Y-115840000D01*
X103360000Y-116040000D01*
G36*
X103360000Y-116040000D02*
G01*
X103360000Y-117640000D01*
X103160000Y-117840000D01*
X101560000Y-117840000D01*
X101360000Y-117640000D01*
X101360000Y-116040000D01*
X101560000Y-115840000D01*
X103160000Y-115840000D01*
X103360000Y-116040000D01*
G37*
D11*
X103360000Y-116040000D02*
X103360000Y-117640000D01*
X101560000Y-115840000D02*
X103160000Y-115840000D01*
X101360000Y-117640000D02*
X101360000Y-116040000D01*
X103160000Y-117840000D02*
X101560000Y-117840000D01*
X88410000Y-118580000D02*
G75*
G02*
X88610000Y-118380000I200000J0D01*
G01*
X90210000Y-118380000D02*
G75*
G02*
X90410000Y-118580000I0J-200000D01*
G01*
X88610000Y-120380000D02*
G75*
G02*
X88410000Y-120180000I0J200000D01*
G01*
X90410000Y-120180000D02*
G75*
G02*
X90210000Y-120380000I-200000J0D01*
G01*
X103160000Y-115840000D02*
G75*
G02*
X103360000Y-116040000I0J-200000D01*
G01*
X101360000Y-116040000D02*
G75*
G02*
X101560000Y-115840000I200000J0D01*
G01*
X101560000Y-117840000D02*
G75*
G02*
X101360000Y-117640000I0J200000D01*
G01*
X103360000Y-117640000D02*
G75*
G02*
X103160000Y-117840000I-200000J0D01*
G01*
D10*
%TO.C,SW16*%
X159240000Y-127470000D02*
X159240000Y-129070000D01*
X159040000Y-129270000D01*
X157440000Y-129270000D01*
X157240000Y-129070000D01*
X157240000Y-127470000D01*
X157440000Y-127270000D01*
X159040000Y-127270000D01*
X159240000Y-127470000D01*
G36*
X159240000Y-127470000D02*
G01*
X159240000Y-129070000D01*
X159040000Y-129270000D01*
X157440000Y-129270000D01*
X157240000Y-129070000D01*
X157240000Y-127470000D01*
X157440000Y-127270000D01*
X159040000Y-127270000D01*
X159240000Y-127470000D01*
G37*
D11*
X157440000Y-127270000D02*
X159040000Y-127270000D01*
X159240000Y-129070000D02*
X159240000Y-127470000D01*
X157440000Y-129270000D02*
X159040000Y-129270000D01*
X157240000Y-127470000D02*
X157240000Y-129070000D01*
D10*
X146290000Y-130010000D02*
X146290000Y-131610000D01*
X146090000Y-131810000D01*
X144490000Y-131810000D01*
X144290000Y-131610000D01*
X144290000Y-130010000D01*
X144490000Y-129810000D01*
X146090000Y-129810000D01*
X146290000Y-130010000D01*
G36*
X146290000Y-130010000D02*
G01*
X146290000Y-131610000D01*
X146090000Y-131810000D01*
X144490000Y-131810000D01*
X144290000Y-131610000D01*
X144290000Y-130010000D01*
X144490000Y-129810000D01*
X146090000Y-129810000D01*
X146290000Y-130010000D01*
G37*
D11*
X144290000Y-131610000D02*
X144290000Y-130010000D01*
X146090000Y-131810000D02*
X144490000Y-131810000D01*
X146290000Y-130010000D02*
X146290000Y-131610000D01*
X144490000Y-129810000D02*
X146090000Y-129810000D01*
X159240000Y-129070000D02*
G75*
G02*
X159040000Y-129270000I-200000J0D01*
G01*
X157440000Y-129270000D02*
G75*
G02*
X157240000Y-129070000I0J200000D01*
G01*
X159040000Y-127270000D02*
G75*
G02*
X159240000Y-127470000I0J-200000D01*
G01*
X157240000Y-127470000D02*
G75*
G02*
X157440000Y-127270000I200000J0D01*
G01*
X144490000Y-131810000D02*
G75*
G02*
X144290000Y-131610000I0J200000D01*
G01*
X146290000Y-131610000D02*
G75*
G02*
X146090000Y-131810000I-200000J0D01*
G01*
X146090000Y-129810000D02*
G75*
G02*
X146290000Y-130010000I0J-200000D01*
G01*
X144290000Y-130010000D02*
G75*
G02*
X144490000Y-129810000I200000J0D01*
G01*
D10*
%TO.C,SW7*%
X140190000Y-89370000D02*
X140190000Y-90970000D01*
X139990000Y-91170000D01*
X138390000Y-91170000D01*
X138190000Y-90970000D01*
X138190000Y-89370000D01*
X138390000Y-89170000D01*
X139990000Y-89170000D01*
X140190000Y-89370000D01*
G36*
X140190000Y-89370000D02*
G01*
X140190000Y-90970000D01*
X139990000Y-91170000D01*
X138390000Y-91170000D01*
X138190000Y-90970000D01*
X138190000Y-89370000D01*
X138390000Y-89170000D01*
X139990000Y-89170000D01*
X140190000Y-89370000D01*
G37*
D11*
X138390000Y-89170000D02*
X139990000Y-89170000D01*
X140190000Y-90970000D02*
X140190000Y-89370000D01*
X138390000Y-91170000D02*
X139990000Y-91170000D01*
X138190000Y-89370000D02*
X138190000Y-90970000D01*
D10*
X127240000Y-91910000D02*
X127240000Y-93510000D01*
X127040000Y-93710000D01*
X125440000Y-93710000D01*
X125240000Y-93510000D01*
X125240000Y-91910000D01*
X125440000Y-91710000D01*
X127040000Y-91710000D01*
X127240000Y-91910000D01*
G36*
X127240000Y-91910000D02*
G01*
X127240000Y-93510000D01*
X127040000Y-93710000D01*
X125440000Y-93710000D01*
X125240000Y-93510000D01*
X125240000Y-91910000D01*
X125440000Y-91710000D01*
X127040000Y-91710000D01*
X127240000Y-91910000D01*
G37*
D11*
X125240000Y-93510000D02*
X125240000Y-91910000D01*
X127040000Y-93710000D02*
X125440000Y-93710000D01*
X127240000Y-91910000D02*
X127240000Y-93510000D01*
X125440000Y-91710000D02*
X127040000Y-91710000D01*
X140190000Y-90970000D02*
G75*
G02*
X139990000Y-91170000I-200000J0D01*
G01*
X138390000Y-91170000D02*
G75*
G02*
X138190000Y-90970000I0J200000D01*
G01*
X139990000Y-89170000D02*
G75*
G02*
X140190000Y-89370000I0J-200000D01*
G01*
X138190000Y-89370000D02*
G75*
G02*
X138390000Y-89170000I200000J0D01*
G01*
X125440000Y-93710000D02*
G75*
G02*
X125240000Y-93510000I0J200000D01*
G01*
X127240000Y-93510000D02*
G75*
G02*
X127040000Y-93710000I-200000J0D01*
G01*
X127040000Y-91710000D02*
G75*
G02*
X127240000Y-91910000I0J-200000D01*
G01*
X125240000Y-91910000D02*
G75*
G02*
X125440000Y-91710000I200000J0D01*
G01*
D10*
%TO.C,SW14*%
X121140000Y-127470000D02*
X121140000Y-129070000D01*
X120940000Y-129270000D01*
X119340000Y-129270000D01*
X119140000Y-129070000D01*
X119140000Y-127470000D01*
X119340000Y-127270000D01*
X120940000Y-127270000D01*
X121140000Y-127470000D01*
G36*
X121140000Y-127470000D02*
G01*
X121140000Y-129070000D01*
X120940000Y-129270000D01*
X119340000Y-129270000D01*
X119140000Y-129070000D01*
X119140000Y-127470000D01*
X119340000Y-127270000D01*
X120940000Y-127270000D01*
X121140000Y-127470000D01*
G37*
D11*
X119340000Y-127270000D02*
X120940000Y-127270000D01*
X121140000Y-129070000D02*
X121140000Y-127470000D01*
X119340000Y-129270000D02*
X120940000Y-129270000D01*
X119140000Y-127470000D02*
X119140000Y-129070000D01*
D10*
X108190000Y-130010000D02*
X108190000Y-131610000D01*
X107990000Y-131810000D01*
X106390000Y-131810000D01*
X106190000Y-131610000D01*
X106190000Y-130010000D01*
X106390000Y-129810000D01*
X107990000Y-129810000D01*
X108190000Y-130010000D01*
G36*
X108190000Y-130010000D02*
G01*
X108190000Y-131610000D01*
X107990000Y-131810000D01*
X106390000Y-131810000D01*
X106190000Y-131610000D01*
X106190000Y-130010000D01*
X106390000Y-129810000D01*
X107990000Y-129810000D01*
X108190000Y-130010000D01*
G37*
D11*
X106190000Y-131610000D02*
X106190000Y-130010000D01*
X107990000Y-131810000D02*
X106390000Y-131810000D01*
X108190000Y-130010000D02*
X108190000Y-131610000D01*
X106390000Y-129810000D02*
X107990000Y-129810000D01*
X121140000Y-129070000D02*
G75*
G02*
X120940000Y-129270000I-200000J0D01*
G01*
X119340000Y-129270000D02*
G75*
G02*
X119140000Y-129070000I0J200000D01*
G01*
X120940000Y-127270000D02*
G75*
G02*
X121140000Y-127470000I0J-200000D01*
G01*
X119140000Y-127470000D02*
G75*
G02*
X119340000Y-127270000I200000J0D01*
G01*
X106390000Y-131810000D02*
G75*
G02*
X106190000Y-131610000I0J200000D01*
G01*
X108190000Y-131610000D02*
G75*
G02*
X107990000Y-131810000I-200000J0D01*
G01*
X107990000Y-129810000D02*
G75*
G02*
X108190000Y-130010000I0J-200000D01*
G01*
X106190000Y-130010000D02*
G75*
G02*
X106390000Y-129810000I200000J0D01*
G01*
D10*
%TO.C,SW10*%
X109460000Y-118580000D02*
X109460000Y-120180000D01*
X109260000Y-120380000D01*
X107660000Y-120380000D01*
X107460000Y-120180000D01*
X107460000Y-118580000D01*
X107660000Y-118380000D01*
X109260000Y-118380000D01*
X109460000Y-118580000D01*
G36*
X109460000Y-118580000D02*
G01*
X109460000Y-120180000D01*
X109260000Y-120380000D01*
X107660000Y-120380000D01*
X107460000Y-120180000D01*
X107460000Y-118580000D01*
X107660000Y-118380000D01*
X109260000Y-118380000D01*
X109460000Y-118580000D01*
G37*
D11*
X109260000Y-120380000D02*
X107660000Y-120380000D01*
X107460000Y-118580000D02*
X107460000Y-120180000D01*
X109260000Y-118380000D02*
X107660000Y-118380000D01*
X109460000Y-120180000D02*
X109460000Y-118580000D01*
D10*
X122410000Y-116040000D02*
X122410000Y-117640000D01*
X122210000Y-117840000D01*
X120610000Y-117840000D01*
X120410000Y-117640000D01*
X120410000Y-116040000D01*
X120610000Y-115840000D01*
X122210000Y-115840000D01*
X122410000Y-116040000D01*
G36*
X122410000Y-116040000D02*
G01*
X122410000Y-117640000D01*
X122210000Y-117840000D01*
X120610000Y-117840000D01*
X120410000Y-117640000D01*
X120410000Y-116040000D01*
X120610000Y-115840000D01*
X122210000Y-115840000D01*
X122410000Y-116040000D01*
G37*
D11*
X122410000Y-116040000D02*
X122410000Y-117640000D01*
X120610000Y-115840000D02*
X122210000Y-115840000D01*
X120410000Y-117640000D02*
X120410000Y-116040000D01*
X122210000Y-117840000D02*
X120610000Y-117840000D01*
X107460000Y-118580000D02*
G75*
G02*
X107660000Y-118380000I200000J0D01*
G01*
X109260000Y-118380000D02*
G75*
G02*
X109460000Y-118580000I0J-200000D01*
G01*
X107660000Y-120380000D02*
G75*
G02*
X107460000Y-120180000I0J200000D01*
G01*
X109460000Y-120180000D02*
G75*
G02*
X109260000Y-120380000I-200000J0D01*
G01*
X122210000Y-115840000D02*
G75*
G02*
X122410000Y-116040000I0J-200000D01*
G01*
X120410000Y-116040000D02*
G75*
G02*
X120610000Y-115840000I200000J0D01*
G01*
X120610000Y-117840000D02*
G75*
G02*
X120410000Y-117640000I0J200000D01*
G01*
X122410000Y-117640000D02*
G75*
G02*
X122210000Y-117840000I-200000J0D01*
G01*
D10*
%TO.C,SW8*%
X159240000Y-89370000D02*
X159240000Y-90970000D01*
X159040000Y-91170000D01*
X157440000Y-91170000D01*
X157240000Y-90970000D01*
X157240000Y-89370000D01*
X157440000Y-89170000D01*
X159040000Y-89170000D01*
X159240000Y-89370000D01*
G36*
X159240000Y-89370000D02*
G01*
X159240000Y-90970000D01*
X159040000Y-91170000D01*
X157440000Y-91170000D01*
X157240000Y-90970000D01*
X157240000Y-89370000D01*
X157440000Y-89170000D01*
X159040000Y-89170000D01*
X159240000Y-89370000D01*
G37*
D11*
X157440000Y-89170000D02*
X159040000Y-89170000D01*
X159240000Y-90970000D02*
X159240000Y-89370000D01*
X157440000Y-91170000D02*
X159040000Y-91170000D01*
X157240000Y-89370000D02*
X157240000Y-90970000D01*
D10*
X146290000Y-91910000D02*
X146290000Y-93510000D01*
X146090000Y-93710000D01*
X144490000Y-93710000D01*
X144290000Y-93510000D01*
X144290000Y-91910000D01*
X144490000Y-91710000D01*
X146090000Y-91710000D01*
X146290000Y-91910000D01*
G36*
X146290000Y-91910000D02*
G01*
X146290000Y-93510000D01*
X146090000Y-93710000D01*
X144490000Y-93710000D01*
X144290000Y-93510000D01*
X144290000Y-91910000D01*
X144490000Y-91710000D01*
X146090000Y-91710000D01*
X146290000Y-91910000D01*
G37*
D11*
X144290000Y-93510000D02*
X144290000Y-91910000D01*
X146090000Y-93710000D02*
X144490000Y-93710000D01*
X146290000Y-91910000D02*
X146290000Y-93510000D01*
X144490000Y-91710000D02*
X146090000Y-91710000D01*
X159240000Y-90970000D02*
G75*
G02*
X159040000Y-91170000I-200000J0D01*
G01*
X157440000Y-91170000D02*
G75*
G02*
X157240000Y-90970000I0J200000D01*
G01*
X159040000Y-89170000D02*
G75*
G02*
X159240000Y-89370000I0J-200000D01*
G01*
X157240000Y-89370000D02*
G75*
G02*
X157440000Y-89170000I200000J0D01*
G01*
X144490000Y-93710000D02*
G75*
G02*
X144290000Y-93510000I0J200000D01*
G01*
X146290000Y-93510000D02*
G75*
G02*
X146090000Y-93710000I-200000J0D01*
G01*
X146090000Y-91710000D02*
G75*
G02*
X146290000Y-91910000I0J-200000D01*
G01*
X144290000Y-91910000D02*
G75*
G02*
X144490000Y-91710000I200000J0D01*
G01*
%TD*%
D12*
%TO.C,C25*%
X98195000Y-109205000D03*
X96645000Y-109205000D03*
%TD*%
D13*
%TO.C,C12*%
X102045000Y-60625000D03*
X102045000Y-59075000D03*
%TD*%
D14*
%TO.C,C16*%
X126565000Y-112350000D03*
X126565000Y-113900000D03*
%TD*%
%TO.C,C9*%
X107285000Y-52935000D03*
X107285000Y-54485000D03*
%TD*%
D15*
%TO.C,D8*%
X151197500Y-85615000D03*
X154497500Y-85615000D03*
%TD*%
%TO.C,D6*%
X112645000Y-85755000D03*
X115945000Y-85755000D03*
%TD*%
D12*
%TO.C,C18*%
X116755000Y-107735000D03*
X115205000Y-107735000D03*
%TD*%
D16*
%TO.C,C10*%
X97035000Y-54390000D03*
X97035000Y-51440000D03*
%TD*%
D17*
%TO.C,Y2*%
X135695000Y-102215000D03*
X133495000Y-102215000D03*
X133495000Y-100515000D03*
X135695000Y-100515000D03*
%TD*%
D12*
%TO.C,C26*%
X140150000Y-100275000D03*
X138600000Y-100275000D03*
%TD*%
D18*
%TO.C,D12*%
X154415000Y-123905000D03*
X151115000Y-123905000D03*
%TD*%
%TO.C,D16*%
X160615000Y-140025000D03*
X157315000Y-140025000D03*
%TD*%
D19*
%TO.C,R7*%
X98175000Y-106315000D03*
X96525000Y-106315000D03*
%TD*%
D20*
%TO.C,U3*%
X123217500Y-104767500D03*
X123217500Y-106042500D03*
X124492500Y-104767500D03*
X124492500Y-106042500D03*
D21*
X120417500Y-108005000D03*
X120417500Y-107605000D03*
X120417500Y-107205000D03*
X120417500Y-106805000D03*
X120417500Y-106405000D03*
X120417500Y-106005000D03*
X120417500Y-105605000D03*
X120417500Y-105205000D03*
X120417500Y-104805000D03*
X120417500Y-104405000D03*
X120417500Y-104005000D03*
X120417500Y-103605000D03*
X120417500Y-103205000D03*
X120417500Y-102805000D03*
D22*
X121255000Y-101967500D03*
X121655000Y-101967500D03*
X122055000Y-101967500D03*
X122455000Y-101967500D03*
X122855000Y-101967500D03*
X123255000Y-101967500D03*
X123655000Y-101967500D03*
X124055000Y-101967500D03*
X124455000Y-101967500D03*
X124855000Y-101967500D03*
X125255000Y-101967500D03*
X125655000Y-101967500D03*
X126055000Y-101967500D03*
X126455000Y-101967500D03*
D21*
X127292500Y-102805000D03*
X127292500Y-103205000D03*
X127292500Y-103605000D03*
X127292500Y-104005000D03*
X127292500Y-104405000D03*
X127292500Y-104805000D03*
X127292500Y-105205000D03*
X127292500Y-105605000D03*
X127292500Y-106005000D03*
X127292500Y-106405000D03*
X127292500Y-106805000D03*
X127292500Y-107205000D03*
X127292500Y-107605000D03*
X127292500Y-108005000D03*
D22*
X126455000Y-108842500D03*
X126055000Y-108842500D03*
X125655000Y-108842500D03*
X125255000Y-108842500D03*
X124855000Y-108842500D03*
X124455000Y-108842500D03*
X124055000Y-108842500D03*
X123655000Y-108842500D03*
X123255000Y-108842500D03*
X122855000Y-108842500D03*
X122455000Y-108842500D03*
X122055000Y-108842500D03*
X121655000Y-108842500D03*
X121255000Y-108842500D03*
%TD*%
D23*
%TO.C,BSW1*%
X153597500Y-46685000D03*
X153597500Y-51185000D03*
X144497500Y-46685000D03*
X144497500Y-51185000D03*
%TD*%
D12*
%TO.C,C7*%
X123105000Y-60705000D03*
X121555000Y-60705000D03*
%TD*%
D18*
%TO.C,D1*%
X91645000Y-72175000D03*
X88345000Y-72175000D03*
%TD*%
D24*
%TO.C,C21*%
X130780000Y-105135000D03*
X132330000Y-105135000D03*
%TD*%
D18*
%TO.C,D13*%
X103185000Y-139555000D03*
X99885000Y-139555000D03*
%TD*%
%TO.C,D9*%
X96415000Y-123565000D03*
X93115000Y-123565000D03*
%TD*%
D25*
%TO.C,C2*%
X92195000Y-61045000D03*
X92195000Y-62945000D03*
%TD*%
D26*
%TO.C,R11*%
X149545000Y-43735000D03*
X149545000Y-42085000D03*
%TD*%
D19*
%TO.C,R6*%
X123145000Y-63155000D03*
X121495000Y-63155000D03*
%TD*%
D25*
%TO.C,C14*%
X135095000Y-108965000D03*
X135095000Y-110865000D03*
%TD*%
D27*
%TO.C,C17*%
X116985000Y-101145000D03*
X115085000Y-101145000D03*
%TD*%
D19*
%TO.C,R5*%
X123160000Y-65045000D03*
X121510000Y-65045000D03*
%TD*%
D26*
%TO.C,R10*%
X146915000Y-43730000D03*
X146915000Y-42080000D03*
%TD*%
D28*
%TO.C,C8*%
X103765000Y-51560000D03*
X103765000Y-54510000D03*
%TD*%
D29*
%TO.C,U1*%
X115828400Y-56150000D03*
X115828400Y-57420000D03*
X115828400Y-58690000D03*
X115828400Y-59960000D03*
X115828400Y-61230000D03*
X115828400Y-62500000D03*
X115828400Y-63770000D03*
X115828400Y-65040000D03*
X109681600Y-65040000D03*
X109681600Y-63770000D03*
X109681600Y-62500000D03*
X109681600Y-61230000D03*
X109681600Y-59960000D03*
X109681600Y-58690000D03*
X109681600Y-57420000D03*
X109681600Y-56150000D03*
%TD*%
D30*
%TO.C,U2*%
X127035000Y-63665000D03*
X127035000Y-61365000D03*
D31*
X133335000Y-61365000D03*
D30*
X127035000Y-59065000D03*
%TD*%
D18*
%TO.C,D4*%
X148815000Y-71765000D03*
X145515000Y-71765000D03*
%TD*%
D32*
%TO.C,U4*%
X101640000Y-102157500D03*
X102910000Y-102157500D03*
X104180000Y-102157500D03*
X105450000Y-102157500D03*
X105450000Y-109332500D03*
X104180000Y-109332500D03*
X102910000Y-109332500D03*
X101640000Y-109332500D03*
%TD*%
D13*
%TO.C,C20*%
X123405000Y-99565000D03*
X123405000Y-98015000D03*
%TD*%
D14*
%TO.C,C1*%
X89225000Y-61000000D03*
X89225000Y-62550000D03*
%TD*%
D33*
%TO.C,FB1*%
X91040000Y-52475000D03*
X92690000Y-52475000D03*
%TD*%
D14*
%TO.C,C5*%
X89045000Y-45040000D03*
X89045000Y-46590000D03*
%TD*%
D12*
%TO.C,C19*%
X116820000Y-104615000D03*
X115270000Y-104615000D03*
%TD*%
D23*
%TO.C,BSW2*%
X153617500Y-56865000D03*
X153617500Y-61365000D03*
X144517500Y-56865000D03*
X144517500Y-61365000D03*
%TD*%
D13*
%TO.C,C15*%
X125085000Y-99570000D03*
X125085000Y-98020000D03*
%TD*%
D14*
%TO.C,C24*%
X124905000Y-112340000D03*
X124905000Y-113890000D03*
%TD*%
D19*
%TO.C,R8*%
X140695000Y-51515000D03*
X139045000Y-51515000D03*
%TD*%
D18*
%TO.C,D11*%
X134675000Y-123895000D03*
X131375000Y-123895000D03*
%TD*%
D24*
%TO.C,C23*%
X129370000Y-109315000D03*
X130920000Y-109315000D03*
%TD*%
D15*
%TO.C,D7*%
X131635000Y-85745000D03*
X134935000Y-85745000D03*
%TD*%
D12*
%TO.C,C6*%
X123140000Y-58885000D03*
X121590000Y-58885000D03*
%TD*%
D13*
%TO.C,C11*%
X100405000Y-54310000D03*
X100405000Y-52760000D03*
%TD*%
D18*
%TO.C,D2*%
X110685000Y-72005000D03*
X107385000Y-72005000D03*
%TD*%
D16*
%TO.C,C13*%
X99365000Y-60585000D03*
X99365000Y-57635000D03*
%TD*%
D18*
%TO.C,D3*%
X129605000Y-71875000D03*
X126305000Y-71875000D03*
%TD*%
D24*
%TO.C,C22*%
X130790000Y-106775000D03*
X132340000Y-106775000D03*
%TD*%
D18*
%TO.C,D14*%
X122682500Y-139755000D03*
X119382500Y-139755000D03*
%TD*%
D26*
%TO.C,R9*%
X140435000Y-63210000D03*
X140435000Y-61560000D03*
%TD*%
D15*
%TO.C,D5*%
X93697500Y-85865000D03*
X96997500Y-85865000D03*
%TD*%
D18*
%TO.C,D15*%
X141462500Y-139825000D03*
X138162500Y-139825000D03*
%TD*%
D12*
%TO.C,C27*%
X140190000Y-102095000D03*
X138640000Y-102095000D03*
%TD*%
D18*
%TO.C,D10*%
X116092500Y-123685000D03*
X112792500Y-123685000D03*
%TD*%
M02*
