M48
; DRILL file KiCad 10.0.1 date 2026-07-12T22:50:27
; FORMAT={-:-/ absolute / metric / decimal}
; #@! TF.CreationDate,2026-07-12T22:50:27+09:00
; #@! TF.GenerationSoftware,Kicad,Pcbnew,10.0.1
; #@! TF.FileFunction,NonPlated,1,4,NPTH
FMAT,2
METRIC
; #@! TA.AperFunction,NonPlated,NPTH,ComponentDrill
T1C0.600
; #@! TA.AperFunction,NonPlated,NPTH,ComponentDrill
T2C1.600
; #@! TA.AperFunction,NonPlated,NPTH,ComponentDrill
T3C2.200
; #@! TA.AperFunction,NonPlated,NPTH,ComponentDrill
T4C3.000
; #@! TA.AperFunction,NonPlated,NPTH,ComponentDrill
T5C4.100
%
G90
G05
T2
X90.17Y-76.12
X90.17Y-95.25
X90.17Y-114.3
X90.17Y-133.35
X100.33Y-76.12
X100.33Y-95.25
X100.33Y-114.3
X100.33Y-133.35
X109.22Y-76.2
X109.22Y-95.25
X109.22Y-114.3
X109.22Y-133.35
X119.38Y-76.2
X119.38Y-95.25
X119.38Y-114.3
X119.38Y-133.35
X128.27Y-76.2
X128.27Y-95.25
X128.27Y-114.3
X128.27Y-133.35
X138.43Y-76.2
X138.43Y-95.25
X138.43Y-114.3
X138.43Y-133.35
X147.32Y-76.2
X147.32Y-95.25
X147.32Y-114.3
X147.32Y-133.35
X157.48Y-76.2
X157.48Y-95.25
X157.48Y-114.3
X157.48Y-133.35
T3
X83.435Y-144.805
X83.885Y-37.665
X163.815Y-144.905
X164.105Y-37.505
T4
X91.44Y-92.71
X91.44Y-130.81
X92.71Y-81.2
X92.71Y-119.38
X97.79Y-90.17
X97.79Y-128.27
X99.06Y-78.66
X99.06Y-116.84
X110.49Y-92.71
X110.49Y-130.81
X111.76Y-81.28
X111.76Y-119.38
X116.84Y-90.17
X116.84Y-128.27
X118.11Y-78.74
X118.11Y-116.84
X129.54Y-92.71
X129.54Y-130.81
X130.81Y-81.28
X130.81Y-119.38
X135.89Y-90.17
X135.89Y-128.27
X137.16Y-78.74
X137.16Y-116.84
X148.59Y-92.71
X148.59Y-130.81
X149.86Y-81.28
X149.86Y-119.38
X154.94Y-90.17
X154.94Y-128.27
X156.21Y-78.74
X156.21Y-116.84
T5
X95.25Y-76.12
X95.25Y-95.25
X95.25Y-114.3
X95.25Y-133.35
X114.3Y-76.2
X114.3Y-95.25
X114.3Y-114.3
X114.3Y-133.35
X133.35Y-76.2
X133.35Y-95.25
X133.35Y-114.3
X133.35Y-133.35
X152.4Y-76.2
X152.4Y-95.25
X152.4Y-114.3
X152.4Y-133.35
T1
G00X81.641Y-51.135
M15
G01X82.841Y-51.135
M16
G05
G00X81.641Y-59.775
M15
G01X82.841Y-59.775
M16
G05
G00X85.841Y-51.135
M15
G01X86.641Y-51.135
M16
G05
G00X85.841Y-59.775
M15
G01X86.641Y-59.775
M16
G05
G00X88.105Y-35.674
M15
G01X88.105Y-36.874
M16
G05
G00X88.105Y-39.874
M15
G01X88.105Y-40.674
M16
G05
G00X96.745Y-39.874
M15
G01X96.745Y-40.674
M16
G05
G00X96.745Y-35.674
M15
G01X96.745Y-36.874
M16
G05
M30
