%TF.GenerationSoftware,KiCad,Pcbnew,10.0.1*%
%TF.CreationDate,2026-07-12T22:50:01+09:00*%
%TF.ProjectId,USBhub-keyboard,55534268-7562-42d6-9b65-79626f617264,rev?*%
%TF.SameCoordinates,Original*%
%TF.FileFunction,Legend,Bot*%
%TF.FilePolarity,Positive*%
%FSLAX46Y46*%
G04 Gerber Fmt 4.6, Leading zero omitted, Abs format (unit mm)*
G04 Created by KiCad (PCBNEW 10.0.1) date 2026-07-12 22:50:01*
%MOMM*%
%LPD*%
G01*
G04 APERTURE LIST*
%ADD10C,0.150000*%
%ADD11C,0.100000*%
%ADD12C,0.120000*%
%ADD13C,0.254000*%
%ADD14C,0.127000*%
%ADD15C,0.200000*%
%ADD16C,0.152400*%
%ADD17C,0.050800*%
G04 APERTURE END LIST*
D10*
X177638333Y-44279819D02*
X177638333Y-44994104D01*
X177638333Y-44994104D02*
X177685952Y-45136961D01*
X177685952Y-45136961D02*
X177781190Y-45232200D01*
X177781190Y-45232200D02*
X177924047Y-45279819D01*
X177924047Y-45279819D02*
X178019285Y-45279819D01*
X176638333Y-45279819D02*
X177209761Y-45279819D01*
X176924047Y-45279819D02*
X176924047Y-44279819D01*
X176924047Y-44279819D02*
X177019285Y-44422676D01*
X177019285Y-44422676D02*
X177114523Y-44517914D01*
X177114523Y-44517914D02*
X177209761Y-44565533D01*
X94892857Y-109614580D02*
X94940476Y-109662200D01*
X94940476Y-109662200D02*
X95083333Y-109709819D01*
X95083333Y-109709819D02*
X95178571Y-109709819D01*
X95178571Y-109709819D02*
X95321428Y-109662200D01*
X95321428Y-109662200D02*
X95416666Y-109566961D01*
X95416666Y-109566961D02*
X95464285Y-109471723D01*
X95464285Y-109471723D02*
X95511904Y-109281247D01*
X95511904Y-109281247D02*
X95511904Y-109138390D01*
X95511904Y-109138390D02*
X95464285Y-108947914D01*
X95464285Y-108947914D02*
X95416666Y-108852676D01*
X95416666Y-108852676D02*
X95321428Y-108757438D01*
X95321428Y-108757438D02*
X95178571Y-108709819D01*
X95178571Y-108709819D02*
X95083333Y-108709819D01*
X95083333Y-108709819D02*
X94940476Y-108757438D01*
X94940476Y-108757438D02*
X94892857Y-108805057D01*
X94511904Y-108805057D02*
X94464285Y-108757438D01*
X94464285Y-108757438D02*
X94369047Y-108709819D01*
X94369047Y-108709819D02*
X94130952Y-108709819D01*
X94130952Y-108709819D02*
X94035714Y-108757438D01*
X94035714Y-108757438D02*
X93988095Y-108805057D01*
X93988095Y-108805057D02*
X93940476Y-108900295D01*
X93940476Y-108900295D02*
X93940476Y-108995533D01*
X93940476Y-108995533D02*
X93988095Y-109138390D01*
X93988095Y-109138390D02*
X94559523Y-109709819D01*
X94559523Y-109709819D02*
X93940476Y-109709819D01*
X93035714Y-108709819D02*
X93511904Y-108709819D01*
X93511904Y-108709819D02*
X93559523Y-109186009D01*
X93559523Y-109186009D02*
X93511904Y-109138390D01*
X93511904Y-109138390D02*
X93416666Y-109090771D01*
X93416666Y-109090771D02*
X93178571Y-109090771D01*
X93178571Y-109090771D02*
X93083333Y-109138390D01*
X93083333Y-109138390D02*
X93035714Y-109186009D01*
X93035714Y-109186009D02*
X92988095Y-109281247D01*
X92988095Y-109281247D02*
X92988095Y-109519342D01*
X92988095Y-109519342D02*
X93035714Y-109614580D01*
X93035714Y-109614580D02*
X93083333Y-109662200D01*
X93083333Y-109662200D02*
X93178571Y-109709819D01*
X93178571Y-109709819D02*
X93416666Y-109709819D01*
X93416666Y-109709819D02*
X93511904Y-109662200D01*
X93511904Y-109662200D02*
X93559523Y-109614580D01*
X103107857Y-62614580D02*
X103155476Y-62662200D01*
X103155476Y-62662200D02*
X103298333Y-62709819D01*
X103298333Y-62709819D02*
X103393571Y-62709819D01*
X103393571Y-62709819D02*
X103536428Y-62662200D01*
X103536428Y-62662200D02*
X103631666Y-62566961D01*
X103631666Y-62566961D02*
X103679285Y-62471723D01*
X103679285Y-62471723D02*
X103726904Y-62281247D01*
X103726904Y-62281247D02*
X103726904Y-62138390D01*
X103726904Y-62138390D02*
X103679285Y-61947914D01*
X103679285Y-61947914D02*
X103631666Y-61852676D01*
X103631666Y-61852676D02*
X103536428Y-61757438D01*
X103536428Y-61757438D02*
X103393571Y-61709819D01*
X103393571Y-61709819D02*
X103298333Y-61709819D01*
X103298333Y-61709819D02*
X103155476Y-61757438D01*
X103155476Y-61757438D02*
X103107857Y-61805057D01*
X102155476Y-62709819D02*
X102726904Y-62709819D01*
X102441190Y-62709819D02*
X102441190Y-61709819D01*
X102441190Y-61709819D02*
X102536428Y-61852676D01*
X102536428Y-61852676D02*
X102631666Y-61947914D01*
X102631666Y-61947914D02*
X102726904Y-61995533D01*
X101774523Y-61805057D02*
X101726904Y-61757438D01*
X101726904Y-61757438D02*
X101631666Y-61709819D01*
X101631666Y-61709819D02*
X101393571Y-61709819D01*
X101393571Y-61709819D02*
X101298333Y-61757438D01*
X101298333Y-61757438D02*
X101250714Y-61805057D01*
X101250714Y-61805057D02*
X101203095Y-61900295D01*
X101203095Y-61900295D02*
X101203095Y-61995533D01*
X101203095Y-61995533D02*
X101250714Y-62138390D01*
X101250714Y-62138390D02*
X101822142Y-62709819D01*
X101822142Y-62709819D02*
X101203095Y-62709819D01*
X126924580Y-115602142D02*
X126972200Y-115554523D01*
X126972200Y-115554523D02*
X127019819Y-115411666D01*
X127019819Y-115411666D02*
X127019819Y-115316428D01*
X127019819Y-115316428D02*
X126972200Y-115173571D01*
X126972200Y-115173571D02*
X126876961Y-115078333D01*
X126876961Y-115078333D02*
X126781723Y-115030714D01*
X126781723Y-115030714D02*
X126591247Y-114983095D01*
X126591247Y-114983095D02*
X126448390Y-114983095D01*
X126448390Y-114983095D02*
X126257914Y-115030714D01*
X126257914Y-115030714D02*
X126162676Y-115078333D01*
X126162676Y-115078333D02*
X126067438Y-115173571D01*
X126067438Y-115173571D02*
X126019819Y-115316428D01*
X126019819Y-115316428D02*
X126019819Y-115411666D01*
X126019819Y-115411666D02*
X126067438Y-115554523D01*
X126067438Y-115554523D02*
X126115057Y-115602142D01*
X127019819Y-116554523D02*
X127019819Y-115983095D01*
X127019819Y-116268809D02*
X126019819Y-116268809D01*
X126019819Y-116268809D02*
X126162676Y-116173571D01*
X126162676Y-116173571D02*
X126257914Y-116078333D01*
X126257914Y-116078333D02*
X126305533Y-115983095D01*
X126019819Y-117411666D02*
X126019819Y-117221190D01*
X126019819Y-117221190D02*
X126067438Y-117125952D01*
X126067438Y-117125952D02*
X126115057Y-117078333D01*
X126115057Y-117078333D02*
X126257914Y-116983095D01*
X126257914Y-116983095D02*
X126448390Y-116935476D01*
X126448390Y-116935476D02*
X126829342Y-116935476D01*
X126829342Y-116935476D02*
X126924580Y-116983095D01*
X126924580Y-116983095D02*
X126972200Y-117030714D01*
X126972200Y-117030714D02*
X127019819Y-117125952D01*
X127019819Y-117125952D02*
X127019819Y-117316428D01*
X127019819Y-117316428D02*
X126972200Y-117411666D01*
X126972200Y-117411666D02*
X126924580Y-117459285D01*
X126924580Y-117459285D02*
X126829342Y-117506904D01*
X126829342Y-117506904D02*
X126591247Y-117506904D01*
X126591247Y-117506904D02*
X126496009Y-117459285D01*
X126496009Y-117459285D02*
X126448390Y-117411666D01*
X126448390Y-117411666D02*
X126400771Y-117316428D01*
X126400771Y-117316428D02*
X126400771Y-117125952D01*
X126400771Y-117125952D02*
X126448390Y-117030714D01*
X126448390Y-117030714D02*
X126496009Y-116983095D01*
X126496009Y-116983095D02*
X126591247Y-116935476D01*
X109294580Y-53693333D02*
X109342200Y-53645714D01*
X109342200Y-53645714D02*
X109389819Y-53502857D01*
X109389819Y-53502857D02*
X109389819Y-53407619D01*
X109389819Y-53407619D02*
X109342200Y-53264762D01*
X109342200Y-53264762D02*
X109246961Y-53169524D01*
X109246961Y-53169524D02*
X109151723Y-53121905D01*
X109151723Y-53121905D02*
X108961247Y-53074286D01*
X108961247Y-53074286D02*
X108818390Y-53074286D01*
X108818390Y-53074286D02*
X108627914Y-53121905D01*
X108627914Y-53121905D02*
X108532676Y-53169524D01*
X108532676Y-53169524D02*
X108437438Y-53264762D01*
X108437438Y-53264762D02*
X108389819Y-53407619D01*
X108389819Y-53407619D02*
X108389819Y-53502857D01*
X108389819Y-53502857D02*
X108437438Y-53645714D01*
X108437438Y-53645714D02*
X108485057Y-53693333D01*
X109389819Y-54169524D02*
X109389819Y-54360000D01*
X109389819Y-54360000D02*
X109342200Y-54455238D01*
X109342200Y-54455238D02*
X109294580Y-54502857D01*
X109294580Y-54502857D02*
X109151723Y-54598095D01*
X109151723Y-54598095D02*
X108961247Y-54645714D01*
X108961247Y-54645714D02*
X108580295Y-54645714D01*
X108580295Y-54645714D02*
X108485057Y-54598095D01*
X108485057Y-54598095D02*
X108437438Y-54550476D01*
X108437438Y-54550476D02*
X108389819Y-54455238D01*
X108389819Y-54455238D02*
X108389819Y-54264762D01*
X108389819Y-54264762D02*
X108437438Y-54169524D01*
X108437438Y-54169524D02*
X108485057Y-54121905D01*
X108485057Y-54121905D02*
X108580295Y-54074286D01*
X108580295Y-54074286D02*
X108818390Y-54074286D01*
X108818390Y-54074286D02*
X108913628Y-54121905D01*
X108913628Y-54121905D02*
X108961247Y-54169524D01*
X108961247Y-54169524D02*
X109008866Y-54264762D01*
X109008866Y-54264762D02*
X109008866Y-54455238D01*
X109008866Y-54455238D02*
X108961247Y-54550476D01*
X108961247Y-54550476D02*
X108913628Y-54598095D01*
X108913628Y-54598095D02*
X108818390Y-54645714D01*
X153585594Y-88069819D02*
X153585594Y-87069819D01*
X153585594Y-87069819D02*
X153347499Y-87069819D01*
X153347499Y-87069819D02*
X153204642Y-87117438D01*
X153204642Y-87117438D02*
X153109404Y-87212676D01*
X153109404Y-87212676D02*
X153061785Y-87307914D01*
X153061785Y-87307914D02*
X153014166Y-87498390D01*
X153014166Y-87498390D02*
X153014166Y-87641247D01*
X153014166Y-87641247D02*
X153061785Y-87831723D01*
X153061785Y-87831723D02*
X153109404Y-87926961D01*
X153109404Y-87926961D02*
X153204642Y-88022200D01*
X153204642Y-88022200D02*
X153347499Y-88069819D01*
X153347499Y-88069819D02*
X153585594Y-88069819D01*
X152442737Y-87498390D02*
X152537975Y-87450771D01*
X152537975Y-87450771D02*
X152585594Y-87403152D01*
X152585594Y-87403152D02*
X152633213Y-87307914D01*
X152633213Y-87307914D02*
X152633213Y-87260295D01*
X152633213Y-87260295D02*
X152585594Y-87165057D01*
X152585594Y-87165057D02*
X152537975Y-87117438D01*
X152537975Y-87117438D02*
X152442737Y-87069819D01*
X152442737Y-87069819D02*
X152252261Y-87069819D01*
X152252261Y-87069819D02*
X152157023Y-87117438D01*
X152157023Y-87117438D02*
X152109404Y-87165057D01*
X152109404Y-87165057D02*
X152061785Y-87260295D01*
X152061785Y-87260295D02*
X152061785Y-87307914D01*
X152061785Y-87307914D02*
X152109404Y-87403152D01*
X152109404Y-87403152D02*
X152157023Y-87450771D01*
X152157023Y-87450771D02*
X152252261Y-87498390D01*
X152252261Y-87498390D02*
X152442737Y-87498390D01*
X152442737Y-87498390D02*
X152537975Y-87546009D01*
X152537975Y-87546009D02*
X152585594Y-87593628D01*
X152585594Y-87593628D02*
X152633213Y-87688866D01*
X152633213Y-87688866D02*
X152633213Y-87879342D01*
X152633213Y-87879342D02*
X152585594Y-87974580D01*
X152585594Y-87974580D02*
X152537975Y-88022200D01*
X152537975Y-88022200D02*
X152442737Y-88069819D01*
X152442737Y-88069819D02*
X152252261Y-88069819D01*
X152252261Y-88069819D02*
X152157023Y-88022200D01*
X152157023Y-88022200D02*
X152109404Y-87974580D01*
X152109404Y-87974580D02*
X152061785Y-87879342D01*
X152061785Y-87879342D02*
X152061785Y-87688866D01*
X152061785Y-87688866D02*
X152109404Y-87593628D01*
X152109404Y-87593628D02*
X152157023Y-87546009D01*
X152157023Y-87546009D02*
X152252261Y-87498390D01*
X115033094Y-88209819D02*
X115033094Y-87209819D01*
X115033094Y-87209819D02*
X114794999Y-87209819D01*
X114794999Y-87209819D02*
X114652142Y-87257438D01*
X114652142Y-87257438D02*
X114556904Y-87352676D01*
X114556904Y-87352676D02*
X114509285Y-87447914D01*
X114509285Y-87447914D02*
X114461666Y-87638390D01*
X114461666Y-87638390D02*
X114461666Y-87781247D01*
X114461666Y-87781247D02*
X114509285Y-87971723D01*
X114509285Y-87971723D02*
X114556904Y-88066961D01*
X114556904Y-88066961D02*
X114652142Y-88162200D01*
X114652142Y-88162200D02*
X114794999Y-88209819D01*
X114794999Y-88209819D02*
X115033094Y-88209819D01*
X113604523Y-87209819D02*
X113794999Y-87209819D01*
X113794999Y-87209819D02*
X113890237Y-87257438D01*
X113890237Y-87257438D02*
X113937856Y-87305057D01*
X113937856Y-87305057D02*
X114033094Y-87447914D01*
X114033094Y-87447914D02*
X114080713Y-87638390D01*
X114080713Y-87638390D02*
X114080713Y-88019342D01*
X114080713Y-88019342D02*
X114033094Y-88114580D01*
X114033094Y-88114580D02*
X113985475Y-88162200D01*
X113985475Y-88162200D02*
X113890237Y-88209819D01*
X113890237Y-88209819D02*
X113699761Y-88209819D01*
X113699761Y-88209819D02*
X113604523Y-88162200D01*
X113604523Y-88162200D02*
X113556904Y-88114580D01*
X113556904Y-88114580D02*
X113509285Y-88019342D01*
X113509285Y-88019342D02*
X113509285Y-87781247D01*
X113509285Y-87781247D02*
X113556904Y-87686009D01*
X113556904Y-87686009D02*
X113604523Y-87638390D01*
X113604523Y-87638390D02*
X113699761Y-87590771D01*
X113699761Y-87590771D02*
X113890237Y-87590771D01*
X113890237Y-87590771D02*
X113985475Y-87638390D01*
X113985475Y-87638390D02*
X114033094Y-87686009D01*
X114033094Y-87686009D02*
X114080713Y-87781247D01*
X115627857Y-109594580D02*
X115675476Y-109642200D01*
X115675476Y-109642200D02*
X115818333Y-109689819D01*
X115818333Y-109689819D02*
X115913571Y-109689819D01*
X115913571Y-109689819D02*
X116056428Y-109642200D01*
X116056428Y-109642200D02*
X116151666Y-109546961D01*
X116151666Y-109546961D02*
X116199285Y-109451723D01*
X116199285Y-109451723D02*
X116246904Y-109261247D01*
X116246904Y-109261247D02*
X116246904Y-109118390D01*
X116246904Y-109118390D02*
X116199285Y-108927914D01*
X116199285Y-108927914D02*
X116151666Y-108832676D01*
X116151666Y-108832676D02*
X116056428Y-108737438D01*
X116056428Y-108737438D02*
X115913571Y-108689819D01*
X115913571Y-108689819D02*
X115818333Y-108689819D01*
X115818333Y-108689819D02*
X115675476Y-108737438D01*
X115675476Y-108737438D02*
X115627857Y-108785057D01*
X114675476Y-109689819D02*
X115246904Y-109689819D01*
X114961190Y-109689819D02*
X114961190Y-108689819D01*
X114961190Y-108689819D02*
X115056428Y-108832676D01*
X115056428Y-108832676D02*
X115151666Y-108927914D01*
X115151666Y-108927914D02*
X115246904Y-108975533D01*
X114104047Y-109118390D02*
X114199285Y-109070771D01*
X114199285Y-109070771D02*
X114246904Y-109023152D01*
X114246904Y-109023152D02*
X114294523Y-108927914D01*
X114294523Y-108927914D02*
X114294523Y-108880295D01*
X114294523Y-108880295D02*
X114246904Y-108785057D01*
X114246904Y-108785057D02*
X114199285Y-108737438D01*
X114199285Y-108737438D02*
X114104047Y-108689819D01*
X114104047Y-108689819D02*
X113913571Y-108689819D01*
X113913571Y-108689819D02*
X113818333Y-108737438D01*
X113818333Y-108737438D02*
X113770714Y-108785057D01*
X113770714Y-108785057D02*
X113723095Y-108880295D01*
X113723095Y-108880295D02*
X113723095Y-108927914D01*
X113723095Y-108927914D02*
X113770714Y-109023152D01*
X113770714Y-109023152D02*
X113818333Y-109070771D01*
X113818333Y-109070771D02*
X113913571Y-109118390D01*
X113913571Y-109118390D02*
X114104047Y-109118390D01*
X114104047Y-109118390D02*
X114199285Y-109166009D01*
X114199285Y-109166009D02*
X114246904Y-109213628D01*
X114246904Y-109213628D02*
X114294523Y-109308866D01*
X114294523Y-109308866D02*
X114294523Y-109499342D01*
X114294523Y-109499342D02*
X114246904Y-109594580D01*
X114246904Y-109594580D02*
X114199285Y-109642200D01*
X114199285Y-109642200D02*
X114104047Y-109689819D01*
X114104047Y-109689819D02*
X113913571Y-109689819D01*
X113913571Y-109689819D02*
X113818333Y-109642200D01*
X113818333Y-109642200D02*
X113770714Y-109594580D01*
X113770714Y-109594580D02*
X113723095Y-109499342D01*
X113723095Y-109499342D02*
X113723095Y-109308866D01*
X113723095Y-109308866D02*
X113770714Y-109213628D01*
X113770714Y-109213628D02*
X113818333Y-109166009D01*
X113818333Y-109166009D02*
X113913571Y-109118390D01*
X99244580Y-52272142D02*
X99292200Y-52224523D01*
X99292200Y-52224523D02*
X99339819Y-52081666D01*
X99339819Y-52081666D02*
X99339819Y-51986428D01*
X99339819Y-51986428D02*
X99292200Y-51843571D01*
X99292200Y-51843571D02*
X99196961Y-51748333D01*
X99196961Y-51748333D02*
X99101723Y-51700714D01*
X99101723Y-51700714D02*
X98911247Y-51653095D01*
X98911247Y-51653095D02*
X98768390Y-51653095D01*
X98768390Y-51653095D02*
X98577914Y-51700714D01*
X98577914Y-51700714D02*
X98482676Y-51748333D01*
X98482676Y-51748333D02*
X98387438Y-51843571D01*
X98387438Y-51843571D02*
X98339819Y-51986428D01*
X98339819Y-51986428D02*
X98339819Y-52081666D01*
X98339819Y-52081666D02*
X98387438Y-52224523D01*
X98387438Y-52224523D02*
X98435057Y-52272142D01*
X99339819Y-53224523D02*
X99339819Y-52653095D01*
X99339819Y-52938809D02*
X98339819Y-52938809D01*
X98339819Y-52938809D02*
X98482676Y-52843571D01*
X98482676Y-52843571D02*
X98577914Y-52748333D01*
X98577914Y-52748333D02*
X98625533Y-52653095D01*
X98339819Y-53843571D02*
X98339819Y-53938809D01*
X98339819Y-53938809D02*
X98387438Y-54034047D01*
X98387438Y-54034047D02*
X98435057Y-54081666D01*
X98435057Y-54081666D02*
X98530295Y-54129285D01*
X98530295Y-54129285D02*
X98720771Y-54176904D01*
X98720771Y-54176904D02*
X98958866Y-54176904D01*
X98958866Y-54176904D02*
X99149342Y-54129285D01*
X99149342Y-54129285D02*
X99244580Y-54081666D01*
X99244580Y-54081666D02*
X99292200Y-54034047D01*
X99292200Y-54034047D02*
X99339819Y-53938809D01*
X99339819Y-53938809D02*
X99339819Y-53843571D01*
X99339819Y-53843571D02*
X99292200Y-53748333D01*
X99292200Y-53748333D02*
X99244580Y-53700714D01*
X99244580Y-53700714D02*
X99149342Y-53653095D01*
X99149342Y-53653095D02*
X98958866Y-53605476D01*
X98958866Y-53605476D02*
X98720771Y-53605476D01*
X98720771Y-53605476D02*
X98530295Y-53653095D01*
X98530295Y-53653095D02*
X98435057Y-53700714D01*
X98435057Y-53700714D02*
X98387438Y-53748333D01*
X98387438Y-53748333D02*
X98339819Y-53843571D01*
X135071190Y-98893628D02*
X135071190Y-99369819D01*
X135404523Y-98369819D02*
X135071190Y-98893628D01*
X135071190Y-98893628D02*
X134737857Y-98369819D01*
X134452142Y-98465057D02*
X134404523Y-98417438D01*
X134404523Y-98417438D02*
X134309285Y-98369819D01*
X134309285Y-98369819D02*
X134071190Y-98369819D01*
X134071190Y-98369819D02*
X133975952Y-98417438D01*
X133975952Y-98417438D02*
X133928333Y-98465057D01*
X133928333Y-98465057D02*
X133880714Y-98560295D01*
X133880714Y-98560295D02*
X133880714Y-98655533D01*
X133880714Y-98655533D02*
X133928333Y-98798390D01*
X133928333Y-98798390D02*
X134499761Y-99369819D01*
X134499761Y-99369819D02*
X133880714Y-99369819D01*
X143197857Y-100654580D02*
X143245476Y-100702200D01*
X143245476Y-100702200D02*
X143388333Y-100749819D01*
X143388333Y-100749819D02*
X143483571Y-100749819D01*
X143483571Y-100749819D02*
X143626428Y-100702200D01*
X143626428Y-100702200D02*
X143721666Y-100606961D01*
X143721666Y-100606961D02*
X143769285Y-100511723D01*
X143769285Y-100511723D02*
X143816904Y-100321247D01*
X143816904Y-100321247D02*
X143816904Y-100178390D01*
X143816904Y-100178390D02*
X143769285Y-99987914D01*
X143769285Y-99987914D02*
X143721666Y-99892676D01*
X143721666Y-99892676D02*
X143626428Y-99797438D01*
X143626428Y-99797438D02*
X143483571Y-99749819D01*
X143483571Y-99749819D02*
X143388333Y-99749819D01*
X143388333Y-99749819D02*
X143245476Y-99797438D01*
X143245476Y-99797438D02*
X143197857Y-99845057D01*
X142816904Y-99845057D02*
X142769285Y-99797438D01*
X142769285Y-99797438D02*
X142674047Y-99749819D01*
X142674047Y-99749819D02*
X142435952Y-99749819D01*
X142435952Y-99749819D02*
X142340714Y-99797438D01*
X142340714Y-99797438D02*
X142293095Y-99845057D01*
X142293095Y-99845057D02*
X142245476Y-99940295D01*
X142245476Y-99940295D02*
X142245476Y-100035533D01*
X142245476Y-100035533D02*
X142293095Y-100178390D01*
X142293095Y-100178390D02*
X142864523Y-100749819D01*
X142864523Y-100749819D02*
X142245476Y-100749819D01*
X141388333Y-99749819D02*
X141578809Y-99749819D01*
X141578809Y-99749819D02*
X141674047Y-99797438D01*
X141674047Y-99797438D02*
X141721666Y-99845057D01*
X141721666Y-99845057D02*
X141816904Y-99987914D01*
X141816904Y-99987914D02*
X141864523Y-100178390D01*
X141864523Y-100178390D02*
X141864523Y-100559342D01*
X141864523Y-100559342D02*
X141816904Y-100654580D01*
X141816904Y-100654580D02*
X141769285Y-100702200D01*
X141769285Y-100702200D02*
X141674047Y-100749819D01*
X141674047Y-100749819D02*
X141483571Y-100749819D01*
X141483571Y-100749819D02*
X141388333Y-100702200D01*
X141388333Y-100702200D02*
X141340714Y-100654580D01*
X141340714Y-100654580D02*
X141293095Y-100559342D01*
X141293095Y-100559342D02*
X141293095Y-100321247D01*
X141293095Y-100321247D02*
X141340714Y-100226009D01*
X141340714Y-100226009D02*
X141388333Y-100178390D01*
X141388333Y-100178390D02*
X141483571Y-100130771D01*
X141483571Y-100130771D02*
X141674047Y-100130771D01*
X141674047Y-100130771D02*
X141769285Y-100178390D01*
X141769285Y-100178390D02*
X141816904Y-100226009D01*
X141816904Y-100226009D02*
X141864523Y-100321247D01*
X153979285Y-122359819D02*
X153979285Y-121359819D01*
X153979285Y-121359819D02*
X153741190Y-121359819D01*
X153741190Y-121359819D02*
X153598333Y-121407438D01*
X153598333Y-121407438D02*
X153503095Y-121502676D01*
X153503095Y-121502676D02*
X153455476Y-121597914D01*
X153455476Y-121597914D02*
X153407857Y-121788390D01*
X153407857Y-121788390D02*
X153407857Y-121931247D01*
X153407857Y-121931247D02*
X153455476Y-122121723D01*
X153455476Y-122121723D02*
X153503095Y-122216961D01*
X153503095Y-122216961D02*
X153598333Y-122312200D01*
X153598333Y-122312200D02*
X153741190Y-122359819D01*
X153741190Y-122359819D02*
X153979285Y-122359819D01*
X152455476Y-122359819D02*
X153026904Y-122359819D01*
X152741190Y-122359819D02*
X152741190Y-121359819D01*
X152741190Y-121359819D02*
X152836428Y-121502676D01*
X152836428Y-121502676D02*
X152931666Y-121597914D01*
X152931666Y-121597914D02*
X153026904Y-121645533D01*
X152074523Y-121455057D02*
X152026904Y-121407438D01*
X152026904Y-121407438D02*
X151931666Y-121359819D01*
X151931666Y-121359819D02*
X151693571Y-121359819D01*
X151693571Y-121359819D02*
X151598333Y-121407438D01*
X151598333Y-121407438D02*
X151550714Y-121455057D01*
X151550714Y-121455057D02*
X151503095Y-121550295D01*
X151503095Y-121550295D02*
X151503095Y-121645533D01*
X151503095Y-121645533D02*
X151550714Y-121788390D01*
X151550714Y-121788390D02*
X152122142Y-122359819D01*
X152122142Y-122359819D02*
X151503095Y-122359819D01*
X160179285Y-138479819D02*
X160179285Y-137479819D01*
X160179285Y-137479819D02*
X159941190Y-137479819D01*
X159941190Y-137479819D02*
X159798333Y-137527438D01*
X159798333Y-137527438D02*
X159703095Y-137622676D01*
X159703095Y-137622676D02*
X159655476Y-137717914D01*
X159655476Y-137717914D02*
X159607857Y-137908390D01*
X159607857Y-137908390D02*
X159607857Y-138051247D01*
X159607857Y-138051247D02*
X159655476Y-138241723D01*
X159655476Y-138241723D02*
X159703095Y-138336961D01*
X159703095Y-138336961D02*
X159798333Y-138432200D01*
X159798333Y-138432200D02*
X159941190Y-138479819D01*
X159941190Y-138479819D02*
X160179285Y-138479819D01*
X158655476Y-138479819D02*
X159226904Y-138479819D01*
X158941190Y-138479819D02*
X158941190Y-137479819D01*
X158941190Y-137479819D02*
X159036428Y-137622676D01*
X159036428Y-137622676D02*
X159131666Y-137717914D01*
X159131666Y-137717914D02*
X159226904Y-137765533D01*
X157798333Y-137479819D02*
X157988809Y-137479819D01*
X157988809Y-137479819D02*
X158084047Y-137527438D01*
X158084047Y-137527438D02*
X158131666Y-137575057D01*
X158131666Y-137575057D02*
X158226904Y-137717914D01*
X158226904Y-137717914D02*
X158274523Y-137908390D01*
X158274523Y-137908390D02*
X158274523Y-138289342D01*
X158274523Y-138289342D02*
X158226904Y-138384580D01*
X158226904Y-138384580D02*
X158179285Y-138432200D01*
X158179285Y-138432200D02*
X158084047Y-138479819D01*
X158084047Y-138479819D02*
X157893571Y-138479819D01*
X157893571Y-138479819D02*
X157798333Y-138432200D01*
X157798333Y-138432200D02*
X157750714Y-138384580D01*
X157750714Y-138384580D02*
X157703095Y-138289342D01*
X157703095Y-138289342D02*
X157703095Y-138051247D01*
X157703095Y-138051247D02*
X157750714Y-137956009D01*
X157750714Y-137956009D02*
X157798333Y-137908390D01*
X157798333Y-137908390D02*
X157893571Y-137860771D01*
X157893571Y-137860771D02*
X158084047Y-137860771D01*
X158084047Y-137860771D02*
X158179285Y-137908390D01*
X158179285Y-137908390D02*
X158226904Y-137956009D01*
X158226904Y-137956009D02*
X158274523Y-138051247D01*
X94511666Y-106889819D02*
X94844999Y-106413628D01*
X95083094Y-106889819D02*
X95083094Y-105889819D01*
X95083094Y-105889819D02*
X94702142Y-105889819D01*
X94702142Y-105889819D02*
X94606904Y-105937438D01*
X94606904Y-105937438D02*
X94559285Y-105985057D01*
X94559285Y-105985057D02*
X94511666Y-106080295D01*
X94511666Y-106080295D02*
X94511666Y-106223152D01*
X94511666Y-106223152D02*
X94559285Y-106318390D01*
X94559285Y-106318390D02*
X94606904Y-106366009D01*
X94606904Y-106366009D02*
X94702142Y-106413628D01*
X94702142Y-106413628D02*
X95083094Y-106413628D01*
X94178332Y-105889819D02*
X93511666Y-105889819D01*
X93511666Y-105889819D02*
X93940237Y-106889819D01*
X124636904Y-109879819D02*
X124636904Y-110689342D01*
X124636904Y-110689342D02*
X124589285Y-110784580D01*
X124589285Y-110784580D02*
X124541666Y-110832200D01*
X124541666Y-110832200D02*
X124446428Y-110879819D01*
X124446428Y-110879819D02*
X124255952Y-110879819D01*
X124255952Y-110879819D02*
X124160714Y-110832200D01*
X124160714Y-110832200D02*
X124113095Y-110784580D01*
X124113095Y-110784580D02*
X124065476Y-110689342D01*
X124065476Y-110689342D02*
X124065476Y-109879819D01*
X123684523Y-109879819D02*
X123065476Y-109879819D01*
X123065476Y-109879819D02*
X123398809Y-110260771D01*
X123398809Y-110260771D02*
X123255952Y-110260771D01*
X123255952Y-110260771D02*
X123160714Y-110308390D01*
X123160714Y-110308390D02*
X123113095Y-110356009D01*
X123113095Y-110356009D02*
X123065476Y-110451247D01*
X123065476Y-110451247D02*
X123065476Y-110689342D01*
X123065476Y-110689342D02*
X123113095Y-110784580D01*
X123113095Y-110784580D02*
X123160714Y-110832200D01*
X123160714Y-110832200D02*
X123255952Y-110879819D01*
X123255952Y-110879819D02*
X123541666Y-110879819D01*
X123541666Y-110879819D02*
X123636904Y-110832200D01*
X123636904Y-110832200D02*
X123684523Y-110784580D01*
X155776009Y-47852619D02*
X155823628Y-47995476D01*
X155823628Y-47995476D02*
X155871247Y-48043095D01*
X155871247Y-48043095D02*
X155966485Y-48090714D01*
X155966485Y-48090714D02*
X156109342Y-48090714D01*
X156109342Y-48090714D02*
X156204580Y-48043095D01*
X156204580Y-48043095D02*
X156252200Y-47995476D01*
X156252200Y-47995476D02*
X156299819Y-47900238D01*
X156299819Y-47900238D02*
X156299819Y-47519286D01*
X156299819Y-47519286D02*
X155299819Y-47519286D01*
X155299819Y-47519286D02*
X155299819Y-47852619D01*
X155299819Y-47852619D02*
X155347438Y-47947857D01*
X155347438Y-47947857D02*
X155395057Y-47995476D01*
X155395057Y-47995476D02*
X155490295Y-48043095D01*
X155490295Y-48043095D02*
X155585533Y-48043095D01*
X155585533Y-48043095D02*
X155680771Y-47995476D01*
X155680771Y-47995476D02*
X155728390Y-47947857D01*
X155728390Y-47947857D02*
X155776009Y-47852619D01*
X155776009Y-47852619D02*
X155776009Y-47519286D01*
X156252200Y-48471667D02*
X156299819Y-48614524D01*
X156299819Y-48614524D02*
X156299819Y-48852619D01*
X156299819Y-48852619D02*
X156252200Y-48947857D01*
X156252200Y-48947857D02*
X156204580Y-48995476D01*
X156204580Y-48995476D02*
X156109342Y-49043095D01*
X156109342Y-49043095D02*
X156014104Y-49043095D01*
X156014104Y-49043095D02*
X155918866Y-48995476D01*
X155918866Y-48995476D02*
X155871247Y-48947857D01*
X155871247Y-48947857D02*
X155823628Y-48852619D01*
X155823628Y-48852619D02*
X155776009Y-48662143D01*
X155776009Y-48662143D02*
X155728390Y-48566905D01*
X155728390Y-48566905D02*
X155680771Y-48519286D01*
X155680771Y-48519286D02*
X155585533Y-48471667D01*
X155585533Y-48471667D02*
X155490295Y-48471667D01*
X155490295Y-48471667D02*
X155395057Y-48519286D01*
X155395057Y-48519286D02*
X155347438Y-48566905D01*
X155347438Y-48566905D02*
X155299819Y-48662143D01*
X155299819Y-48662143D02*
X155299819Y-48900238D01*
X155299819Y-48900238D02*
X155347438Y-49043095D01*
X155299819Y-49376429D02*
X156299819Y-49614524D01*
X156299819Y-49614524D02*
X155585533Y-49805000D01*
X155585533Y-49805000D02*
X156299819Y-49995476D01*
X156299819Y-49995476D02*
X155299819Y-50233572D01*
X156299819Y-51138333D02*
X156299819Y-50566905D01*
X156299819Y-50852619D02*
X155299819Y-50852619D01*
X155299819Y-50852619D02*
X155442676Y-50757381D01*
X155442676Y-50757381D02*
X155537914Y-50662143D01*
X155537914Y-50662143D02*
X155585533Y-50566905D01*
X150422142Y-53326009D02*
X150279285Y-53373628D01*
X150279285Y-53373628D02*
X150231666Y-53421247D01*
X150231666Y-53421247D02*
X150184047Y-53516485D01*
X150184047Y-53516485D02*
X150184047Y-53659342D01*
X150184047Y-53659342D02*
X150231666Y-53754580D01*
X150231666Y-53754580D02*
X150279285Y-53802200D01*
X150279285Y-53802200D02*
X150374523Y-53849819D01*
X150374523Y-53849819D02*
X150755475Y-53849819D01*
X150755475Y-53849819D02*
X150755475Y-52849819D01*
X150755475Y-52849819D02*
X150422142Y-52849819D01*
X150422142Y-52849819D02*
X150326904Y-52897438D01*
X150326904Y-52897438D02*
X150279285Y-52945057D01*
X150279285Y-52945057D02*
X150231666Y-53040295D01*
X150231666Y-53040295D02*
X150231666Y-53135533D01*
X150231666Y-53135533D02*
X150279285Y-53230771D01*
X150279285Y-53230771D02*
X150326904Y-53278390D01*
X150326904Y-53278390D02*
X150422142Y-53326009D01*
X150422142Y-53326009D02*
X150755475Y-53326009D01*
X149564999Y-52849819D02*
X149374523Y-52849819D01*
X149374523Y-52849819D02*
X149279285Y-52897438D01*
X149279285Y-52897438D02*
X149184047Y-52992676D01*
X149184047Y-52992676D02*
X149136428Y-53183152D01*
X149136428Y-53183152D02*
X149136428Y-53516485D01*
X149136428Y-53516485D02*
X149184047Y-53706961D01*
X149184047Y-53706961D02*
X149279285Y-53802200D01*
X149279285Y-53802200D02*
X149374523Y-53849819D01*
X149374523Y-53849819D02*
X149564999Y-53849819D01*
X149564999Y-53849819D02*
X149660237Y-53802200D01*
X149660237Y-53802200D02*
X149755475Y-53706961D01*
X149755475Y-53706961D02*
X149803094Y-53516485D01*
X149803094Y-53516485D02*
X149803094Y-53183152D01*
X149803094Y-53183152D02*
X149755475Y-52992676D01*
X149755475Y-52992676D02*
X149660237Y-52897438D01*
X149660237Y-52897438D02*
X149564999Y-52849819D01*
X148517380Y-52849819D02*
X148326904Y-52849819D01*
X148326904Y-52849819D02*
X148231666Y-52897438D01*
X148231666Y-52897438D02*
X148136428Y-52992676D01*
X148136428Y-52992676D02*
X148088809Y-53183152D01*
X148088809Y-53183152D02*
X148088809Y-53516485D01*
X148088809Y-53516485D02*
X148136428Y-53706961D01*
X148136428Y-53706961D02*
X148231666Y-53802200D01*
X148231666Y-53802200D02*
X148326904Y-53849819D01*
X148326904Y-53849819D02*
X148517380Y-53849819D01*
X148517380Y-53849819D02*
X148612618Y-53802200D01*
X148612618Y-53802200D02*
X148707856Y-53706961D01*
X148707856Y-53706961D02*
X148755475Y-53516485D01*
X148755475Y-53516485D02*
X148755475Y-53183152D01*
X148755475Y-53183152D02*
X148707856Y-52992676D01*
X148707856Y-52992676D02*
X148612618Y-52897438D01*
X148612618Y-52897438D02*
X148517380Y-52849819D01*
X147803094Y-52849819D02*
X147231666Y-52849819D01*
X147517380Y-53849819D02*
X147517380Y-52849819D01*
X119881666Y-61124580D02*
X119929285Y-61172200D01*
X119929285Y-61172200D02*
X120072142Y-61219819D01*
X120072142Y-61219819D02*
X120167380Y-61219819D01*
X120167380Y-61219819D02*
X120310237Y-61172200D01*
X120310237Y-61172200D02*
X120405475Y-61076961D01*
X120405475Y-61076961D02*
X120453094Y-60981723D01*
X120453094Y-60981723D02*
X120500713Y-60791247D01*
X120500713Y-60791247D02*
X120500713Y-60648390D01*
X120500713Y-60648390D02*
X120453094Y-60457914D01*
X120453094Y-60457914D02*
X120405475Y-60362676D01*
X120405475Y-60362676D02*
X120310237Y-60267438D01*
X120310237Y-60267438D02*
X120167380Y-60219819D01*
X120167380Y-60219819D02*
X120072142Y-60219819D01*
X120072142Y-60219819D02*
X119929285Y-60267438D01*
X119929285Y-60267438D02*
X119881666Y-60315057D01*
X119548332Y-60219819D02*
X118881666Y-60219819D01*
X118881666Y-60219819D02*
X119310237Y-61219819D01*
X90733094Y-70629819D02*
X90733094Y-69629819D01*
X90733094Y-69629819D02*
X90494999Y-69629819D01*
X90494999Y-69629819D02*
X90352142Y-69677438D01*
X90352142Y-69677438D02*
X90256904Y-69772676D01*
X90256904Y-69772676D02*
X90209285Y-69867914D01*
X90209285Y-69867914D02*
X90161666Y-70058390D01*
X90161666Y-70058390D02*
X90161666Y-70201247D01*
X90161666Y-70201247D02*
X90209285Y-70391723D01*
X90209285Y-70391723D02*
X90256904Y-70486961D01*
X90256904Y-70486961D02*
X90352142Y-70582200D01*
X90352142Y-70582200D02*
X90494999Y-70629819D01*
X90494999Y-70629819D02*
X90733094Y-70629819D01*
X89209285Y-70629819D02*
X89780713Y-70629819D01*
X89494999Y-70629819D02*
X89494999Y-69629819D01*
X89494999Y-69629819D02*
X89590237Y-69772676D01*
X89590237Y-69772676D02*
X89685475Y-69867914D01*
X89685475Y-69867914D02*
X89780713Y-69915533D01*
X135092857Y-105544580D02*
X135140476Y-105592200D01*
X135140476Y-105592200D02*
X135283333Y-105639819D01*
X135283333Y-105639819D02*
X135378571Y-105639819D01*
X135378571Y-105639819D02*
X135521428Y-105592200D01*
X135521428Y-105592200D02*
X135616666Y-105496961D01*
X135616666Y-105496961D02*
X135664285Y-105401723D01*
X135664285Y-105401723D02*
X135711904Y-105211247D01*
X135711904Y-105211247D02*
X135711904Y-105068390D01*
X135711904Y-105068390D02*
X135664285Y-104877914D01*
X135664285Y-104877914D02*
X135616666Y-104782676D01*
X135616666Y-104782676D02*
X135521428Y-104687438D01*
X135521428Y-104687438D02*
X135378571Y-104639819D01*
X135378571Y-104639819D02*
X135283333Y-104639819D01*
X135283333Y-104639819D02*
X135140476Y-104687438D01*
X135140476Y-104687438D02*
X135092857Y-104735057D01*
X134711904Y-104735057D02*
X134664285Y-104687438D01*
X134664285Y-104687438D02*
X134569047Y-104639819D01*
X134569047Y-104639819D02*
X134330952Y-104639819D01*
X134330952Y-104639819D02*
X134235714Y-104687438D01*
X134235714Y-104687438D02*
X134188095Y-104735057D01*
X134188095Y-104735057D02*
X134140476Y-104830295D01*
X134140476Y-104830295D02*
X134140476Y-104925533D01*
X134140476Y-104925533D02*
X134188095Y-105068390D01*
X134188095Y-105068390D02*
X134759523Y-105639819D01*
X134759523Y-105639819D02*
X134140476Y-105639819D01*
X133188095Y-105639819D02*
X133759523Y-105639819D01*
X133473809Y-105639819D02*
X133473809Y-104639819D01*
X133473809Y-104639819D02*
X133569047Y-104782676D01*
X133569047Y-104782676D02*
X133664285Y-104877914D01*
X133664285Y-104877914D02*
X133759523Y-104925533D01*
X102749285Y-138009819D02*
X102749285Y-137009819D01*
X102749285Y-137009819D02*
X102511190Y-137009819D01*
X102511190Y-137009819D02*
X102368333Y-137057438D01*
X102368333Y-137057438D02*
X102273095Y-137152676D01*
X102273095Y-137152676D02*
X102225476Y-137247914D01*
X102225476Y-137247914D02*
X102177857Y-137438390D01*
X102177857Y-137438390D02*
X102177857Y-137581247D01*
X102177857Y-137581247D02*
X102225476Y-137771723D01*
X102225476Y-137771723D02*
X102273095Y-137866961D01*
X102273095Y-137866961D02*
X102368333Y-137962200D01*
X102368333Y-137962200D02*
X102511190Y-138009819D01*
X102511190Y-138009819D02*
X102749285Y-138009819D01*
X101225476Y-138009819D02*
X101796904Y-138009819D01*
X101511190Y-138009819D02*
X101511190Y-137009819D01*
X101511190Y-137009819D02*
X101606428Y-137152676D01*
X101606428Y-137152676D02*
X101701666Y-137247914D01*
X101701666Y-137247914D02*
X101796904Y-137295533D01*
X100892142Y-137009819D02*
X100273095Y-137009819D01*
X100273095Y-137009819D02*
X100606428Y-137390771D01*
X100606428Y-137390771D02*
X100463571Y-137390771D01*
X100463571Y-137390771D02*
X100368333Y-137438390D01*
X100368333Y-137438390D02*
X100320714Y-137486009D01*
X100320714Y-137486009D02*
X100273095Y-137581247D01*
X100273095Y-137581247D02*
X100273095Y-137819342D01*
X100273095Y-137819342D02*
X100320714Y-137914580D01*
X100320714Y-137914580D02*
X100368333Y-137962200D01*
X100368333Y-137962200D02*
X100463571Y-138009819D01*
X100463571Y-138009819D02*
X100749285Y-138009819D01*
X100749285Y-138009819D02*
X100844523Y-137962200D01*
X100844523Y-137962200D02*
X100892142Y-137914580D01*
X95503094Y-122019819D02*
X95503094Y-121019819D01*
X95503094Y-121019819D02*
X95264999Y-121019819D01*
X95264999Y-121019819D02*
X95122142Y-121067438D01*
X95122142Y-121067438D02*
X95026904Y-121162676D01*
X95026904Y-121162676D02*
X94979285Y-121257914D01*
X94979285Y-121257914D02*
X94931666Y-121448390D01*
X94931666Y-121448390D02*
X94931666Y-121591247D01*
X94931666Y-121591247D02*
X94979285Y-121781723D01*
X94979285Y-121781723D02*
X95026904Y-121876961D01*
X95026904Y-121876961D02*
X95122142Y-121972200D01*
X95122142Y-121972200D02*
X95264999Y-122019819D01*
X95264999Y-122019819D02*
X95503094Y-122019819D01*
X94455475Y-122019819D02*
X94264999Y-122019819D01*
X94264999Y-122019819D02*
X94169761Y-121972200D01*
X94169761Y-121972200D02*
X94122142Y-121924580D01*
X94122142Y-121924580D02*
X94026904Y-121781723D01*
X94026904Y-121781723D02*
X93979285Y-121591247D01*
X93979285Y-121591247D02*
X93979285Y-121210295D01*
X93979285Y-121210295D02*
X94026904Y-121115057D01*
X94026904Y-121115057D02*
X94074523Y-121067438D01*
X94074523Y-121067438D02*
X94169761Y-121019819D01*
X94169761Y-121019819D02*
X94360237Y-121019819D01*
X94360237Y-121019819D02*
X94455475Y-121067438D01*
X94455475Y-121067438D02*
X94503094Y-121115057D01*
X94503094Y-121115057D02*
X94550713Y-121210295D01*
X94550713Y-121210295D02*
X94550713Y-121448390D01*
X94550713Y-121448390D02*
X94503094Y-121543628D01*
X94503094Y-121543628D02*
X94455475Y-121591247D01*
X94455475Y-121591247D02*
X94360237Y-121638866D01*
X94360237Y-121638866D02*
X94169761Y-121638866D01*
X94169761Y-121638866D02*
X94074523Y-121591247D01*
X94074523Y-121591247D02*
X94026904Y-121543628D01*
X94026904Y-121543628D02*
X93979285Y-121448390D01*
X91034580Y-61838333D02*
X91082200Y-61790714D01*
X91082200Y-61790714D02*
X91129819Y-61647857D01*
X91129819Y-61647857D02*
X91129819Y-61552619D01*
X91129819Y-61552619D02*
X91082200Y-61409762D01*
X91082200Y-61409762D02*
X90986961Y-61314524D01*
X90986961Y-61314524D02*
X90891723Y-61266905D01*
X90891723Y-61266905D02*
X90701247Y-61219286D01*
X90701247Y-61219286D02*
X90558390Y-61219286D01*
X90558390Y-61219286D02*
X90367914Y-61266905D01*
X90367914Y-61266905D02*
X90272676Y-61314524D01*
X90272676Y-61314524D02*
X90177438Y-61409762D01*
X90177438Y-61409762D02*
X90129819Y-61552619D01*
X90129819Y-61552619D02*
X90129819Y-61647857D01*
X90129819Y-61647857D02*
X90177438Y-61790714D01*
X90177438Y-61790714D02*
X90225057Y-61838333D01*
X90225057Y-62219286D02*
X90177438Y-62266905D01*
X90177438Y-62266905D02*
X90129819Y-62362143D01*
X90129819Y-62362143D02*
X90129819Y-62600238D01*
X90129819Y-62600238D02*
X90177438Y-62695476D01*
X90177438Y-62695476D02*
X90225057Y-62743095D01*
X90225057Y-62743095D02*
X90320295Y-62790714D01*
X90320295Y-62790714D02*
X90415533Y-62790714D01*
X90415533Y-62790714D02*
X90558390Y-62743095D01*
X90558390Y-62743095D02*
X91129819Y-62171667D01*
X91129819Y-62171667D02*
X91129819Y-62790714D01*
X151599819Y-42362142D02*
X151123628Y-42028809D01*
X151599819Y-41790714D02*
X150599819Y-41790714D01*
X150599819Y-41790714D02*
X150599819Y-42171666D01*
X150599819Y-42171666D02*
X150647438Y-42266904D01*
X150647438Y-42266904D02*
X150695057Y-42314523D01*
X150695057Y-42314523D02*
X150790295Y-42362142D01*
X150790295Y-42362142D02*
X150933152Y-42362142D01*
X150933152Y-42362142D02*
X151028390Y-42314523D01*
X151028390Y-42314523D02*
X151076009Y-42266904D01*
X151076009Y-42266904D02*
X151123628Y-42171666D01*
X151123628Y-42171666D02*
X151123628Y-41790714D01*
X151599819Y-43314523D02*
X151599819Y-42743095D01*
X151599819Y-43028809D02*
X150599819Y-43028809D01*
X150599819Y-43028809D02*
X150742676Y-42933571D01*
X150742676Y-42933571D02*
X150837914Y-42838333D01*
X150837914Y-42838333D02*
X150885533Y-42743095D01*
X151599819Y-44266904D02*
X151599819Y-43695476D01*
X151599819Y-43981190D02*
X150599819Y-43981190D01*
X150599819Y-43981190D02*
X150742676Y-43885952D01*
X150742676Y-43885952D02*
X150837914Y-43790714D01*
X150837914Y-43790714D02*
X150885533Y-43695476D01*
X119846666Y-63649819D02*
X120179999Y-63173628D01*
X120418094Y-63649819D02*
X120418094Y-62649819D01*
X120418094Y-62649819D02*
X120037142Y-62649819D01*
X120037142Y-62649819D02*
X119941904Y-62697438D01*
X119941904Y-62697438D02*
X119894285Y-62745057D01*
X119894285Y-62745057D02*
X119846666Y-62840295D01*
X119846666Y-62840295D02*
X119846666Y-62983152D01*
X119846666Y-62983152D02*
X119894285Y-63078390D01*
X119894285Y-63078390D02*
X119941904Y-63126009D01*
X119941904Y-63126009D02*
X120037142Y-63173628D01*
X120037142Y-63173628D02*
X120418094Y-63173628D01*
X118989523Y-62649819D02*
X119179999Y-62649819D01*
X119179999Y-62649819D02*
X119275237Y-62697438D01*
X119275237Y-62697438D02*
X119322856Y-62745057D01*
X119322856Y-62745057D02*
X119418094Y-62887914D01*
X119418094Y-62887914D02*
X119465713Y-63078390D01*
X119465713Y-63078390D02*
X119465713Y-63459342D01*
X119465713Y-63459342D02*
X119418094Y-63554580D01*
X119418094Y-63554580D02*
X119370475Y-63602200D01*
X119370475Y-63602200D02*
X119275237Y-63649819D01*
X119275237Y-63649819D02*
X119084761Y-63649819D01*
X119084761Y-63649819D02*
X118989523Y-63602200D01*
X118989523Y-63602200D02*
X118941904Y-63554580D01*
X118941904Y-63554580D02*
X118894285Y-63459342D01*
X118894285Y-63459342D02*
X118894285Y-63221247D01*
X118894285Y-63221247D02*
X118941904Y-63126009D01*
X118941904Y-63126009D02*
X118989523Y-63078390D01*
X118989523Y-63078390D02*
X119084761Y-63030771D01*
X119084761Y-63030771D02*
X119275237Y-63030771D01*
X119275237Y-63030771D02*
X119370475Y-63078390D01*
X119370475Y-63078390D02*
X119418094Y-63126009D01*
X119418094Y-63126009D02*
X119465713Y-63221247D01*
X137214580Y-109332142D02*
X137262200Y-109284523D01*
X137262200Y-109284523D02*
X137309819Y-109141666D01*
X137309819Y-109141666D02*
X137309819Y-109046428D01*
X137309819Y-109046428D02*
X137262200Y-108903571D01*
X137262200Y-108903571D02*
X137166961Y-108808333D01*
X137166961Y-108808333D02*
X137071723Y-108760714D01*
X137071723Y-108760714D02*
X136881247Y-108713095D01*
X136881247Y-108713095D02*
X136738390Y-108713095D01*
X136738390Y-108713095D02*
X136547914Y-108760714D01*
X136547914Y-108760714D02*
X136452676Y-108808333D01*
X136452676Y-108808333D02*
X136357438Y-108903571D01*
X136357438Y-108903571D02*
X136309819Y-109046428D01*
X136309819Y-109046428D02*
X136309819Y-109141666D01*
X136309819Y-109141666D02*
X136357438Y-109284523D01*
X136357438Y-109284523D02*
X136405057Y-109332142D01*
X137309819Y-110284523D02*
X137309819Y-109713095D01*
X137309819Y-109998809D02*
X136309819Y-109998809D01*
X136309819Y-109998809D02*
X136452676Y-109903571D01*
X136452676Y-109903571D02*
X136547914Y-109808333D01*
X136547914Y-109808333D02*
X136595533Y-109713095D01*
X136643152Y-111141666D02*
X137309819Y-111141666D01*
X136262200Y-110903571D02*
X136976485Y-110665476D01*
X136976485Y-110665476D02*
X136976485Y-111284523D01*
X116677857Y-99824580D02*
X116725476Y-99872200D01*
X116725476Y-99872200D02*
X116868333Y-99919819D01*
X116868333Y-99919819D02*
X116963571Y-99919819D01*
X116963571Y-99919819D02*
X117106428Y-99872200D01*
X117106428Y-99872200D02*
X117201666Y-99776961D01*
X117201666Y-99776961D02*
X117249285Y-99681723D01*
X117249285Y-99681723D02*
X117296904Y-99491247D01*
X117296904Y-99491247D02*
X117296904Y-99348390D01*
X117296904Y-99348390D02*
X117249285Y-99157914D01*
X117249285Y-99157914D02*
X117201666Y-99062676D01*
X117201666Y-99062676D02*
X117106428Y-98967438D01*
X117106428Y-98967438D02*
X116963571Y-98919819D01*
X116963571Y-98919819D02*
X116868333Y-98919819D01*
X116868333Y-98919819D02*
X116725476Y-98967438D01*
X116725476Y-98967438D02*
X116677857Y-99015057D01*
X115725476Y-99919819D02*
X116296904Y-99919819D01*
X116011190Y-99919819D02*
X116011190Y-98919819D01*
X116011190Y-98919819D02*
X116106428Y-99062676D01*
X116106428Y-99062676D02*
X116201666Y-99157914D01*
X116201666Y-99157914D02*
X116296904Y-99205533D01*
X115392142Y-98919819D02*
X114725476Y-98919819D01*
X114725476Y-98919819D02*
X115154047Y-99919819D01*
X119896666Y-65589819D02*
X120229999Y-65113628D01*
X120468094Y-65589819D02*
X120468094Y-64589819D01*
X120468094Y-64589819D02*
X120087142Y-64589819D01*
X120087142Y-64589819D02*
X119991904Y-64637438D01*
X119991904Y-64637438D02*
X119944285Y-64685057D01*
X119944285Y-64685057D02*
X119896666Y-64780295D01*
X119896666Y-64780295D02*
X119896666Y-64923152D01*
X119896666Y-64923152D02*
X119944285Y-65018390D01*
X119944285Y-65018390D02*
X119991904Y-65066009D01*
X119991904Y-65066009D02*
X120087142Y-65113628D01*
X120087142Y-65113628D02*
X120468094Y-65113628D01*
X118991904Y-64589819D02*
X119468094Y-64589819D01*
X119468094Y-64589819D02*
X119515713Y-65066009D01*
X119515713Y-65066009D02*
X119468094Y-65018390D01*
X119468094Y-65018390D02*
X119372856Y-64970771D01*
X119372856Y-64970771D02*
X119134761Y-64970771D01*
X119134761Y-64970771D02*
X119039523Y-65018390D01*
X119039523Y-65018390D02*
X118991904Y-65066009D01*
X118991904Y-65066009D02*
X118944285Y-65161247D01*
X118944285Y-65161247D02*
X118944285Y-65399342D01*
X118944285Y-65399342D02*
X118991904Y-65494580D01*
X118991904Y-65494580D02*
X119039523Y-65542200D01*
X119039523Y-65542200D02*
X119134761Y-65589819D01*
X119134761Y-65589819D02*
X119372856Y-65589819D01*
X119372856Y-65589819D02*
X119468094Y-65542200D01*
X119468094Y-65542200D02*
X119515713Y-65494580D01*
X145829819Y-42282142D02*
X145353628Y-41948809D01*
X145829819Y-41710714D02*
X144829819Y-41710714D01*
X144829819Y-41710714D02*
X144829819Y-42091666D01*
X144829819Y-42091666D02*
X144877438Y-42186904D01*
X144877438Y-42186904D02*
X144925057Y-42234523D01*
X144925057Y-42234523D02*
X145020295Y-42282142D01*
X145020295Y-42282142D02*
X145163152Y-42282142D01*
X145163152Y-42282142D02*
X145258390Y-42234523D01*
X145258390Y-42234523D02*
X145306009Y-42186904D01*
X145306009Y-42186904D02*
X145353628Y-42091666D01*
X145353628Y-42091666D02*
X145353628Y-41710714D01*
X145829819Y-43234523D02*
X145829819Y-42663095D01*
X145829819Y-42948809D02*
X144829819Y-42948809D01*
X144829819Y-42948809D02*
X144972676Y-42853571D01*
X144972676Y-42853571D02*
X145067914Y-42758333D01*
X145067914Y-42758333D02*
X145115533Y-42663095D01*
X144829819Y-43853571D02*
X144829819Y-43948809D01*
X144829819Y-43948809D02*
X144877438Y-44044047D01*
X144877438Y-44044047D02*
X144925057Y-44091666D01*
X144925057Y-44091666D02*
X145020295Y-44139285D01*
X145020295Y-44139285D02*
X145210771Y-44186904D01*
X145210771Y-44186904D02*
X145448866Y-44186904D01*
X145448866Y-44186904D02*
X145639342Y-44139285D01*
X145639342Y-44139285D02*
X145734580Y-44091666D01*
X145734580Y-44091666D02*
X145782200Y-44044047D01*
X145782200Y-44044047D02*
X145829819Y-43948809D01*
X145829819Y-43948809D02*
X145829819Y-43853571D01*
X145829819Y-43853571D02*
X145782200Y-43758333D01*
X145782200Y-43758333D02*
X145734580Y-43710714D01*
X145734580Y-43710714D02*
X145639342Y-43663095D01*
X145639342Y-43663095D02*
X145448866Y-43615476D01*
X145448866Y-43615476D02*
X145210771Y-43615476D01*
X145210771Y-43615476D02*
X145020295Y-43663095D01*
X145020295Y-43663095D02*
X144925057Y-43710714D01*
X144925057Y-43710714D02*
X144877438Y-43758333D01*
X144877438Y-43758333D02*
X144829819Y-43853571D01*
X106124580Y-53128333D02*
X106172200Y-53080714D01*
X106172200Y-53080714D02*
X106219819Y-52937857D01*
X106219819Y-52937857D02*
X106219819Y-52842619D01*
X106219819Y-52842619D02*
X106172200Y-52699762D01*
X106172200Y-52699762D02*
X106076961Y-52604524D01*
X106076961Y-52604524D02*
X105981723Y-52556905D01*
X105981723Y-52556905D02*
X105791247Y-52509286D01*
X105791247Y-52509286D02*
X105648390Y-52509286D01*
X105648390Y-52509286D02*
X105457914Y-52556905D01*
X105457914Y-52556905D02*
X105362676Y-52604524D01*
X105362676Y-52604524D02*
X105267438Y-52699762D01*
X105267438Y-52699762D02*
X105219819Y-52842619D01*
X105219819Y-52842619D02*
X105219819Y-52937857D01*
X105219819Y-52937857D02*
X105267438Y-53080714D01*
X105267438Y-53080714D02*
X105315057Y-53128333D01*
X105648390Y-53699762D02*
X105600771Y-53604524D01*
X105600771Y-53604524D02*
X105553152Y-53556905D01*
X105553152Y-53556905D02*
X105457914Y-53509286D01*
X105457914Y-53509286D02*
X105410295Y-53509286D01*
X105410295Y-53509286D02*
X105315057Y-53556905D01*
X105315057Y-53556905D02*
X105267438Y-53604524D01*
X105267438Y-53604524D02*
X105219819Y-53699762D01*
X105219819Y-53699762D02*
X105219819Y-53890238D01*
X105219819Y-53890238D02*
X105267438Y-53985476D01*
X105267438Y-53985476D02*
X105315057Y-54033095D01*
X105315057Y-54033095D02*
X105410295Y-54080714D01*
X105410295Y-54080714D02*
X105457914Y-54080714D01*
X105457914Y-54080714D02*
X105553152Y-54033095D01*
X105553152Y-54033095D02*
X105600771Y-53985476D01*
X105600771Y-53985476D02*
X105648390Y-53890238D01*
X105648390Y-53890238D02*
X105648390Y-53699762D01*
X105648390Y-53699762D02*
X105696009Y-53604524D01*
X105696009Y-53604524D02*
X105743628Y-53556905D01*
X105743628Y-53556905D02*
X105838866Y-53509286D01*
X105838866Y-53509286D02*
X106029342Y-53509286D01*
X106029342Y-53509286D02*
X106124580Y-53556905D01*
X106124580Y-53556905D02*
X106172200Y-53604524D01*
X106172200Y-53604524D02*
X106219819Y-53699762D01*
X106219819Y-53699762D02*
X106219819Y-53890238D01*
X106219819Y-53890238D02*
X106172200Y-53985476D01*
X106172200Y-53985476D02*
X106124580Y-54033095D01*
X106124580Y-54033095D02*
X106029342Y-54080714D01*
X106029342Y-54080714D02*
X105838866Y-54080714D01*
X105838866Y-54080714D02*
X105743628Y-54033095D01*
X105743628Y-54033095D02*
X105696009Y-53985476D01*
X105696009Y-53985476D02*
X105648390Y-53890238D01*
X113416904Y-65939819D02*
X113416904Y-66749342D01*
X113416904Y-66749342D02*
X113369285Y-66844580D01*
X113369285Y-66844580D02*
X113321666Y-66892200D01*
X113321666Y-66892200D02*
X113226428Y-66939819D01*
X113226428Y-66939819D02*
X113035952Y-66939819D01*
X113035952Y-66939819D02*
X112940714Y-66892200D01*
X112940714Y-66892200D02*
X112893095Y-66844580D01*
X112893095Y-66844580D02*
X112845476Y-66749342D01*
X112845476Y-66749342D02*
X112845476Y-65939819D01*
X111845476Y-66939819D02*
X112416904Y-66939819D01*
X112131190Y-66939819D02*
X112131190Y-65939819D01*
X112131190Y-65939819D02*
X112226428Y-66082676D01*
X112226428Y-66082676D02*
X112321666Y-66177914D01*
X112321666Y-66177914D02*
X112416904Y-66225533D01*
X130946904Y-65319819D02*
X130946904Y-66129342D01*
X130946904Y-66129342D02*
X130899285Y-66224580D01*
X130899285Y-66224580D02*
X130851666Y-66272200D01*
X130851666Y-66272200D02*
X130756428Y-66319819D01*
X130756428Y-66319819D02*
X130565952Y-66319819D01*
X130565952Y-66319819D02*
X130470714Y-66272200D01*
X130470714Y-66272200D02*
X130423095Y-66224580D01*
X130423095Y-66224580D02*
X130375476Y-66129342D01*
X130375476Y-66129342D02*
X130375476Y-65319819D01*
X129946904Y-65415057D02*
X129899285Y-65367438D01*
X129899285Y-65367438D02*
X129804047Y-65319819D01*
X129804047Y-65319819D02*
X129565952Y-65319819D01*
X129565952Y-65319819D02*
X129470714Y-65367438D01*
X129470714Y-65367438D02*
X129423095Y-65415057D01*
X129423095Y-65415057D02*
X129375476Y-65510295D01*
X129375476Y-65510295D02*
X129375476Y-65605533D01*
X129375476Y-65605533D02*
X129423095Y-65748390D01*
X129423095Y-65748390D02*
X129994523Y-66319819D01*
X129994523Y-66319819D02*
X129375476Y-66319819D01*
X147903094Y-70219819D02*
X147903094Y-69219819D01*
X147903094Y-69219819D02*
X147664999Y-69219819D01*
X147664999Y-69219819D02*
X147522142Y-69267438D01*
X147522142Y-69267438D02*
X147426904Y-69362676D01*
X147426904Y-69362676D02*
X147379285Y-69457914D01*
X147379285Y-69457914D02*
X147331666Y-69648390D01*
X147331666Y-69648390D02*
X147331666Y-69791247D01*
X147331666Y-69791247D02*
X147379285Y-69981723D01*
X147379285Y-69981723D02*
X147426904Y-70076961D01*
X147426904Y-70076961D02*
X147522142Y-70172200D01*
X147522142Y-70172200D02*
X147664999Y-70219819D01*
X147664999Y-70219819D02*
X147903094Y-70219819D01*
X146474523Y-69553152D02*
X146474523Y-70219819D01*
X146712618Y-69172200D02*
X146950713Y-69886485D01*
X146950713Y-69886485D02*
X146331666Y-69886485D01*
X99399819Y-104983095D02*
X100209342Y-104983095D01*
X100209342Y-104983095D02*
X100304580Y-105030714D01*
X100304580Y-105030714D02*
X100352200Y-105078333D01*
X100352200Y-105078333D02*
X100399819Y-105173571D01*
X100399819Y-105173571D02*
X100399819Y-105364047D01*
X100399819Y-105364047D02*
X100352200Y-105459285D01*
X100352200Y-105459285D02*
X100304580Y-105506904D01*
X100304580Y-105506904D02*
X100209342Y-105554523D01*
X100209342Y-105554523D02*
X99399819Y-105554523D01*
X99733152Y-106459285D02*
X100399819Y-106459285D01*
X99352200Y-106221190D02*
X100066485Y-105983095D01*
X100066485Y-105983095D02*
X100066485Y-106602142D01*
X123804580Y-95227142D02*
X123852200Y-95179523D01*
X123852200Y-95179523D02*
X123899819Y-95036666D01*
X123899819Y-95036666D02*
X123899819Y-94941428D01*
X123899819Y-94941428D02*
X123852200Y-94798571D01*
X123852200Y-94798571D02*
X123756961Y-94703333D01*
X123756961Y-94703333D02*
X123661723Y-94655714D01*
X123661723Y-94655714D02*
X123471247Y-94608095D01*
X123471247Y-94608095D02*
X123328390Y-94608095D01*
X123328390Y-94608095D02*
X123137914Y-94655714D01*
X123137914Y-94655714D02*
X123042676Y-94703333D01*
X123042676Y-94703333D02*
X122947438Y-94798571D01*
X122947438Y-94798571D02*
X122899819Y-94941428D01*
X122899819Y-94941428D02*
X122899819Y-95036666D01*
X122899819Y-95036666D02*
X122947438Y-95179523D01*
X122947438Y-95179523D02*
X122995057Y-95227142D01*
X122995057Y-95608095D02*
X122947438Y-95655714D01*
X122947438Y-95655714D02*
X122899819Y-95750952D01*
X122899819Y-95750952D02*
X122899819Y-95989047D01*
X122899819Y-95989047D02*
X122947438Y-96084285D01*
X122947438Y-96084285D02*
X122995057Y-96131904D01*
X122995057Y-96131904D02*
X123090295Y-96179523D01*
X123090295Y-96179523D02*
X123185533Y-96179523D01*
X123185533Y-96179523D02*
X123328390Y-96131904D01*
X123328390Y-96131904D02*
X123899819Y-95560476D01*
X123899819Y-95560476D02*
X123899819Y-96179523D01*
X122899819Y-96798571D02*
X122899819Y-96893809D01*
X122899819Y-96893809D02*
X122947438Y-96989047D01*
X122947438Y-96989047D02*
X122995057Y-97036666D01*
X122995057Y-97036666D02*
X123090295Y-97084285D01*
X123090295Y-97084285D02*
X123280771Y-97131904D01*
X123280771Y-97131904D02*
X123518866Y-97131904D01*
X123518866Y-97131904D02*
X123709342Y-97084285D01*
X123709342Y-97084285D02*
X123804580Y-97036666D01*
X123804580Y-97036666D02*
X123852200Y-96989047D01*
X123852200Y-96989047D02*
X123899819Y-96893809D01*
X123899819Y-96893809D02*
X123899819Y-96798571D01*
X123899819Y-96798571D02*
X123852200Y-96703333D01*
X123852200Y-96703333D02*
X123804580Y-96655714D01*
X123804580Y-96655714D02*
X123709342Y-96608095D01*
X123709342Y-96608095D02*
X123518866Y-96560476D01*
X123518866Y-96560476D02*
X123280771Y-96560476D01*
X123280771Y-96560476D02*
X123090295Y-96608095D01*
X123090295Y-96608095D02*
X122995057Y-96655714D01*
X122995057Y-96655714D02*
X122947438Y-96703333D01*
X122947438Y-96703333D02*
X122899819Y-96798571D01*
X88274580Y-61758333D02*
X88322200Y-61710714D01*
X88322200Y-61710714D02*
X88369819Y-61567857D01*
X88369819Y-61567857D02*
X88369819Y-61472619D01*
X88369819Y-61472619D02*
X88322200Y-61329762D01*
X88322200Y-61329762D02*
X88226961Y-61234524D01*
X88226961Y-61234524D02*
X88131723Y-61186905D01*
X88131723Y-61186905D02*
X87941247Y-61139286D01*
X87941247Y-61139286D02*
X87798390Y-61139286D01*
X87798390Y-61139286D02*
X87607914Y-61186905D01*
X87607914Y-61186905D02*
X87512676Y-61234524D01*
X87512676Y-61234524D02*
X87417438Y-61329762D01*
X87417438Y-61329762D02*
X87369819Y-61472619D01*
X87369819Y-61472619D02*
X87369819Y-61567857D01*
X87369819Y-61567857D02*
X87417438Y-61710714D01*
X87417438Y-61710714D02*
X87465057Y-61758333D01*
X88369819Y-62710714D02*
X88369819Y-62139286D01*
X88369819Y-62425000D02*
X87369819Y-62425000D01*
X87369819Y-62425000D02*
X87512676Y-62329762D01*
X87512676Y-62329762D02*
X87607914Y-62234524D01*
X87607914Y-62234524D02*
X87655533Y-62139286D01*
X92698333Y-53836009D02*
X93031666Y-53836009D01*
X93031666Y-54359819D02*
X93031666Y-53359819D01*
X93031666Y-53359819D02*
X92555476Y-53359819D01*
X91841190Y-53836009D02*
X91698333Y-53883628D01*
X91698333Y-53883628D02*
X91650714Y-53931247D01*
X91650714Y-53931247D02*
X91603095Y-54026485D01*
X91603095Y-54026485D02*
X91603095Y-54169342D01*
X91603095Y-54169342D02*
X91650714Y-54264580D01*
X91650714Y-54264580D02*
X91698333Y-54312200D01*
X91698333Y-54312200D02*
X91793571Y-54359819D01*
X91793571Y-54359819D02*
X92174523Y-54359819D01*
X92174523Y-54359819D02*
X92174523Y-53359819D01*
X92174523Y-53359819D02*
X91841190Y-53359819D01*
X91841190Y-53359819D02*
X91745952Y-53407438D01*
X91745952Y-53407438D02*
X91698333Y-53455057D01*
X91698333Y-53455057D02*
X91650714Y-53550295D01*
X91650714Y-53550295D02*
X91650714Y-53645533D01*
X91650714Y-53645533D02*
X91698333Y-53740771D01*
X91698333Y-53740771D02*
X91745952Y-53788390D01*
X91745952Y-53788390D02*
X91841190Y-53836009D01*
X91841190Y-53836009D02*
X92174523Y-53836009D01*
X90650714Y-54359819D02*
X91222142Y-54359819D01*
X90936428Y-54359819D02*
X90936428Y-53359819D01*
X90936428Y-53359819D02*
X91031666Y-53502676D01*
X91031666Y-53502676D02*
X91126904Y-53597914D01*
X91126904Y-53597914D02*
X91222142Y-53645533D01*
X87974580Y-45648333D02*
X88022200Y-45600714D01*
X88022200Y-45600714D02*
X88069819Y-45457857D01*
X88069819Y-45457857D02*
X88069819Y-45362619D01*
X88069819Y-45362619D02*
X88022200Y-45219762D01*
X88022200Y-45219762D02*
X87926961Y-45124524D01*
X87926961Y-45124524D02*
X87831723Y-45076905D01*
X87831723Y-45076905D02*
X87641247Y-45029286D01*
X87641247Y-45029286D02*
X87498390Y-45029286D01*
X87498390Y-45029286D02*
X87307914Y-45076905D01*
X87307914Y-45076905D02*
X87212676Y-45124524D01*
X87212676Y-45124524D02*
X87117438Y-45219762D01*
X87117438Y-45219762D02*
X87069819Y-45362619D01*
X87069819Y-45362619D02*
X87069819Y-45457857D01*
X87069819Y-45457857D02*
X87117438Y-45600714D01*
X87117438Y-45600714D02*
X87165057Y-45648333D01*
X87069819Y-46553095D02*
X87069819Y-46076905D01*
X87069819Y-46076905D02*
X87546009Y-46029286D01*
X87546009Y-46029286D02*
X87498390Y-46076905D01*
X87498390Y-46076905D02*
X87450771Y-46172143D01*
X87450771Y-46172143D02*
X87450771Y-46410238D01*
X87450771Y-46410238D02*
X87498390Y-46505476D01*
X87498390Y-46505476D02*
X87546009Y-46553095D01*
X87546009Y-46553095D02*
X87641247Y-46600714D01*
X87641247Y-46600714D02*
X87879342Y-46600714D01*
X87879342Y-46600714D02*
X87974580Y-46553095D01*
X87974580Y-46553095D02*
X88022200Y-46505476D01*
X88022200Y-46505476D02*
X88069819Y-46410238D01*
X88069819Y-46410238D02*
X88069819Y-46172143D01*
X88069819Y-46172143D02*
X88022200Y-46076905D01*
X88022200Y-46076905D02*
X87974580Y-46029286D01*
X115797857Y-103554580D02*
X115845476Y-103602200D01*
X115845476Y-103602200D02*
X115988333Y-103649819D01*
X115988333Y-103649819D02*
X116083571Y-103649819D01*
X116083571Y-103649819D02*
X116226428Y-103602200D01*
X116226428Y-103602200D02*
X116321666Y-103506961D01*
X116321666Y-103506961D02*
X116369285Y-103411723D01*
X116369285Y-103411723D02*
X116416904Y-103221247D01*
X116416904Y-103221247D02*
X116416904Y-103078390D01*
X116416904Y-103078390D02*
X116369285Y-102887914D01*
X116369285Y-102887914D02*
X116321666Y-102792676D01*
X116321666Y-102792676D02*
X116226428Y-102697438D01*
X116226428Y-102697438D02*
X116083571Y-102649819D01*
X116083571Y-102649819D02*
X115988333Y-102649819D01*
X115988333Y-102649819D02*
X115845476Y-102697438D01*
X115845476Y-102697438D02*
X115797857Y-102745057D01*
X114845476Y-103649819D02*
X115416904Y-103649819D01*
X115131190Y-103649819D02*
X115131190Y-102649819D01*
X115131190Y-102649819D02*
X115226428Y-102792676D01*
X115226428Y-102792676D02*
X115321666Y-102887914D01*
X115321666Y-102887914D02*
X115416904Y-102935533D01*
X114369285Y-103649819D02*
X114178809Y-103649819D01*
X114178809Y-103649819D02*
X114083571Y-103602200D01*
X114083571Y-103602200D02*
X114035952Y-103554580D01*
X114035952Y-103554580D02*
X113940714Y-103411723D01*
X113940714Y-103411723D02*
X113893095Y-103221247D01*
X113893095Y-103221247D02*
X113893095Y-102840295D01*
X113893095Y-102840295D02*
X113940714Y-102745057D01*
X113940714Y-102745057D02*
X113988333Y-102697438D01*
X113988333Y-102697438D02*
X114083571Y-102649819D01*
X114083571Y-102649819D02*
X114274047Y-102649819D01*
X114274047Y-102649819D02*
X114369285Y-102697438D01*
X114369285Y-102697438D02*
X114416904Y-102745057D01*
X114416904Y-102745057D02*
X114464523Y-102840295D01*
X114464523Y-102840295D02*
X114464523Y-103078390D01*
X114464523Y-103078390D02*
X114416904Y-103173628D01*
X114416904Y-103173628D02*
X114369285Y-103221247D01*
X114369285Y-103221247D02*
X114274047Y-103268866D01*
X114274047Y-103268866D02*
X114083571Y-103268866D01*
X114083571Y-103268866D02*
X113988333Y-103221247D01*
X113988333Y-103221247D02*
X113940714Y-103173628D01*
X113940714Y-103173628D02*
X113893095Y-103078390D01*
X155666009Y-57822619D02*
X155713628Y-57965476D01*
X155713628Y-57965476D02*
X155761247Y-58013095D01*
X155761247Y-58013095D02*
X155856485Y-58060714D01*
X155856485Y-58060714D02*
X155999342Y-58060714D01*
X155999342Y-58060714D02*
X156094580Y-58013095D01*
X156094580Y-58013095D02*
X156142200Y-57965476D01*
X156142200Y-57965476D02*
X156189819Y-57870238D01*
X156189819Y-57870238D02*
X156189819Y-57489286D01*
X156189819Y-57489286D02*
X155189819Y-57489286D01*
X155189819Y-57489286D02*
X155189819Y-57822619D01*
X155189819Y-57822619D02*
X155237438Y-57917857D01*
X155237438Y-57917857D02*
X155285057Y-57965476D01*
X155285057Y-57965476D02*
X155380295Y-58013095D01*
X155380295Y-58013095D02*
X155475533Y-58013095D01*
X155475533Y-58013095D02*
X155570771Y-57965476D01*
X155570771Y-57965476D02*
X155618390Y-57917857D01*
X155618390Y-57917857D02*
X155666009Y-57822619D01*
X155666009Y-57822619D02*
X155666009Y-57489286D01*
X156142200Y-58441667D02*
X156189819Y-58584524D01*
X156189819Y-58584524D02*
X156189819Y-58822619D01*
X156189819Y-58822619D02*
X156142200Y-58917857D01*
X156142200Y-58917857D02*
X156094580Y-58965476D01*
X156094580Y-58965476D02*
X155999342Y-59013095D01*
X155999342Y-59013095D02*
X155904104Y-59013095D01*
X155904104Y-59013095D02*
X155808866Y-58965476D01*
X155808866Y-58965476D02*
X155761247Y-58917857D01*
X155761247Y-58917857D02*
X155713628Y-58822619D01*
X155713628Y-58822619D02*
X155666009Y-58632143D01*
X155666009Y-58632143D02*
X155618390Y-58536905D01*
X155618390Y-58536905D02*
X155570771Y-58489286D01*
X155570771Y-58489286D02*
X155475533Y-58441667D01*
X155475533Y-58441667D02*
X155380295Y-58441667D01*
X155380295Y-58441667D02*
X155285057Y-58489286D01*
X155285057Y-58489286D02*
X155237438Y-58536905D01*
X155237438Y-58536905D02*
X155189819Y-58632143D01*
X155189819Y-58632143D02*
X155189819Y-58870238D01*
X155189819Y-58870238D02*
X155237438Y-59013095D01*
X155189819Y-59346429D02*
X156189819Y-59584524D01*
X156189819Y-59584524D02*
X155475533Y-59775000D01*
X155475533Y-59775000D02*
X156189819Y-59965476D01*
X156189819Y-59965476D02*
X155189819Y-60203572D01*
X155285057Y-60536905D02*
X155237438Y-60584524D01*
X155237438Y-60584524D02*
X155189819Y-60679762D01*
X155189819Y-60679762D02*
X155189819Y-60917857D01*
X155189819Y-60917857D02*
X155237438Y-61013095D01*
X155237438Y-61013095D02*
X155285057Y-61060714D01*
X155285057Y-61060714D02*
X155380295Y-61108333D01*
X155380295Y-61108333D02*
X155475533Y-61108333D01*
X155475533Y-61108333D02*
X155618390Y-61060714D01*
X155618390Y-61060714D02*
X156189819Y-60489286D01*
X156189819Y-60489286D02*
X156189819Y-61108333D01*
X150457381Y-64109819D02*
X150790714Y-63633628D01*
X151028809Y-64109819D02*
X151028809Y-63109819D01*
X151028809Y-63109819D02*
X150647857Y-63109819D01*
X150647857Y-63109819D02*
X150552619Y-63157438D01*
X150552619Y-63157438D02*
X150505000Y-63205057D01*
X150505000Y-63205057D02*
X150457381Y-63300295D01*
X150457381Y-63300295D02*
X150457381Y-63443152D01*
X150457381Y-63443152D02*
X150505000Y-63538390D01*
X150505000Y-63538390D02*
X150552619Y-63586009D01*
X150552619Y-63586009D02*
X150647857Y-63633628D01*
X150647857Y-63633628D02*
X151028809Y-63633628D01*
X150028809Y-63586009D02*
X149695476Y-63586009D01*
X149552619Y-64109819D02*
X150028809Y-64109819D01*
X150028809Y-64109819D02*
X150028809Y-63109819D01*
X150028809Y-63109819D02*
X149552619Y-63109819D01*
X149171666Y-64062200D02*
X149028809Y-64109819D01*
X149028809Y-64109819D02*
X148790714Y-64109819D01*
X148790714Y-64109819D02*
X148695476Y-64062200D01*
X148695476Y-64062200D02*
X148647857Y-64014580D01*
X148647857Y-64014580D02*
X148600238Y-63919342D01*
X148600238Y-63919342D02*
X148600238Y-63824104D01*
X148600238Y-63824104D02*
X148647857Y-63728866D01*
X148647857Y-63728866D02*
X148695476Y-63681247D01*
X148695476Y-63681247D02*
X148790714Y-63633628D01*
X148790714Y-63633628D02*
X148981190Y-63586009D01*
X148981190Y-63586009D02*
X149076428Y-63538390D01*
X149076428Y-63538390D02*
X149124047Y-63490771D01*
X149124047Y-63490771D02*
X149171666Y-63395533D01*
X149171666Y-63395533D02*
X149171666Y-63300295D01*
X149171666Y-63300295D02*
X149124047Y-63205057D01*
X149124047Y-63205057D02*
X149076428Y-63157438D01*
X149076428Y-63157438D02*
X148981190Y-63109819D01*
X148981190Y-63109819D02*
X148743095Y-63109819D01*
X148743095Y-63109819D02*
X148600238Y-63157438D01*
X148171666Y-63586009D02*
X147838333Y-63586009D01*
X147695476Y-64109819D02*
X148171666Y-64109819D01*
X148171666Y-64109819D02*
X148171666Y-63109819D01*
X148171666Y-63109819D02*
X147695476Y-63109819D01*
X147409761Y-63109819D02*
X146838333Y-63109819D01*
X147124047Y-64109819D02*
X147124047Y-63109819D01*
X125484580Y-95227142D02*
X125532200Y-95179523D01*
X125532200Y-95179523D02*
X125579819Y-95036666D01*
X125579819Y-95036666D02*
X125579819Y-94941428D01*
X125579819Y-94941428D02*
X125532200Y-94798571D01*
X125532200Y-94798571D02*
X125436961Y-94703333D01*
X125436961Y-94703333D02*
X125341723Y-94655714D01*
X125341723Y-94655714D02*
X125151247Y-94608095D01*
X125151247Y-94608095D02*
X125008390Y-94608095D01*
X125008390Y-94608095D02*
X124817914Y-94655714D01*
X124817914Y-94655714D02*
X124722676Y-94703333D01*
X124722676Y-94703333D02*
X124627438Y-94798571D01*
X124627438Y-94798571D02*
X124579819Y-94941428D01*
X124579819Y-94941428D02*
X124579819Y-95036666D01*
X124579819Y-95036666D02*
X124627438Y-95179523D01*
X124627438Y-95179523D02*
X124675057Y-95227142D01*
X125579819Y-96179523D02*
X125579819Y-95608095D01*
X125579819Y-95893809D02*
X124579819Y-95893809D01*
X124579819Y-95893809D02*
X124722676Y-95798571D01*
X124722676Y-95798571D02*
X124817914Y-95703333D01*
X124817914Y-95703333D02*
X124865533Y-95608095D01*
X124579819Y-97084285D02*
X124579819Y-96608095D01*
X124579819Y-96608095D02*
X125056009Y-96560476D01*
X125056009Y-96560476D02*
X125008390Y-96608095D01*
X125008390Y-96608095D02*
X124960771Y-96703333D01*
X124960771Y-96703333D02*
X124960771Y-96941428D01*
X124960771Y-96941428D02*
X125008390Y-97036666D01*
X125008390Y-97036666D02*
X125056009Y-97084285D01*
X125056009Y-97084285D02*
X125151247Y-97131904D01*
X125151247Y-97131904D02*
X125389342Y-97131904D01*
X125389342Y-97131904D02*
X125484580Y-97084285D01*
X125484580Y-97084285D02*
X125532200Y-97036666D01*
X125532200Y-97036666D02*
X125579819Y-96941428D01*
X125579819Y-96941428D02*
X125579819Y-96703333D01*
X125579819Y-96703333D02*
X125532200Y-96608095D01*
X125532200Y-96608095D02*
X125484580Y-96560476D01*
X125354580Y-115642142D02*
X125402200Y-115594523D01*
X125402200Y-115594523D02*
X125449819Y-115451666D01*
X125449819Y-115451666D02*
X125449819Y-115356428D01*
X125449819Y-115356428D02*
X125402200Y-115213571D01*
X125402200Y-115213571D02*
X125306961Y-115118333D01*
X125306961Y-115118333D02*
X125211723Y-115070714D01*
X125211723Y-115070714D02*
X125021247Y-115023095D01*
X125021247Y-115023095D02*
X124878390Y-115023095D01*
X124878390Y-115023095D02*
X124687914Y-115070714D01*
X124687914Y-115070714D02*
X124592676Y-115118333D01*
X124592676Y-115118333D02*
X124497438Y-115213571D01*
X124497438Y-115213571D02*
X124449819Y-115356428D01*
X124449819Y-115356428D02*
X124449819Y-115451666D01*
X124449819Y-115451666D02*
X124497438Y-115594523D01*
X124497438Y-115594523D02*
X124545057Y-115642142D01*
X124545057Y-116023095D02*
X124497438Y-116070714D01*
X124497438Y-116070714D02*
X124449819Y-116165952D01*
X124449819Y-116165952D02*
X124449819Y-116404047D01*
X124449819Y-116404047D02*
X124497438Y-116499285D01*
X124497438Y-116499285D02*
X124545057Y-116546904D01*
X124545057Y-116546904D02*
X124640295Y-116594523D01*
X124640295Y-116594523D02*
X124735533Y-116594523D01*
X124735533Y-116594523D02*
X124878390Y-116546904D01*
X124878390Y-116546904D02*
X125449819Y-115975476D01*
X125449819Y-115975476D02*
X125449819Y-116594523D01*
X124783152Y-117451666D02*
X125449819Y-117451666D01*
X124402200Y-117213571D02*
X125116485Y-116975476D01*
X125116485Y-116975476D02*
X125116485Y-117594523D01*
X140036666Y-50539819D02*
X140369999Y-50063628D01*
X140608094Y-50539819D02*
X140608094Y-49539819D01*
X140608094Y-49539819D02*
X140227142Y-49539819D01*
X140227142Y-49539819D02*
X140131904Y-49587438D01*
X140131904Y-49587438D02*
X140084285Y-49635057D01*
X140084285Y-49635057D02*
X140036666Y-49730295D01*
X140036666Y-49730295D02*
X140036666Y-49873152D01*
X140036666Y-49873152D02*
X140084285Y-49968390D01*
X140084285Y-49968390D02*
X140131904Y-50016009D01*
X140131904Y-50016009D02*
X140227142Y-50063628D01*
X140227142Y-50063628D02*
X140608094Y-50063628D01*
X139465237Y-49968390D02*
X139560475Y-49920771D01*
X139560475Y-49920771D02*
X139608094Y-49873152D01*
X139608094Y-49873152D02*
X139655713Y-49777914D01*
X139655713Y-49777914D02*
X139655713Y-49730295D01*
X139655713Y-49730295D02*
X139608094Y-49635057D01*
X139608094Y-49635057D02*
X139560475Y-49587438D01*
X139560475Y-49587438D02*
X139465237Y-49539819D01*
X139465237Y-49539819D02*
X139274761Y-49539819D01*
X139274761Y-49539819D02*
X139179523Y-49587438D01*
X139179523Y-49587438D02*
X139131904Y-49635057D01*
X139131904Y-49635057D02*
X139084285Y-49730295D01*
X139084285Y-49730295D02*
X139084285Y-49777914D01*
X139084285Y-49777914D02*
X139131904Y-49873152D01*
X139131904Y-49873152D02*
X139179523Y-49920771D01*
X139179523Y-49920771D02*
X139274761Y-49968390D01*
X139274761Y-49968390D02*
X139465237Y-49968390D01*
X139465237Y-49968390D02*
X139560475Y-50016009D01*
X139560475Y-50016009D02*
X139608094Y-50063628D01*
X139608094Y-50063628D02*
X139655713Y-50158866D01*
X139655713Y-50158866D02*
X139655713Y-50349342D01*
X139655713Y-50349342D02*
X139608094Y-50444580D01*
X139608094Y-50444580D02*
X139560475Y-50492200D01*
X139560475Y-50492200D02*
X139465237Y-50539819D01*
X139465237Y-50539819D02*
X139274761Y-50539819D01*
X139274761Y-50539819D02*
X139179523Y-50492200D01*
X139179523Y-50492200D02*
X139131904Y-50444580D01*
X139131904Y-50444580D02*
X139084285Y-50349342D01*
X139084285Y-50349342D02*
X139084285Y-50158866D01*
X139084285Y-50158866D02*
X139131904Y-50063628D01*
X139131904Y-50063628D02*
X139179523Y-50016009D01*
X139179523Y-50016009D02*
X139274761Y-49968390D01*
X134239285Y-122349819D02*
X134239285Y-121349819D01*
X134239285Y-121349819D02*
X134001190Y-121349819D01*
X134001190Y-121349819D02*
X133858333Y-121397438D01*
X133858333Y-121397438D02*
X133763095Y-121492676D01*
X133763095Y-121492676D02*
X133715476Y-121587914D01*
X133715476Y-121587914D02*
X133667857Y-121778390D01*
X133667857Y-121778390D02*
X133667857Y-121921247D01*
X133667857Y-121921247D02*
X133715476Y-122111723D01*
X133715476Y-122111723D02*
X133763095Y-122206961D01*
X133763095Y-122206961D02*
X133858333Y-122302200D01*
X133858333Y-122302200D02*
X134001190Y-122349819D01*
X134001190Y-122349819D02*
X134239285Y-122349819D01*
X132715476Y-122349819D02*
X133286904Y-122349819D01*
X133001190Y-122349819D02*
X133001190Y-121349819D01*
X133001190Y-121349819D02*
X133096428Y-121492676D01*
X133096428Y-121492676D02*
X133191666Y-121587914D01*
X133191666Y-121587914D02*
X133286904Y-121635533D01*
X131763095Y-122349819D02*
X132334523Y-122349819D01*
X132048809Y-122349819D02*
X132048809Y-121349819D01*
X132048809Y-121349819D02*
X132144047Y-121492676D01*
X132144047Y-121492676D02*
X132239285Y-121587914D01*
X132239285Y-121587914D02*
X132334523Y-121635533D01*
X130837857Y-111174580D02*
X130885476Y-111222200D01*
X130885476Y-111222200D02*
X131028333Y-111269819D01*
X131028333Y-111269819D02*
X131123571Y-111269819D01*
X131123571Y-111269819D02*
X131266428Y-111222200D01*
X131266428Y-111222200D02*
X131361666Y-111126961D01*
X131361666Y-111126961D02*
X131409285Y-111031723D01*
X131409285Y-111031723D02*
X131456904Y-110841247D01*
X131456904Y-110841247D02*
X131456904Y-110698390D01*
X131456904Y-110698390D02*
X131409285Y-110507914D01*
X131409285Y-110507914D02*
X131361666Y-110412676D01*
X131361666Y-110412676D02*
X131266428Y-110317438D01*
X131266428Y-110317438D02*
X131123571Y-110269819D01*
X131123571Y-110269819D02*
X131028333Y-110269819D01*
X131028333Y-110269819D02*
X130885476Y-110317438D01*
X130885476Y-110317438D02*
X130837857Y-110365057D01*
X130456904Y-110365057D02*
X130409285Y-110317438D01*
X130409285Y-110317438D02*
X130314047Y-110269819D01*
X130314047Y-110269819D02*
X130075952Y-110269819D01*
X130075952Y-110269819D02*
X129980714Y-110317438D01*
X129980714Y-110317438D02*
X129933095Y-110365057D01*
X129933095Y-110365057D02*
X129885476Y-110460295D01*
X129885476Y-110460295D02*
X129885476Y-110555533D01*
X129885476Y-110555533D02*
X129933095Y-110698390D01*
X129933095Y-110698390D02*
X130504523Y-111269819D01*
X130504523Y-111269819D02*
X129885476Y-111269819D01*
X129552142Y-110269819D02*
X128933095Y-110269819D01*
X128933095Y-110269819D02*
X129266428Y-110650771D01*
X129266428Y-110650771D02*
X129123571Y-110650771D01*
X129123571Y-110650771D02*
X129028333Y-110698390D01*
X129028333Y-110698390D02*
X128980714Y-110746009D01*
X128980714Y-110746009D02*
X128933095Y-110841247D01*
X128933095Y-110841247D02*
X128933095Y-111079342D01*
X128933095Y-111079342D02*
X128980714Y-111174580D01*
X128980714Y-111174580D02*
X129028333Y-111222200D01*
X129028333Y-111222200D02*
X129123571Y-111269819D01*
X129123571Y-111269819D02*
X129409285Y-111269819D01*
X129409285Y-111269819D02*
X129504523Y-111222200D01*
X129504523Y-111222200D02*
X129552142Y-111174580D01*
X134023094Y-88199819D02*
X134023094Y-87199819D01*
X134023094Y-87199819D02*
X133784999Y-87199819D01*
X133784999Y-87199819D02*
X133642142Y-87247438D01*
X133642142Y-87247438D02*
X133546904Y-87342676D01*
X133546904Y-87342676D02*
X133499285Y-87437914D01*
X133499285Y-87437914D02*
X133451666Y-87628390D01*
X133451666Y-87628390D02*
X133451666Y-87771247D01*
X133451666Y-87771247D02*
X133499285Y-87961723D01*
X133499285Y-87961723D02*
X133546904Y-88056961D01*
X133546904Y-88056961D02*
X133642142Y-88152200D01*
X133642142Y-88152200D02*
X133784999Y-88199819D01*
X133784999Y-88199819D02*
X134023094Y-88199819D01*
X133118332Y-87199819D02*
X132451666Y-87199819D01*
X132451666Y-87199819D02*
X132880237Y-88199819D01*
X120001666Y-59294580D02*
X120049285Y-59342200D01*
X120049285Y-59342200D02*
X120192142Y-59389819D01*
X120192142Y-59389819D02*
X120287380Y-59389819D01*
X120287380Y-59389819D02*
X120430237Y-59342200D01*
X120430237Y-59342200D02*
X120525475Y-59246961D01*
X120525475Y-59246961D02*
X120573094Y-59151723D01*
X120573094Y-59151723D02*
X120620713Y-58961247D01*
X120620713Y-58961247D02*
X120620713Y-58818390D01*
X120620713Y-58818390D02*
X120573094Y-58627914D01*
X120573094Y-58627914D02*
X120525475Y-58532676D01*
X120525475Y-58532676D02*
X120430237Y-58437438D01*
X120430237Y-58437438D02*
X120287380Y-58389819D01*
X120287380Y-58389819D02*
X120192142Y-58389819D01*
X120192142Y-58389819D02*
X120049285Y-58437438D01*
X120049285Y-58437438D02*
X120001666Y-58485057D01*
X119144523Y-58389819D02*
X119334999Y-58389819D01*
X119334999Y-58389819D02*
X119430237Y-58437438D01*
X119430237Y-58437438D02*
X119477856Y-58485057D01*
X119477856Y-58485057D02*
X119573094Y-58627914D01*
X119573094Y-58627914D02*
X119620713Y-58818390D01*
X119620713Y-58818390D02*
X119620713Y-59199342D01*
X119620713Y-59199342D02*
X119573094Y-59294580D01*
X119573094Y-59294580D02*
X119525475Y-59342200D01*
X119525475Y-59342200D02*
X119430237Y-59389819D01*
X119430237Y-59389819D02*
X119239761Y-59389819D01*
X119239761Y-59389819D02*
X119144523Y-59342200D01*
X119144523Y-59342200D02*
X119096904Y-59294580D01*
X119096904Y-59294580D02*
X119049285Y-59199342D01*
X119049285Y-59199342D02*
X119049285Y-58961247D01*
X119049285Y-58961247D02*
X119096904Y-58866009D01*
X119096904Y-58866009D02*
X119144523Y-58818390D01*
X119144523Y-58818390D02*
X119239761Y-58770771D01*
X119239761Y-58770771D02*
X119430237Y-58770771D01*
X119430237Y-58770771D02*
X119525475Y-58818390D01*
X119525475Y-58818390D02*
X119573094Y-58866009D01*
X119573094Y-58866009D02*
X119620713Y-58961247D01*
X102194580Y-52892142D02*
X102242200Y-52844523D01*
X102242200Y-52844523D02*
X102289819Y-52701666D01*
X102289819Y-52701666D02*
X102289819Y-52606428D01*
X102289819Y-52606428D02*
X102242200Y-52463571D01*
X102242200Y-52463571D02*
X102146961Y-52368333D01*
X102146961Y-52368333D02*
X102051723Y-52320714D01*
X102051723Y-52320714D02*
X101861247Y-52273095D01*
X101861247Y-52273095D02*
X101718390Y-52273095D01*
X101718390Y-52273095D02*
X101527914Y-52320714D01*
X101527914Y-52320714D02*
X101432676Y-52368333D01*
X101432676Y-52368333D02*
X101337438Y-52463571D01*
X101337438Y-52463571D02*
X101289819Y-52606428D01*
X101289819Y-52606428D02*
X101289819Y-52701666D01*
X101289819Y-52701666D02*
X101337438Y-52844523D01*
X101337438Y-52844523D02*
X101385057Y-52892142D01*
X102289819Y-53844523D02*
X102289819Y-53273095D01*
X102289819Y-53558809D02*
X101289819Y-53558809D01*
X101289819Y-53558809D02*
X101432676Y-53463571D01*
X101432676Y-53463571D02*
X101527914Y-53368333D01*
X101527914Y-53368333D02*
X101575533Y-53273095D01*
X102289819Y-54796904D02*
X102289819Y-54225476D01*
X102289819Y-54511190D02*
X101289819Y-54511190D01*
X101289819Y-54511190D02*
X101432676Y-54415952D01*
X101432676Y-54415952D02*
X101527914Y-54320714D01*
X101527914Y-54320714D02*
X101575533Y-54225476D01*
X109773094Y-70459819D02*
X109773094Y-69459819D01*
X109773094Y-69459819D02*
X109534999Y-69459819D01*
X109534999Y-69459819D02*
X109392142Y-69507438D01*
X109392142Y-69507438D02*
X109296904Y-69602676D01*
X109296904Y-69602676D02*
X109249285Y-69697914D01*
X109249285Y-69697914D02*
X109201666Y-69888390D01*
X109201666Y-69888390D02*
X109201666Y-70031247D01*
X109201666Y-70031247D02*
X109249285Y-70221723D01*
X109249285Y-70221723D02*
X109296904Y-70316961D01*
X109296904Y-70316961D02*
X109392142Y-70412200D01*
X109392142Y-70412200D02*
X109534999Y-70459819D01*
X109534999Y-70459819D02*
X109773094Y-70459819D01*
X108820713Y-69555057D02*
X108773094Y-69507438D01*
X108773094Y-69507438D02*
X108677856Y-69459819D01*
X108677856Y-69459819D02*
X108439761Y-69459819D01*
X108439761Y-69459819D02*
X108344523Y-69507438D01*
X108344523Y-69507438D02*
X108296904Y-69555057D01*
X108296904Y-69555057D02*
X108249285Y-69650295D01*
X108249285Y-69650295D02*
X108249285Y-69745533D01*
X108249285Y-69745533D02*
X108296904Y-69888390D01*
X108296904Y-69888390D02*
X108868332Y-70459819D01*
X108868332Y-70459819D02*
X108249285Y-70459819D01*
X99857857Y-62614580D02*
X99905476Y-62662200D01*
X99905476Y-62662200D02*
X100048333Y-62709819D01*
X100048333Y-62709819D02*
X100143571Y-62709819D01*
X100143571Y-62709819D02*
X100286428Y-62662200D01*
X100286428Y-62662200D02*
X100381666Y-62566961D01*
X100381666Y-62566961D02*
X100429285Y-62471723D01*
X100429285Y-62471723D02*
X100476904Y-62281247D01*
X100476904Y-62281247D02*
X100476904Y-62138390D01*
X100476904Y-62138390D02*
X100429285Y-61947914D01*
X100429285Y-61947914D02*
X100381666Y-61852676D01*
X100381666Y-61852676D02*
X100286428Y-61757438D01*
X100286428Y-61757438D02*
X100143571Y-61709819D01*
X100143571Y-61709819D02*
X100048333Y-61709819D01*
X100048333Y-61709819D02*
X99905476Y-61757438D01*
X99905476Y-61757438D02*
X99857857Y-61805057D01*
X98905476Y-62709819D02*
X99476904Y-62709819D01*
X99191190Y-62709819D02*
X99191190Y-61709819D01*
X99191190Y-61709819D02*
X99286428Y-61852676D01*
X99286428Y-61852676D02*
X99381666Y-61947914D01*
X99381666Y-61947914D02*
X99476904Y-61995533D01*
X98572142Y-61709819D02*
X97953095Y-61709819D01*
X97953095Y-61709819D02*
X98286428Y-62090771D01*
X98286428Y-62090771D02*
X98143571Y-62090771D01*
X98143571Y-62090771D02*
X98048333Y-62138390D01*
X98048333Y-62138390D02*
X98000714Y-62186009D01*
X98000714Y-62186009D02*
X97953095Y-62281247D01*
X97953095Y-62281247D02*
X97953095Y-62519342D01*
X97953095Y-62519342D02*
X98000714Y-62614580D01*
X98000714Y-62614580D02*
X98048333Y-62662200D01*
X98048333Y-62662200D02*
X98143571Y-62709819D01*
X98143571Y-62709819D02*
X98429285Y-62709819D01*
X98429285Y-62709819D02*
X98524523Y-62662200D01*
X98524523Y-62662200D02*
X98572142Y-62614580D01*
X128693094Y-70329819D02*
X128693094Y-69329819D01*
X128693094Y-69329819D02*
X128454999Y-69329819D01*
X128454999Y-69329819D02*
X128312142Y-69377438D01*
X128312142Y-69377438D02*
X128216904Y-69472676D01*
X128216904Y-69472676D02*
X128169285Y-69567914D01*
X128169285Y-69567914D02*
X128121666Y-69758390D01*
X128121666Y-69758390D02*
X128121666Y-69901247D01*
X128121666Y-69901247D02*
X128169285Y-70091723D01*
X128169285Y-70091723D02*
X128216904Y-70186961D01*
X128216904Y-70186961D02*
X128312142Y-70282200D01*
X128312142Y-70282200D02*
X128454999Y-70329819D01*
X128454999Y-70329819D02*
X128693094Y-70329819D01*
X127788332Y-69329819D02*
X127169285Y-69329819D01*
X127169285Y-69329819D02*
X127502618Y-69710771D01*
X127502618Y-69710771D02*
X127359761Y-69710771D01*
X127359761Y-69710771D02*
X127264523Y-69758390D01*
X127264523Y-69758390D02*
X127216904Y-69806009D01*
X127216904Y-69806009D02*
X127169285Y-69901247D01*
X127169285Y-69901247D02*
X127169285Y-70139342D01*
X127169285Y-70139342D02*
X127216904Y-70234580D01*
X127216904Y-70234580D02*
X127264523Y-70282200D01*
X127264523Y-70282200D02*
X127359761Y-70329819D01*
X127359761Y-70329819D02*
X127645475Y-70329819D01*
X127645475Y-70329819D02*
X127740713Y-70282200D01*
X127740713Y-70282200D02*
X127788332Y-70234580D01*
X135342857Y-107094580D02*
X135390476Y-107142200D01*
X135390476Y-107142200D02*
X135533333Y-107189819D01*
X135533333Y-107189819D02*
X135628571Y-107189819D01*
X135628571Y-107189819D02*
X135771428Y-107142200D01*
X135771428Y-107142200D02*
X135866666Y-107046961D01*
X135866666Y-107046961D02*
X135914285Y-106951723D01*
X135914285Y-106951723D02*
X135961904Y-106761247D01*
X135961904Y-106761247D02*
X135961904Y-106618390D01*
X135961904Y-106618390D02*
X135914285Y-106427914D01*
X135914285Y-106427914D02*
X135866666Y-106332676D01*
X135866666Y-106332676D02*
X135771428Y-106237438D01*
X135771428Y-106237438D02*
X135628571Y-106189819D01*
X135628571Y-106189819D02*
X135533333Y-106189819D01*
X135533333Y-106189819D02*
X135390476Y-106237438D01*
X135390476Y-106237438D02*
X135342857Y-106285057D01*
X134961904Y-106285057D02*
X134914285Y-106237438D01*
X134914285Y-106237438D02*
X134819047Y-106189819D01*
X134819047Y-106189819D02*
X134580952Y-106189819D01*
X134580952Y-106189819D02*
X134485714Y-106237438D01*
X134485714Y-106237438D02*
X134438095Y-106285057D01*
X134438095Y-106285057D02*
X134390476Y-106380295D01*
X134390476Y-106380295D02*
X134390476Y-106475533D01*
X134390476Y-106475533D02*
X134438095Y-106618390D01*
X134438095Y-106618390D02*
X135009523Y-107189819D01*
X135009523Y-107189819D02*
X134390476Y-107189819D01*
X134009523Y-106285057D02*
X133961904Y-106237438D01*
X133961904Y-106237438D02*
X133866666Y-106189819D01*
X133866666Y-106189819D02*
X133628571Y-106189819D01*
X133628571Y-106189819D02*
X133533333Y-106237438D01*
X133533333Y-106237438D02*
X133485714Y-106285057D01*
X133485714Y-106285057D02*
X133438095Y-106380295D01*
X133438095Y-106380295D02*
X133438095Y-106475533D01*
X133438095Y-106475533D02*
X133485714Y-106618390D01*
X133485714Y-106618390D02*
X134057142Y-107189819D01*
X134057142Y-107189819D02*
X133438095Y-107189819D01*
X122246785Y-138209819D02*
X122246785Y-137209819D01*
X122246785Y-137209819D02*
X122008690Y-137209819D01*
X122008690Y-137209819D02*
X121865833Y-137257438D01*
X121865833Y-137257438D02*
X121770595Y-137352676D01*
X121770595Y-137352676D02*
X121722976Y-137447914D01*
X121722976Y-137447914D02*
X121675357Y-137638390D01*
X121675357Y-137638390D02*
X121675357Y-137781247D01*
X121675357Y-137781247D02*
X121722976Y-137971723D01*
X121722976Y-137971723D02*
X121770595Y-138066961D01*
X121770595Y-138066961D02*
X121865833Y-138162200D01*
X121865833Y-138162200D02*
X122008690Y-138209819D01*
X122008690Y-138209819D02*
X122246785Y-138209819D01*
X120722976Y-138209819D02*
X121294404Y-138209819D01*
X121008690Y-138209819D02*
X121008690Y-137209819D01*
X121008690Y-137209819D02*
X121103928Y-137352676D01*
X121103928Y-137352676D02*
X121199166Y-137447914D01*
X121199166Y-137447914D02*
X121294404Y-137495533D01*
X119865833Y-137543152D02*
X119865833Y-138209819D01*
X120103928Y-137162200D02*
X120342023Y-137876485D01*
X120342023Y-137876485D02*
X119722976Y-137876485D01*
X142319819Y-62218333D02*
X141843628Y-61885000D01*
X142319819Y-61646905D02*
X141319819Y-61646905D01*
X141319819Y-61646905D02*
X141319819Y-62027857D01*
X141319819Y-62027857D02*
X141367438Y-62123095D01*
X141367438Y-62123095D02*
X141415057Y-62170714D01*
X141415057Y-62170714D02*
X141510295Y-62218333D01*
X141510295Y-62218333D02*
X141653152Y-62218333D01*
X141653152Y-62218333D02*
X141748390Y-62170714D01*
X141748390Y-62170714D02*
X141796009Y-62123095D01*
X141796009Y-62123095D02*
X141843628Y-62027857D01*
X141843628Y-62027857D02*
X141843628Y-61646905D01*
X142319819Y-62694524D02*
X142319819Y-62885000D01*
X142319819Y-62885000D02*
X142272200Y-62980238D01*
X142272200Y-62980238D02*
X142224580Y-63027857D01*
X142224580Y-63027857D02*
X142081723Y-63123095D01*
X142081723Y-63123095D02*
X141891247Y-63170714D01*
X141891247Y-63170714D02*
X141510295Y-63170714D01*
X141510295Y-63170714D02*
X141415057Y-63123095D01*
X141415057Y-63123095D02*
X141367438Y-63075476D01*
X141367438Y-63075476D02*
X141319819Y-62980238D01*
X141319819Y-62980238D02*
X141319819Y-62789762D01*
X141319819Y-62789762D02*
X141367438Y-62694524D01*
X141367438Y-62694524D02*
X141415057Y-62646905D01*
X141415057Y-62646905D02*
X141510295Y-62599286D01*
X141510295Y-62599286D02*
X141748390Y-62599286D01*
X141748390Y-62599286D02*
X141843628Y-62646905D01*
X141843628Y-62646905D02*
X141891247Y-62694524D01*
X141891247Y-62694524D02*
X141938866Y-62789762D01*
X141938866Y-62789762D02*
X141938866Y-62980238D01*
X141938866Y-62980238D02*
X141891247Y-63075476D01*
X141891247Y-63075476D02*
X141843628Y-63123095D01*
X141843628Y-63123095D02*
X141748390Y-63170714D01*
X96085594Y-88319819D02*
X96085594Y-87319819D01*
X96085594Y-87319819D02*
X95847499Y-87319819D01*
X95847499Y-87319819D02*
X95704642Y-87367438D01*
X95704642Y-87367438D02*
X95609404Y-87462676D01*
X95609404Y-87462676D02*
X95561785Y-87557914D01*
X95561785Y-87557914D02*
X95514166Y-87748390D01*
X95514166Y-87748390D02*
X95514166Y-87891247D01*
X95514166Y-87891247D02*
X95561785Y-88081723D01*
X95561785Y-88081723D02*
X95609404Y-88176961D01*
X95609404Y-88176961D02*
X95704642Y-88272200D01*
X95704642Y-88272200D02*
X95847499Y-88319819D01*
X95847499Y-88319819D02*
X96085594Y-88319819D01*
X94609404Y-87319819D02*
X95085594Y-87319819D01*
X95085594Y-87319819D02*
X95133213Y-87796009D01*
X95133213Y-87796009D02*
X95085594Y-87748390D01*
X95085594Y-87748390D02*
X94990356Y-87700771D01*
X94990356Y-87700771D02*
X94752261Y-87700771D01*
X94752261Y-87700771D02*
X94657023Y-87748390D01*
X94657023Y-87748390D02*
X94609404Y-87796009D01*
X94609404Y-87796009D02*
X94561785Y-87891247D01*
X94561785Y-87891247D02*
X94561785Y-88129342D01*
X94561785Y-88129342D02*
X94609404Y-88224580D01*
X94609404Y-88224580D02*
X94657023Y-88272200D01*
X94657023Y-88272200D02*
X94752261Y-88319819D01*
X94752261Y-88319819D02*
X94990356Y-88319819D01*
X94990356Y-88319819D02*
X95085594Y-88272200D01*
X95085594Y-88272200D02*
X95133213Y-88224580D01*
X141026785Y-138279819D02*
X141026785Y-137279819D01*
X141026785Y-137279819D02*
X140788690Y-137279819D01*
X140788690Y-137279819D02*
X140645833Y-137327438D01*
X140645833Y-137327438D02*
X140550595Y-137422676D01*
X140550595Y-137422676D02*
X140502976Y-137517914D01*
X140502976Y-137517914D02*
X140455357Y-137708390D01*
X140455357Y-137708390D02*
X140455357Y-137851247D01*
X140455357Y-137851247D02*
X140502976Y-138041723D01*
X140502976Y-138041723D02*
X140550595Y-138136961D01*
X140550595Y-138136961D02*
X140645833Y-138232200D01*
X140645833Y-138232200D02*
X140788690Y-138279819D01*
X140788690Y-138279819D02*
X141026785Y-138279819D01*
X139502976Y-138279819D02*
X140074404Y-138279819D01*
X139788690Y-138279819D02*
X139788690Y-137279819D01*
X139788690Y-137279819D02*
X139883928Y-137422676D01*
X139883928Y-137422676D02*
X139979166Y-137517914D01*
X139979166Y-137517914D02*
X140074404Y-137565533D01*
X138598214Y-137279819D02*
X139074404Y-137279819D01*
X139074404Y-137279819D02*
X139122023Y-137756009D01*
X139122023Y-137756009D02*
X139074404Y-137708390D01*
X139074404Y-137708390D02*
X138979166Y-137660771D01*
X138979166Y-137660771D02*
X138741071Y-137660771D01*
X138741071Y-137660771D02*
X138645833Y-137708390D01*
X138645833Y-137708390D02*
X138598214Y-137756009D01*
X138598214Y-137756009D02*
X138550595Y-137851247D01*
X138550595Y-137851247D02*
X138550595Y-138089342D01*
X138550595Y-138089342D02*
X138598214Y-138184580D01*
X138598214Y-138184580D02*
X138645833Y-138232200D01*
X138645833Y-138232200D02*
X138741071Y-138279819D01*
X138741071Y-138279819D02*
X138979166Y-138279819D01*
X138979166Y-138279819D02*
X139074404Y-138232200D01*
X139074404Y-138232200D02*
X139122023Y-138184580D01*
X143157857Y-102494580D02*
X143205476Y-102542200D01*
X143205476Y-102542200D02*
X143348333Y-102589819D01*
X143348333Y-102589819D02*
X143443571Y-102589819D01*
X143443571Y-102589819D02*
X143586428Y-102542200D01*
X143586428Y-102542200D02*
X143681666Y-102446961D01*
X143681666Y-102446961D02*
X143729285Y-102351723D01*
X143729285Y-102351723D02*
X143776904Y-102161247D01*
X143776904Y-102161247D02*
X143776904Y-102018390D01*
X143776904Y-102018390D02*
X143729285Y-101827914D01*
X143729285Y-101827914D02*
X143681666Y-101732676D01*
X143681666Y-101732676D02*
X143586428Y-101637438D01*
X143586428Y-101637438D02*
X143443571Y-101589819D01*
X143443571Y-101589819D02*
X143348333Y-101589819D01*
X143348333Y-101589819D02*
X143205476Y-101637438D01*
X143205476Y-101637438D02*
X143157857Y-101685057D01*
X142776904Y-101685057D02*
X142729285Y-101637438D01*
X142729285Y-101637438D02*
X142634047Y-101589819D01*
X142634047Y-101589819D02*
X142395952Y-101589819D01*
X142395952Y-101589819D02*
X142300714Y-101637438D01*
X142300714Y-101637438D02*
X142253095Y-101685057D01*
X142253095Y-101685057D02*
X142205476Y-101780295D01*
X142205476Y-101780295D02*
X142205476Y-101875533D01*
X142205476Y-101875533D02*
X142253095Y-102018390D01*
X142253095Y-102018390D02*
X142824523Y-102589819D01*
X142824523Y-102589819D02*
X142205476Y-102589819D01*
X141872142Y-101589819D02*
X141205476Y-101589819D01*
X141205476Y-101589819D02*
X141634047Y-102589819D01*
X115656785Y-122139819D02*
X115656785Y-121139819D01*
X115656785Y-121139819D02*
X115418690Y-121139819D01*
X115418690Y-121139819D02*
X115275833Y-121187438D01*
X115275833Y-121187438D02*
X115180595Y-121282676D01*
X115180595Y-121282676D02*
X115132976Y-121377914D01*
X115132976Y-121377914D02*
X115085357Y-121568390D01*
X115085357Y-121568390D02*
X115085357Y-121711247D01*
X115085357Y-121711247D02*
X115132976Y-121901723D01*
X115132976Y-121901723D02*
X115180595Y-121996961D01*
X115180595Y-121996961D02*
X115275833Y-122092200D01*
X115275833Y-122092200D02*
X115418690Y-122139819D01*
X115418690Y-122139819D02*
X115656785Y-122139819D01*
X114132976Y-122139819D02*
X114704404Y-122139819D01*
X114418690Y-122139819D02*
X114418690Y-121139819D01*
X114418690Y-121139819D02*
X114513928Y-121282676D01*
X114513928Y-121282676D02*
X114609166Y-121377914D01*
X114609166Y-121377914D02*
X114704404Y-121425533D01*
X113513928Y-121139819D02*
X113418690Y-121139819D01*
X113418690Y-121139819D02*
X113323452Y-121187438D01*
X113323452Y-121187438D02*
X113275833Y-121235057D01*
X113275833Y-121235057D02*
X113228214Y-121330295D01*
X113228214Y-121330295D02*
X113180595Y-121520771D01*
X113180595Y-121520771D02*
X113180595Y-121758866D01*
X113180595Y-121758866D02*
X113228214Y-121949342D01*
X113228214Y-121949342D02*
X113275833Y-122044580D01*
X113275833Y-122044580D02*
X113323452Y-122092200D01*
X113323452Y-122092200D02*
X113418690Y-122139819D01*
X113418690Y-122139819D02*
X113513928Y-122139819D01*
X113513928Y-122139819D02*
X113609166Y-122092200D01*
X113609166Y-122092200D02*
X113656785Y-122044580D01*
X113656785Y-122044580D02*
X113704404Y-121949342D01*
X113704404Y-121949342D02*
X113752023Y-121758866D01*
X113752023Y-121758866D02*
X113752023Y-121520771D01*
X113752023Y-121520771D02*
X113704404Y-121330295D01*
X113704404Y-121330295D02*
X113656785Y-121235057D01*
X113656785Y-121235057D02*
X113609166Y-121187438D01*
X113609166Y-121187438D02*
X113513928Y-121139819D01*
D11*
%TO.C,SW1*%
X101335000Y-80875000D02*
X101136565Y-81621233D01*
X100713858Y-82253858D01*
X100081233Y-82676565D01*
X99335000Y-82875000D01*
X90435000Y-82875000D01*
X90435000Y-79375000D01*
X90616802Y-79056802D01*
X90935000Y-78875000D01*
X95885000Y-78875000D01*
X96508747Y-78816472D01*
X97055200Y-78495710D01*
X97456643Y-78005462D01*
X97610959Y-77398326D01*
X97813150Y-77140280D01*
X98102404Y-76985000D01*
X101335000Y-76985000D01*
X101335000Y-80875000D01*
G36*
X101335000Y-80875000D02*
G01*
X101136565Y-81621233D01*
X100713858Y-82253858D01*
X100081233Y-82676565D01*
X99335000Y-82875000D01*
X90435000Y-82875000D01*
X90435000Y-79375000D01*
X90616802Y-79056802D01*
X90935000Y-78875000D01*
X95885000Y-78875000D01*
X96508747Y-78816472D01*
X97055200Y-78495710D01*
X97456643Y-78005462D01*
X97610959Y-77398326D01*
X97813150Y-77140280D01*
X98102404Y-76985000D01*
X101335000Y-76985000D01*
X101335000Y-80875000D01*
G37*
D12*
X95885000Y-78875000D02*
X90935000Y-78875000D01*
X101335000Y-76985000D02*
X101335000Y-80875000D01*
X98102404Y-76985000D02*
X101335000Y-76985000D01*
X90435000Y-82875000D02*
X90435000Y-79375000D01*
X99335000Y-82875000D02*
X90435000Y-82875000D01*
X101335000Y-80875000D02*
G75*
G02*
X99335000Y-82875000I-2000000J0D01*
G01*
X90435000Y-79375000D02*
G75*
G02*
X90935000Y-78875000I500000J0D01*
G01*
X97610000Y-77398176D02*
G75*
G02*
X98102404Y-76985000I492404J-86824D01*
G01*
X97610959Y-77398326D02*
G75*
G02*
X95885000Y-78875000I-1725959J270326D01*
G01*
D11*
%TO.C,SW4*%
X158485000Y-80955000D02*
X158286565Y-81701233D01*
X157863858Y-82333858D01*
X157231233Y-82756565D01*
X156485000Y-82955000D01*
X147585000Y-82955000D01*
X147585000Y-79455000D01*
X147766802Y-79136802D01*
X148085000Y-78955000D01*
X153035000Y-78955000D01*
X153658747Y-78896472D01*
X154205200Y-78575710D01*
X154606643Y-78085462D01*
X154760959Y-77478326D01*
X154963150Y-77220280D01*
X155252404Y-77065000D01*
X158485000Y-77065000D01*
X158485000Y-80955000D01*
G36*
X158485000Y-80955000D02*
G01*
X158286565Y-81701233D01*
X157863858Y-82333858D01*
X157231233Y-82756565D01*
X156485000Y-82955000D01*
X147585000Y-82955000D01*
X147585000Y-79455000D01*
X147766802Y-79136802D01*
X148085000Y-78955000D01*
X153035000Y-78955000D01*
X153658747Y-78896472D01*
X154205200Y-78575710D01*
X154606643Y-78085462D01*
X154760959Y-77478326D01*
X154963150Y-77220280D01*
X155252404Y-77065000D01*
X158485000Y-77065000D01*
X158485000Y-80955000D01*
G37*
D12*
X153035000Y-78955000D02*
X148085000Y-78955000D01*
X158485000Y-77065000D02*
X158485000Y-80955000D01*
X155252404Y-77065000D02*
X158485000Y-77065000D01*
X147585000Y-82955000D02*
X147585000Y-79455000D01*
X156485000Y-82955000D02*
X147585000Y-82955000D01*
X158485000Y-80955000D02*
G75*
G02*
X156485000Y-82955000I-2000000J0D01*
G01*
X147585000Y-79455000D02*
G75*
G02*
X148085000Y-78955000I500000J0D01*
G01*
X154760000Y-77478176D02*
G75*
G02*
X155252404Y-77065000I492404J-86824D01*
G01*
X154760959Y-77478326D02*
G75*
G02*
X153035000Y-78955000I-1725959J270326D01*
G01*
D11*
%TO.C,SW6*%
X119115000Y-91995000D02*
X118933198Y-92313198D01*
X118615000Y-92495000D01*
X113665000Y-92495000D01*
X113041253Y-92553528D01*
X112494800Y-92874290D01*
X112093357Y-93364538D01*
X111939041Y-93971674D01*
X111736850Y-94229720D01*
X111447596Y-94385000D01*
X108215000Y-94385000D01*
X108215000Y-90495000D01*
X108413435Y-89748767D01*
X108836142Y-89116142D01*
X109468767Y-88693435D01*
X110215000Y-88495000D01*
X119115000Y-88495000D01*
X119115000Y-91995000D01*
G36*
X119115000Y-91995000D02*
G01*
X118933198Y-92313198D01*
X118615000Y-92495000D01*
X113665000Y-92495000D01*
X113041253Y-92553528D01*
X112494800Y-92874290D01*
X112093357Y-93364538D01*
X111939041Y-93971674D01*
X111736850Y-94229720D01*
X111447596Y-94385000D01*
X108215000Y-94385000D01*
X108215000Y-90495000D01*
X108413435Y-89748767D01*
X108836142Y-89116142D01*
X109468767Y-88693435D01*
X110215000Y-88495000D01*
X119115000Y-88495000D01*
X119115000Y-91995000D01*
G37*
D12*
X113665000Y-92495000D02*
X118615000Y-92495000D01*
X108215000Y-94385000D02*
X108215000Y-90495000D01*
X111447596Y-94385000D02*
X108215000Y-94385000D01*
X119115000Y-88495000D02*
X119115000Y-91995000D01*
X110215000Y-88495000D02*
X119115000Y-88495000D01*
X108215000Y-90495000D02*
G75*
G02*
X110215000Y-88495000I2000000J0D01*
G01*
X119115000Y-91995000D02*
G75*
G02*
X118615000Y-92495000I-500000J0D01*
G01*
X111940000Y-93971824D02*
G75*
G02*
X111447596Y-94385000I-492404J86824D01*
G01*
X111939041Y-93971674D02*
G75*
G02*
X113665000Y-92495000I1725959J-270326D01*
G01*
D11*
%TO.C,SW12*%
X158485000Y-119055000D02*
X158286565Y-119801233D01*
X157863858Y-120433858D01*
X157231233Y-120856565D01*
X156485000Y-121055000D01*
X147585000Y-121055000D01*
X147585000Y-117555000D01*
X147766802Y-117236802D01*
X148085000Y-117055000D01*
X153035000Y-117055000D01*
X153658747Y-116996472D01*
X154205200Y-116675710D01*
X154606643Y-116185462D01*
X154760959Y-115578326D01*
X154963150Y-115320280D01*
X155252404Y-115165000D01*
X158485000Y-115165000D01*
X158485000Y-119055000D01*
G36*
X158485000Y-119055000D02*
G01*
X158286565Y-119801233D01*
X157863858Y-120433858D01*
X157231233Y-120856565D01*
X156485000Y-121055000D01*
X147585000Y-121055000D01*
X147585000Y-117555000D01*
X147766802Y-117236802D01*
X148085000Y-117055000D01*
X153035000Y-117055000D01*
X153658747Y-116996472D01*
X154205200Y-116675710D01*
X154606643Y-116185462D01*
X154760959Y-115578326D01*
X154963150Y-115320280D01*
X155252404Y-115165000D01*
X158485000Y-115165000D01*
X158485000Y-119055000D01*
G37*
D12*
X153035000Y-117055000D02*
X148085000Y-117055000D01*
X158485000Y-115165000D02*
X158485000Y-119055000D01*
X155252404Y-115165000D02*
X158485000Y-115165000D01*
X147585000Y-121055000D02*
X147585000Y-117555000D01*
X156485000Y-121055000D02*
X147585000Y-121055000D01*
X158485000Y-119055000D02*
G75*
G02*
X156485000Y-121055000I-2000000J0D01*
G01*
X147585000Y-117555000D02*
G75*
G02*
X148085000Y-117055000I500000J0D01*
G01*
X154760000Y-115578176D02*
G75*
G02*
X155252404Y-115165000I492404J-86824D01*
G01*
X154760959Y-115578326D02*
G75*
G02*
X153035000Y-117055000I-1725959J270326D01*
G01*
D11*
%TO.C,SW13*%
X100065000Y-130095000D02*
X99883198Y-130413198D01*
X99565000Y-130595000D01*
X94615000Y-130595000D01*
X93991253Y-130653528D01*
X93444800Y-130974290D01*
X93043357Y-131464538D01*
X92889041Y-132071674D01*
X92686850Y-132329720D01*
X92397596Y-132485000D01*
X89165000Y-132485000D01*
X89165000Y-128595000D01*
X89363435Y-127848767D01*
X89786142Y-127216142D01*
X90418767Y-126793435D01*
X91165000Y-126595000D01*
X100065000Y-126595000D01*
X100065000Y-130095000D01*
G36*
X100065000Y-130095000D02*
G01*
X99883198Y-130413198D01*
X99565000Y-130595000D01*
X94615000Y-130595000D01*
X93991253Y-130653528D01*
X93444800Y-130974290D01*
X93043357Y-131464538D01*
X92889041Y-132071674D01*
X92686850Y-132329720D01*
X92397596Y-132485000D01*
X89165000Y-132485000D01*
X89165000Y-128595000D01*
X89363435Y-127848767D01*
X89786142Y-127216142D01*
X90418767Y-126793435D01*
X91165000Y-126595000D01*
X100065000Y-126595000D01*
X100065000Y-130095000D01*
G37*
D12*
X94615000Y-130595000D02*
X99565000Y-130595000D01*
X89165000Y-132485000D02*
X89165000Y-128595000D01*
X92397596Y-132485000D02*
X89165000Y-132485000D01*
X100065000Y-126595000D02*
X100065000Y-130095000D01*
X91165000Y-126595000D02*
X100065000Y-126595000D01*
X89165000Y-128595000D02*
G75*
G02*
X91165000Y-126595000I2000000J0D01*
G01*
X100065000Y-130095000D02*
G75*
G02*
X99565000Y-130595000I-500000J0D01*
G01*
X92890000Y-132071824D02*
G75*
G02*
X92397596Y-132485000I-492404J86824D01*
G01*
X92889041Y-132071674D02*
G75*
G02*
X94615000Y-130595000I1725959J-270326D01*
G01*
D11*
%TO.C,SW15*%
X138165000Y-130095000D02*
X137983198Y-130413198D01*
X137665000Y-130595000D01*
X132715000Y-130595000D01*
X132091253Y-130653528D01*
X131544800Y-130974290D01*
X131143357Y-131464538D01*
X130989041Y-132071674D01*
X130786850Y-132329720D01*
X130497596Y-132485000D01*
X127265000Y-132485000D01*
X127265000Y-128595000D01*
X127463435Y-127848767D01*
X127886142Y-127216142D01*
X128518767Y-126793435D01*
X129265000Y-126595000D01*
X138165000Y-126595000D01*
X138165000Y-130095000D01*
G36*
X138165000Y-130095000D02*
G01*
X137983198Y-130413198D01*
X137665000Y-130595000D01*
X132715000Y-130595000D01*
X132091253Y-130653528D01*
X131544800Y-130974290D01*
X131143357Y-131464538D01*
X130989041Y-132071674D01*
X130786850Y-132329720D01*
X130497596Y-132485000D01*
X127265000Y-132485000D01*
X127265000Y-128595000D01*
X127463435Y-127848767D01*
X127886142Y-127216142D01*
X128518767Y-126793435D01*
X129265000Y-126595000D01*
X138165000Y-126595000D01*
X138165000Y-130095000D01*
G37*
D12*
X132715000Y-130595000D02*
X137665000Y-130595000D01*
X127265000Y-132485000D02*
X127265000Y-128595000D01*
X130497596Y-132485000D02*
X127265000Y-132485000D01*
X138165000Y-126595000D02*
X138165000Y-130095000D01*
X129265000Y-126595000D02*
X138165000Y-126595000D01*
X127265000Y-128595000D02*
G75*
G02*
X129265000Y-126595000I2000000J0D01*
G01*
X138165000Y-130095000D02*
G75*
G02*
X137665000Y-130595000I-500000J0D01*
G01*
X130990000Y-132071824D02*
G75*
G02*
X130497596Y-132485000I-492404J86824D01*
G01*
X130989041Y-132071674D02*
G75*
G02*
X132715000Y-130595000I1725959J-270326D01*
G01*
D11*
%TO.C,SW11*%
X139435000Y-119055000D02*
X139236565Y-119801233D01*
X138813858Y-120433858D01*
X138181233Y-120856565D01*
X137435000Y-121055000D01*
X128535000Y-121055000D01*
X128535000Y-117555000D01*
X128716802Y-117236802D01*
X129035000Y-117055000D01*
X133985000Y-117055000D01*
X134608747Y-116996472D01*
X135155200Y-116675710D01*
X135556643Y-116185462D01*
X135710959Y-115578326D01*
X135913150Y-115320280D01*
X136202404Y-115165000D01*
X139435000Y-115165000D01*
X139435000Y-119055000D01*
G36*
X139435000Y-119055000D02*
G01*
X139236565Y-119801233D01*
X138813858Y-120433858D01*
X138181233Y-120856565D01*
X137435000Y-121055000D01*
X128535000Y-121055000D01*
X128535000Y-117555000D01*
X128716802Y-117236802D01*
X129035000Y-117055000D01*
X133985000Y-117055000D01*
X134608747Y-116996472D01*
X135155200Y-116675710D01*
X135556643Y-116185462D01*
X135710959Y-115578326D01*
X135913150Y-115320280D01*
X136202404Y-115165000D01*
X139435000Y-115165000D01*
X139435000Y-119055000D01*
G37*
D12*
X133985000Y-117055000D02*
X129035000Y-117055000D01*
X139435000Y-115165000D02*
X139435000Y-119055000D01*
X136202404Y-115165000D02*
X139435000Y-115165000D01*
X128535000Y-121055000D02*
X128535000Y-117555000D01*
X137435000Y-121055000D02*
X128535000Y-121055000D01*
X139435000Y-119055000D02*
G75*
G02*
X137435000Y-121055000I-2000000J0D01*
G01*
X128535000Y-117555000D02*
G75*
G02*
X129035000Y-117055000I500000J0D01*
G01*
X135710000Y-115578176D02*
G75*
G02*
X136202404Y-115165000I492404J-86824D01*
G01*
X135710959Y-115578326D02*
G75*
G02*
X133985000Y-117055000I-1725959J270326D01*
G01*
D11*
%TO.C,SW5*%
X100065000Y-91995000D02*
X99883198Y-92313198D01*
X99565000Y-92495000D01*
X94615000Y-92495000D01*
X93991253Y-92553528D01*
X93444800Y-92874290D01*
X93043357Y-93364538D01*
X92889041Y-93971674D01*
X92686850Y-94229720D01*
X92397596Y-94385000D01*
X89165000Y-94385000D01*
X89165000Y-90495000D01*
X89363435Y-89748767D01*
X89786142Y-89116142D01*
X90418767Y-88693435D01*
X91165000Y-88495000D01*
X100065000Y-88495000D01*
X100065000Y-91995000D01*
G36*
X100065000Y-91995000D02*
G01*
X99883198Y-92313198D01*
X99565000Y-92495000D01*
X94615000Y-92495000D01*
X93991253Y-92553528D01*
X93444800Y-92874290D01*
X93043357Y-93364538D01*
X92889041Y-93971674D01*
X92686850Y-94229720D01*
X92397596Y-94385000D01*
X89165000Y-94385000D01*
X89165000Y-90495000D01*
X89363435Y-89748767D01*
X89786142Y-89116142D01*
X90418767Y-88693435D01*
X91165000Y-88495000D01*
X100065000Y-88495000D01*
X100065000Y-91995000D01*
G37*
D12*
X94615000Y-92495000D02*
X99565000Y-92495000D01*
X89165000Y-94385000D02*
X89165000Y-90495000D01*
X92397596Y-94385000D02*
X89165000Y-94385000D01*
X100065000Y-88495000D02*
X100065000Y-91995000D01*
X91165000Y-88495000D02*
X100065000Y-88495000D01*
X89165000Y-90495000D02*
G75*
G02*
X91165000Y-88495000I2000000J0D01*
G01*
X100065000Y-91995000D02*
G75*
G02*
X99565000Y-92495000I-500000J0D01*
G01*
X92890000Y-93971824D02*
G75*
G02*
X92397596Y-94385000I-492404J86824D01*
G01*
X92889041Y-93971674D02*
G75*
G02*
X94615000Y-92495000I1725959J-270326D01*
G01*
D11*
%TO.C,SW2*%
X120385000Y-80955000D02*
X120186565Y-81701233D01*
X119763858Y-82333858D01*
X119131233Y-82756565D01*
X118385000Y-82955000D01*
X109485000Y-82955000D01*
X109485000Y-79455000D01*
X109666802Y-79136802D01*
X109985000Y-78955000D01*
X114935000Y-78955000D01*
X115558747Y-78896472D01*
X116105200Y-78575710D01*
X116506643Y-78085462D01*
X116660959Y-77478326D01*
X116863150Y-77220280D01*
X117152404Y-77065000D01*
X120385000Y-77065000D01*
X120385000Y-80955000D01*
G36*
X120385000Y-80955000D02*
G01*
X120186565Y-81701233D01*
X119763858Y-82333858D01*
X119131233Y-82756565D01*
X118385000Y-82955000D01*
X109485000Y-82955000D01*
X109485000Y-79455000D01*
X109666802Y-79136802D01*
X109985000Y-78955000D01*
X114935000Y-78955000D01*
X115558747Y-78896472D01*
X116105200Y-78575710D01*
X116506643Y-78085462D01*
X116660959Y-77478326D01*
X116863150Y-77220280D01*
X117152404Y-77065000D01*
X120385000Y-77065000D01*
X120385000Y-80955000D01*
G37*
D12*
X114935000Y-78955000D02*
X109985000Y-78955000D01*
X120385000Y-77065000D02*
X120385000Y-80955000D01*
X117152404Y-77065000D02*
X120385000Y-77065000D01*
X109485000Y-82955000D02*
X109485000Y-79455000D01*
X118385000Y-82955000D02*
X109485000Y-82955000D01*
X120385000Y-80955000D02*
G75*
G02*
X118385000Y-82955000I-2000000J0D01*
G01*
X109485000Y-79455000D02*
G75*
G02*
X109985000Y-78955000I500000J0D01*
G01*
X116660000Y-77478176D02*
G75*
G02*
X117152404Y-77065000I492404J-86824D01*
G01*
X116660959Y-77478326D02*
G75*
G02*
X114935000Y-78955000I-1725959J270326D01*
G01*
D11*
%TO.C,SW3*%
X139435000Y-80955000D02*
X139236565Y-81701233D01*
X138813858Y-82333858D01*
X138181233Y-82756565D01*
X137435000Y-82955000D01*
X128535000Y-82955000D01*
X128535000Y-79455000D01*
X128716802Y-79136802D01*
X129035000Y-78955000D01*
X133985000Y-78955000D01*
X134608747Y-78896472D01*
X135155200Y-78575710D01*
X135556643Y-78085462D01*
X135710959Y-77478326D01*
X135913150Y-77220280D01*
X136202404Y-77065000D01*
X139435000Y-77065000D01*
X139435000Y-80955000D01*
G36*
X139435000Y-80955000D02*
G01*
X139236565Y-81701233D01*
X138813858Y-82333858D01*
X138181233Y-82756565D01*
X137435000Y-82955000D01*
X128535000Y-82955000D01*
X128535000Y-79455000D01*
X128716802Y-79136802D01*
X129035000Y-78955000D01*
X133985000Y-78955000D01*
X134608747Y-78896472D01*
X135155200Y-78575710D01*
X135556643Y-78085462D01*
X135710959Y-77478326D01*
X135913150Y-77220280D01*
X136202404Y-77065000D01*
X139435000Y-77065000D01*
X139435000Y-80955000D01*
G37*
D12*
X133985000Y-78955000D02*
X129035000Y-78955000D01*
X139435000Y-77065000D02*
X139435000Y-80955000D01*
X136202404Y-77065000D02*
X139435000Y-77065000D01*
X128535000Y-82955000D02*
X128535000Y-79455000D01*
X137435000Y-82955000D02*
X128535000Y-82955000D01*
X139435000Y-80955000D02*
G75*
G02*
X137435000Y-82955000I-2000000J0D01*
G01*
X128535000Y-79455000D02*
G75*
G02*
X129035000Y-78955000I500000J0D01*
G01*
X135710000Y-77478176D02*
G75*
G02*
X136202404Y-77065000I492404J-86824D01*
G01*
X135710959Y-77478326D02*
G75*
G02*
X133985000Y-78955000I-1725959J270326D01*
G01*
D11*
%TO.C,SW9*%
X101335000Y-119055000D02*
X101136565Y-119801233D01*
X100713858Y-120433858D01*
X100081233Y-120856565D01*
X99335000Y-121055000D01*
X90435000Y-121055000D01*
X90435000Y-117555000D01*
X90616802Y-117236802D01*
X90935000Y-117055000D01*
X95885000Y-117055000D01*
X96508747Y-116996472D01*
X97055200Y-116675710D01*
X97456643Y-116185462D01*
X97610959Y-115578326D01*
X97813150Y-115320280D01*
X98102404Y-115165000D01*
X101335000Y-115165000D01*
X101335000Y-119055000D01*
G36*
X101335000Y-119055000D02*
G01*
X101136565Y-119801233D01*
X100713858Y-120433858D01*
X100081233Y-120856565D01*
X99335000Y-121055000D01*
X90435000Y-121055000D01*
X90435000Y-117555000D01*
X90616802Y-117236802D01*
X90935000Y-117055000D01*
X95885000Y-117055000D01*
X96508747Y-116996472D01*
X97055200Y-116675710D01*
X97456643Y-116185462D01*
X97610959Y-115578326D01*
X97813150Y-115320280D01*
X98102404Y-115165000D01*
X101335000Y-115165000D01*
X101335000Y-119055000D01*
G37*
D12*
X95885000Y-117055000D02*
X90935000Y-117055000D01*
X101335000Y-115165000D02*
X101335000Y-119055000D01*
X98102404Y-115165000D02*
X101335000Y-115165000D01*
X90435000Y-121055000D02*
X90435000Y-117555000D01*
X99335000Y-121055000D02*
X90435000Y-121055000D01*
X101335000Y-119055000D02*
G75*
G02*
X99335000Y-121055000I-2000000J0D01*
G01*
X90435000Y-117555000D02*
G75*
G02*
X90935000Y-117055000I500000J0D01*
G01*
X97610000Y-115578176D02*
G75*
G02*
X98102404Y-115165000I492404J-86824D01*
G01*
X97610959Y-115578326D02*
G75*
G02*
X95885000Y-117055000I-1725959J270326D01*
G01*
D11*
%TO.C,SW16*%
X157215000Y-130095000D02*
X157033198Y-130413198D01*
X156715000Y-130595000D01*
X151765000Y-130595000D01*
X151141253Y-130653528D01*
X150594800Y-130974290D01*
X150193357Y-131464538D01*
X150039041Y-132071674D01*
X149836850Y-132329720D01*
X149547596Y-132485000D01*
X146315000Y-132485000D01*
X146315000Y-128595000D01*
X146513435Y-127848767D01*
X146936142Y-127216142D01*
X147568767Y-126793435D01*
X148315000Y-126595000D01*
X157215000Y-126595000D01*
X157215000Y-130095000D01*
G36*
X157215000Y-130095000D02*
G01*
X157033198Y-130413198D01*
X156715000Y-130595000D01*
X151765000Y-130595000D01*
X151141253Y-130653528D01*
X150594800Y-130974290D01*
X150193357Y-131464538D01*
X150039041Y-132071674D01*
X149836850Y-132329720D01*
X149547596Y-132485000D01*
X146315000Y-132485000D01*
X146315000Y-128595000D01*
X146513435Y-127848767D01*
X146936142Y-127216142D01*
X147568767Y-126793435D01*
X148315000Y-126595000D01*
X157215000Y-126595000D01*
X157215000Y-130095000D01*
G37*
D12*
X151765000Y-130595000D02*
X156715000Y-130595000D01*
X146315000Y-132485000D02*
X146315000Y-128595000D01*
X149547596Y-132485000D02*
X146315000Y-132485000D01*
X157215000Y-126595000D02*
X157215000Y-130095000D01*
X148315000Y-126595000D02*
X157215000Y-126595000D01*
X146315000Y-128595000D02*
G75*
G02*
X148315000Y-126595000I2000000J0D01*
G01*
X157215000Y-130095000D02*
G75*
G02*
X156715000Y-130595000I-500000J0D01*
G01*
X150040000Y-132071824D02*
G75*
G02*
X149547596Y-132485000I-492404J86824D01*
G01*
X150039041Y-132071674D02*
G75*
G02*
X151765000Y-130595000I1725959J-270326D01*
G01*
D11*
%TO.C,SW7*%
X138165000Y-91995000D02*
X137983198Y-92313198D01*
X137665000Y-92495000D01*
X132715000Y-92495000D01*
X132091253Y-92553528D01*
X131544800Y-92874290D01*
X131143357Y-93364538D01*
X130989041Y-93971674D01*
X130786850Y-94229720D01*
X130497596Y-94385000D01*
X127265000Y-94385000D01*
X127265000Y-90495000D01*
X127463435Y-89748767D01*
X127886142Y-89116142D01*
X128518767Y-88693435D01*
X129265000Y-88495000D01*
X138165000Y-88495000D01*
X138165000Y-91995000D01*
G36*
X138165000Y-91995000D02*
G01*
X137983198Y-92313198D01*
X137665000Y-92495000D01*
X132715000Y-92495000D01*
X132091253Y-92553528D01*
X131544800Y-92874290D01*
X131143357Y-93364538D01*
X130989041Y-93971674D01*
X130786850Y-94229720D01*
X130497596Y-94385000D01*
X127265000Y-94385000D01*
X127265000Y-90495000D01*
X127463435Y-89748767D01*
X127886142Y-89116142D01*
X128518767Y-88693435D01*
X129265000Y-88495000D01*
X138165000Y-88495000D01*
X138165000Y-91995000D01*
G37*
D12*
X132715000Y-92495000D02*
X137665000Y-92495000D01*
X127265000Y-94385000D02*
X127265000Y-90495000D01*
X130497596Y-94385000D02*
X127265000Y-94385000D01*
X138165000Y-88495000D02*
X138165000Y-91995000D01*
X129265000Y-88495000D02*
X138165000Y-88495000D01*
X127265000Y-90495000D02*
G75*
G02*
X129265000Y-88495000I2000000J0D01*
G01*
X138165000Y-91995000D02*
G75*
G02*
X137665000Y-92495000I-500000J0D01*
G01*
X130990000Y-93971824D02*
G75*
G02*
X130497596Y-94385000I-492404J86824D01*
G01*
X130989041Y-93971674D02*
G75*
G02*
X132715000Y-92495000I1725959J-270326D01*
G01*
D11*
%TO.C,SW14*%
X119115000Y-130095000D02*
X118933198Y-130413198D01*
X118615000Y-130595000D01*
X113665000Y-130595000D01*
X113041253Y-130653528D01*
X112494800Y-130974290D01*
X112093357Y-131464538D01*
X111939041Y-132071674D01*
X111736850Y-132329720D01*
X111447596Y-132485000D01*
X108215000Y-132485000D01*
X108215000Y-128595000D01*
X108413435Y-127848767D01*
X108836142Y-127216142D01*
X109468767Y-126793435D01*
X110215000Y-126595000D01*
X119115000Y-126595000D01*
X119115000Y-130095000D01*
G36*
X119115000Y-130095000D02*
G01*
X118933198Y-130413198D01*
X118615000Y-130595000D01*
X113665000Y-130595000D01*
X113041253Y-130653528D01*
X112494800Y-130974290D01*
X112093357Y-131464538D01*
X111939041Y-132071674D01*
X111736850Y-132329720D01*
X111447596Y-132485000D01*
X108215000Y-132485000D01*
X108215000Y-128595000D01*
X108413435Y-127848767D01*
X108836142Y-127216142D01*
X109468767Y-126793435D01*
X110215000Y-126595000D01*
X119115000Y-126595000D01*
X119115000Y-130095000D01*
G37*
D12*
X113665000Y-130595000D02*
X118615000Y-130595000D01*
X108215000Y-132485000D02*
X108215000Y-128595000D01*
X111447596Y-132485000D02*
X108215000Y-132485000D01*
X119115000Y-126595000D02*
X119115000Y-130095000D01*
X110215000Y-126595000D02*
X119115000Y-126595000D01*
X108215000Y-128595000D02*
G75*
G02*
X110215000Y-126595000I2000000J0D01*
G01*
X119115000Y-130095000D02*
G75*
G02*
X118615000Y-130595000I-500000J0D01*
G01*
X111940000Y-132071824D02*
G75*
G02*
X111447596Y-132485000I-492404J86824D01*
G01*
X111939041Y-132071674D02*
G75*
G02*
X113665000Y-130595000I1725959J-270326D01*
G01*
D11*
%TO.C,SW10*%
X120385000Y-119055000D02*
X120186565Y-119801233D01*
X119763858Y-120433858D01*
X119131233Y-120856565D01*
X118385000Y-121055000D01*
X109485000Y-121055000D01*
X109485000Y-117555000D01*
X109666802Y-117236802D01*
X109985000Y-117055000D01*
X114935000Y-117055000D01*
X115558747Y-116996472D01*
X116105200Y-116675710D01*
X116506643Y-116185462D01*
X116660959Y-115578326D01*
X116863150Y-115320280D01*
X117152404Y-115165000D01*
X120385000Y-115165000D01*
X120385000Y-119055000D01*
G36*
X120385000Y-119055000D02*
G01*
X120186565Y-119801233D01*
X119763858Y-120433858D01*
X119131233Y-120856565D01*
X118385000Y-121055000D01*
X109485000Y-121055000D01*
X109485000Y-117555000D01*
X109666802Y-117236802D01*
X109985000Y-117055000D01*
X114935000Y-117055000D01*
X115558747Y-116996472D01*
X116105200Y-116675710D01*
X116506643Y-116185462D01*
X116660959Y-115578326D01*
X116863150Y-115320280D01*
X117152404Y-115165000D01*
X120385000Y-115165000D01*
X120385000Y-119055000D01*
G37*
D12*
X114935000Y-117055000D02*
X109985000Y-117055000D01*
X120385000Y-115165000D02*
X120385000Y-119055000D01*
X117152404Y-115165000D02*
X120385000Y-115165000D01*
X109485000Y-121055000D02*
X109485000Y-117555000D01*
X118385000Y-121055000D02*
X109485000Y-121055000D01*
X120385000Y-119055000D02*
G75*
G02*
X118385000Y-121055000I-2000000J0D01*
G01*
X109485000Y-117555000D02*
G75*
G02*
X109985000Y-117055000I500000J0D01*
G01*
X116660000Y-115578176D02*
G75*
G02*
X117152404Y-115165000I492404J-86824D01*
G01*
X116660959Y-115578326D02*
G75*
G02*
X114935000Y-117055000I-1725959J270326D01*
G01*
D11*
%TO.C,SW8*%
X157215000Y-91995000D02*
X157033198Y-92313198D01*
X156715000Y-92495000D01*
X151765000Y-92495000D01*
X151141253Y-92553528D01*
X150594800Y-92874290D01*
X150193357Y-93364538D01*
X150039041Y-93971674D01*
X149836850Y-94229720D01*
X149547596Y-94385000D01*
X146315000Y-94385000D01*
X146315000Y-90495000D01*
X146513435Y-89748767D01*
X146936142Y-89116142D01*
X147568767Y-88693435D01*
X148315000Y-88495000D01*
X157215000Y-88495000D01*
X157215000Y-91995000D01*
G36*
X157215000Y-91995000D02*
G01*
X157033198Y-92313198D01*
X156715000Y-92495000D01*
X151765000Y-92495000D01*
X151141253Y-92553528D01*
X150594800Y-92874290D01*
X150193357Y-93364538D01*
X150039041Y-93971674D01*
X149836850Y-94229720D01*
X149547596Y-94385000D01*
X146315000Y-94385000D01*
X146315000Y-90495000D01*
X146513435Y-89748767D01*
X146936142Y-89116142D01*
X147568767Y-88693435D01*
X148315000Y-88495000D01*
X157215000Y-88495000D01*
X157215000Y-91995000D01*
G37*
D12*
X151765000Y-92495000D02*
X156715000Y-92495000D01*
X146315000Y-94385000D02*
X146315000Y-90495000D01*
X149547596Y-94385000D02*
X146315000Y-94385000D01*
X157215000Y-88495000D02*
X157215000Y-91995000D01*
X148315000Y-88495000D02*
X157215000Y-88495000D01*
X146315000Y-90495000D02*
G75*
G02*
X148315000Y-88495000I2000000J0D01*
G01*
X157215000Y-91995000D02*
G75*
G02*
X156715000Y-92495000I-500000J0D01*
G01*
X150040000Y-93971824D02*
G75*
G02*
X149547596Y-94385000I-492404J86824D01*
G01*
X150039041Y-93971674D02*
G75*
G02*
X151765000Y-92495000I1725959J-270326D01*
G01*
%TO.C,J5*%
D13*
X95758954Y-42178234D02*
G75*
G02*
X95504954Y-42178234I-127000J0D01*
G01*
X95504954Y-42178234D02*
G75*
G02*
X95758954Y-42178234I127000J0D01*
G01*
%TO.C,J4*%
X88272317Y-52248046D02*
G75*
G02*
X88018317Y-52248046I-127000J0D01*
G01*
X88018317Y-52248046D02*
G75*
G02*
X88272317Y-52248046I127000J0D01*
G01*
%TO.C,J1*%
D12*
X161775000Y-47945000D02*
X160395000Y-47945000D01*
X161775000Y-49325000D02*
X161775000Y-47945000D01*
X161775000Y-50595000D02*
X161775000Y-60865000D01*
X161775000Y-50595000D02*
X159015000Y-50595000D01*
X161775000Y-60865000D02*
X159015000Y-60865000D01*
X159015000Y-50595000D02*
X159015000Y-60865000D01*
%TO.C,C25*%
X97560580Y-108695000D02*
X97279420Y-108695000D01*
X97560580Y-109715000D02*
X97279420Y-109715000D01*
%TO.C,C12*%
X101535000Y-59990580D02*
X101535000Y-59709420D01*
X102555000Y-59990580D02*
X102555000Y-59709420D01*
%TO.C,C16*%
X126055000Y-112984420D02*
X126055000Y-113265580D01*
X127075000Y-112984420D02*
X127075000Y-113265580D01*
%TO.C,C9*%
X106775000Y-53569420D02*
X106775000Y-53850580D01*
X107795000Y-53569420D02*
X107795000Y-53850580D01*
%TO.C,D8*%
X150487500Y-84615000D02*
X154497500Y-84615000D01*
X150487500Y-86615000D02*
X150487500Y-84615000D01*
X150487500Y-86615000D02*
X154497500Y-86615000D01*
%TO.C,D6*%
X111935000Y-84755000D02*
X115945000Y-84755000D01*
X111935000Y-86755000D02*
X111935000Y-84755000D01*
X111935000Y-86755000D02*
X115945000Y-86755000D01*
%TO.C,C18*%
X116120580Y-107225000D02*
X115839420Y-107225000D01*
X116120580Y-108245000D02*
X115839420Y-108245000D01*
%TO.C,C10*%
X96125000Y-53626252D02*
X96125000Y-52203748D01*
X97945000Y-53626252D02*
X97945000Y-52203748D01*
%TO.C,Y2*%
X136655000Y-99655000D02*
X136655000Y-103075000D01*
X136655000Y-103075000D02*
X132535000Y-103075000D01*
%TO.C,C26*%
X139515580Y-99765000D02*
X139234420Y-99765000D01*
X139515580Y-100785000D02*
X139234420Y-100785000D01*
%TO.C,D12*%
X155125000Y-122905000D02*
X151115000Y-122905000D01*
X155125000Y-122905000D02*
X155125000Y-124905000D01*
X155125000Y-124905000D02*
X151115000Y-124905000D01*
%TO.C,D16*%
X161325000Y-139025000D02*
X157315000Y-139025000D01*
X161325000Y-139025000D02*
X161325000Y-141025000D01*
X161325000Y-141025000D02*
X157315000Y-141025000D01*
%TO.C,R7*%
X97587258Y-105792500D02*
X97112742Y-105792500D01*
X97587258Y-106837500D02*
X97112742Y-106837500D01*
%TO.C,U3*%
X120245000Y-101795000D02*
X120245000Y-102445000D01*
X120895000Y-101795000D02*
X120245000Y-101795000D01*
X120895000Y-109015000D02*
X120245000Y-109015000D01*
X126815000Y-101795000D02*
X127465000Y-101795000D01*
X126815000Y-109015000D02*
X127465000Y-109015000D01*
X127465000Y-101795000D02*
X127465000Y-102445000D01*
X127465000Y-109015000D02*
X127465000Y-108365000D01*
%TO.C,BSW1*%
D14*
X146047500Y-45935000D02*
X152047500Y-45935000D01*
X146047500Y-51935000D02*
X146047500Y-45935000D01*
X152047500Y-45935000D02*
X152047500Y-51935000D01*
X152047500Y-51935000D02*
X146047500Y-51935000D01*
D15*
X155397500Y-46685000D02*
G75*
G02*
X155197500Y-46685000I-100000J0D01*
G01*
X155197500Y-46685000D02*
G75*
G02*
X155397500Y-46685000I100000J0D01*
G01*
%TO.C,C7*%
D12*
X122470580Y-60195000D02*
X122189420Y-60195000D01*
X122470580Y-61215000D02*
X122189420Y-61215000D01*
%TO.C,D1*%
X92355000Y-71175000D02*
X88345000Y-71175000D01*
X92355000Y-71175000D02*
X92355000Y-73175000D01*
X92355000Y-73175000D02*
X88345000Y-73175000D01*
%TO.C,C21*%
X131414420Y-104625000D02*
X131695580Y-104625000D01*
X131414420Y-105645000D02*
X131695580Y-105645000D01*
%TO.C,D13*%
X103895000Y-138555000D02*
X99885000Y-138555000D01*
X103895000Y-138555000D02*
X103895000Y-140555000D01*
X103895000Y-140555000D02*
X99885000Y-140555000D01*
%TO.C,D9*%
X97125000Y-122565000D02*
X93115000Y-122565000D01*
X97125000Y-122565000D02*
X97125000Y-124565000D01*
X97125000Y-124565000D02*
X93115000Y-124565000D01*
%TO.C,C2*%
X91460000Y-61733748D02*
X91460000Y-62256252D01*
X92930000Y-61733748D02*
X92930000Y-62256252D01*
%TO.C,R11*%
X149022500Y-43147258D02*
X149022500Y-42672742D01*
X150067500Y-43147258D02*
X150067500Y-42672742D01*
%TO.C,R6*%
X122557258Y-62632500D02*
X122082742Y-62632500D01*
X122557258Y-63677500D02*
X122082742Y-63677500D01*
%TO.C,C14*%
X134360000Y-109653748D02*
X134360000Y-110176252D01*
X135830000Y-109653748D02*
X135830000Y-110176252D01*
%TO.C,C17*%
X116296252Y-100410000D02*
X115773748Y-100410000D01*
X116296252Y-101880000D02*
X115773748Y-101880000D01*
%TO.C,R5*%
X122572258Y-64522500D02*
X122097742Y-64522500D01*
X122572258Y-65567500D02*
X122097742Y-65567500D01*
%TO.C,R10*%
X146392500Y-43142258D02*
X146392500Y-42667742D01*
X147437500Y-43142258D02*
X147437500Y-42667742D01*
%TO.C,C8*%
X102855000Y-52323748D02*
X102855000Y-53746252D01*
X104675000Y-52323748D02*
X104675000Y-53746252D01*
%TO.C,U1*%
D16*
X110799200Y-65294000D02*
X110799200Y-55896000D01*
X111180200Y-55515000D02*
X112247000Y-55515000D01*
X112247000Y-55515000D02*
X113263000Y-55515000D01*
X113263000Y-55515000D02*
X114329800Y-55515000D01*
X114329800Y-65675000D02*
X111180200Y-65675000D01*
D17*
X114355200Y-55515000D02*
X114355200Y-65675000D01*
D16*
X114710800Y-55896000D02*
X114710800Y-65294000D01*
X110799200Y-55896000D02*
G75*
G02*
X111180200Y-55515000I380999J1D01*
G01*
X111180200Y-65675000D02*
G75*
G02*
X110799200Y-65294000I0J381000D01*
G01*
X113263000Y-55515000D02*
G75*
G02*
X112247000Y-55515000I-508000J0D01*
G01*
X114329800Y-55515000D02*
G75*
G02*
X114710800Y-55896000I1J-380999D01*
G01*
X114710800Y-65294000D02*
G75*
G02*
X114329800Y-65675000I-381000J0D01*
G01*
%TO.C,U2*%
D12*
X128335000Y-57955000D02*
X132095000Y-57955000D01*
X128335000Y-64775000D02*
X132095000Y-64775000D01*
X132095000Y-57955000D02*
X132095000Y-59215000D01*
X132095000Y-64775000D02*
X132095000Y-63515000D01*
X127295000Y-65005000D02*
X126815000Y-65005000D01*
X127055000Y-64675000D01*
X127295000Y-65005000D01*
G36*
X127295000Y-65005000D02*
G01*
X126815000Y-65005000D01*
X127055000Y-64675000D01*
X127295000Y-65005000D01*
G37*
%TO.C,D4*%
X149525000Y-70765000D02*
X145515000Y-70765000D01*
X149525000Y-70765000D02*
X149525000Y-72765000D01*
X149525000Y-72765000D02*
X145515000Y-72765000D01*
%TO.C,U4*%
X100785000Y-102985000D02*
X100785000Y-108505000D01*
X100785000Y-108505000D02*
X101055000Y-108505000D01*
X101055000Y-102985000D02*
X100785000Y-102985000D01*
X106035000Y-108505000D02*
X106305000Y-108505000D01*
X106305000Y-102985000D02*
X106035000Y-102985000D01*
X106305000Y-108505000D02*
X106305000Y-102985000D01*
X101045000Y-102155000D02*
X100575000Y-102495000D01*
X100575000Y-101815000D01*
X101045000Y-102155000D01*
G36*
X101045000Y-102155000D02*
G01*
X100575000Y-102495000D01*
X100575000Y-101815000D01*
X101045000Y-102155000D01*
G37*
%TO.C,C20*%
X122895000Y-98930580D02*
X122895000Y-98649420D01*
X123915000Y-98930580D02*
X123915000Y-98649420D01*
%TO.C,C1*%
X88715000Y-61634420D02*
X88715000Y-61915580D01*
X89735000Y-61634420D02*
X89735000Y-61915580D01*
%TO.C,FB1*%
X91627742Y-51952500D02*
X92102258Y-51952500D01*
X91627742Y-52997500D02*
X92102258Y-52997500D01*
%TO.C,C5*%
X88535000Y-45674420D02*
X88535000Y-45955580D01*
X89555000Y-45674420D02*
X89555000Y-45955580D01*
%TO.C,C19*%
X116185580Y-104105000D02*
X115904420Y-104105000D01*
X116185580Y-105125000D02*
X115904420Y-105125000D01*
%TO.C,BSW2*%
D14*
X146067500Y-56115000D02*
X152067500Y-56115000D01*
X146067500Y-62115000D02*
X146067500Y-56115000D01*
X152067500Y-56115000D02*
X152067500Y-62115000D01*
X152067500Y-62115000D02*
X146067500Y-62115000D01*
D15*
X155417500Y-56865000D02*
G75*
G02*
X155217500Y-56865000I-100000J0D01*
G01*
X155217500Y-56865000D02*
G75*
G02*
X155417500Y-56865000I100000J0D01*
G01*
%TO.C,C15*%
D12*
X124575000Y-98935580D02*
X124575000Y-98654420D01*
X125595000Y-98935580D02*
X125595000Y-98654420D01*
%TO.C,C24*%
X124395000Y-112974420D02*
X124395000Y-113255580D01*
X125415000Y-112974420D02*
X125415000Y-113255580D01*
%TO.C,R8*%
X140107258Y-50992500D02*
X139632742Y-50992500D01*
X140107258Y-52037500D02*
X139632742Y-52037500D01*
%TO.C,D11*%
X135385000Y-122895000D02*
X131375000Y-122895000D01*
X135385000Y-122895000D02*
X135385000Y-124895000D01*
X135385000Y-124895000D02*
X131375000Y-124895000D01*
%TO.C,C23*%
X130004420Y-108805000D02*
X130285580Y-108805000D01*
X130004420Y-109825000D02*
X130285580Y-109825000D01*
%TO.C,D7*%
X130925000Y-84745000D02*
X134935000Y-84745000D01*
X130925000Y-86745000D02*
X130925000Y-84745000D01*
X130925000Y-86745000D02*
X134935000Y-86745000D01*
%TO.C,C6*%
X122505580Y-58375000D02*
X122224420Y-58375000D01*
X122505580Y-59395000D02*
X122224420Y-59395000D01*
%TO.C,C11*%
X99895000Y-53675580D02*
X99895000Y-53394420D01*
X100915000Y-53675580D02*
X100915000Y-53394420D01*
%TO.C,D2*%
X111395000Y-71005000D02*
X107385000Y-71005000D01*
X111395000Y-71005000D02*
X111395000Y-73005000D01*
X111395000Y-73005000D02*
X107385000Y-73005000D01*
%TO.C,C13*%
X98455000Y-59821252D02*
X98455000Y-58398748D01*
X100275000Y-59821252D02*
X100275000Y-58398748D01*
%TO.C,D3*%
X130315000Y-70875000D02*
X126305000Y-70875000D01*
X130315000Y-70875000D02*
X130315000Y-72875000D01*
X130315000Y-72875000D02*
X126305000Y-72875000D01*
%TO.C,C22*%
X131424420Y-106265000D02*
X131705580Y-106265000D01*
X131424420Y-107285000D02*
X131705580Y-107285000D01*
%TO.C,D14*%
X123392500Y-138755000D02*
X119382500Y-138755000D01*
X123392500Y-138755000D02*
X123392500Y-140755000D01*
X123392500Y-140755000D02*
X119382500Y-140755000D01*
%TO.C,R9*%
X139912500Y-62622258D02*
X139912500Y-62147742D01*
X140957500Y-62622258D02*
X140957500Y-62147742D01*
%TO.C,D5*%
X92987500Y-84865000D02*
X96997500Y-84865000D01*
X92987500Y-86865000D02*
X92987500Y-84865000D01*
X92987500Y-86865000D02*
X96997500Y-86865000D01*
%TO.C,D15*%
X142172500Y-138825000D02*
X138162500Y-138825000D01*
X142172500Y-138825000D02*
X142172500Y-140825000D01*
X142172500Y-140825000D02*
X138162500Y-140825000D01*
%TO.C,C27*%
X139555580Y-101585000D02*
X139274420Y-101585000D01*
X139555580Y-102605000D02*
X139274420Y-102605000D01*
%TO.C,D10*%
X116802500Y-122685000D02*
X112792500Y-122685000D01*
X116802500Y-122685000D02*
X116802500Y-124685000D01*
X116802500Y-124685000D02*
X112792500Y-124685000D01*
%TD*%
M02*
